M48
; DRILL file {KiCad 9.0.7-9.0.7~ubuntu24.04.1} date 2026-01-20T11:30:13-0500
; FORMAT={-:-/ absolute / metric / decimal}
; #@! TF.CreationDate,2026-01-20T11:30:13-05:00
; #@! TF.GenerationSoftware,Kicad,Pcbnew,9.0.7-9.0.7~ubuntu24.04.1
; #@! TF.FileFunction,Plated,1,2,PTH
FMAT,2
METRIC
; #@! TA.AperFunction,Plated,PTH,ViaDrill
T1C0.300
; #@! TA.AperFunction,Plated,PTH,ComponentDrill
T2C0.800
; #@! TA.AperFunction,Plated,PTH,ComponentDrill
T3C0.900
; #@! TA.AperFunction,Plated,PTH,ComponentDrill
T4C1.000
; #@! TA.AperFunction,Plated,PTH,ComponentDrill
T5C1.200
%
G90
G05
T1
X41.07Y-30.09
X41.14Y-39.48
X48.64Y-73.21
X49.4Y-71.9
X50.11Y-74.04
X50.95Y-75.37
X52.35Y-43.44
X53.21Y-44.42
T2
X23.26Y-40.24
X23.26Y-50.4
X46.705Y-31.89
X46.705Y-34.43
X46.705Y-36.97
X46.705Y-39.51
X48.09Y-26.05
X53.09Y-26.05
X54.325Y-31.89
X54.325Y-34.43
X54.325Y-36.97
X54.325Y-39.51
X64.35Y-34.06
X64.35Y-40.36
X74.51Y-34.06
X74.51Y-40.36
X97.13Y-40.52
X97.13Y-50.68
T3
X22.15Y-59.96
X24.69Y-59.96
X35.86Y-27.59
X35.86Y-30.09
X35.86Y-32.59
X64.3Y-26.08
X66.84Y-26.08
X83.46Y-27.58
X83.46Y-30.08
X83.46Y-32.58
X95.725Y-59.96
X98.265Y-59.96
T4
X21.09Y-71.93
X21.09Y-74.47
X21.09Y-77.01
X23.63Y-71.93
X23.63Y-74.47
X23.63Y-77.01
T5
X86.71Y-55.18
X86.71Y-67.88
M30
