%TF.GenerationSoftware,KiCad,Pcbnew,9.0.7-9.0.7~ubuntu24.04.1*%
%TF.CreationDate,2026-01-20T11:30:11-05:00*%
%TF.ProjectId,GS_Circuit,47535f43-6972-4637-9569-742e6b696361,rev?*%
%TF.SameCoordinates,Original*%
%TF.FileFunction,Legend,Bot*%
%TF.FilePolarity,Positive*%
%FSLAX46Y46*%
G04 Gerber Fmt 4.6, Leading zero omitted, Abs format (unit mm)*
G04 Created by KiCad (PCBNEW 9.0.7-9.0.7~ubuntu24.04.1) date 2026-01-20 11:30:11*
%MOMM*%
%LPD*%
G01*
G04 APERTURE LIST*
%ADD10C,0.152400*%
%ADD11C,0.203200*%
%ADD12C,0.150000*%
%ADD13C,0.100000*%
%ADD14C,0.120000*%
G04 APERTURE END LIST*
D10*
X101499165Y-79097313D02*
X101571737Y-79049694D01*
X101571737Y-79049694D02*
X101680594Y-79049694D01*
X101680594Y-79049694D02*
X101789451Y-79097313D01*
X101789451Y-79097313D02*
X101862022Y-79192551D01*
X101862022Y-79192551D02*
X101898308Y-79287789D01*
X101898308Y-79287789D02*
X101934594Y-79478265D01*
X101934594Y-79478265D02*
X101934594Y-79621122D01*
X101934594Y-79621122D02*
X101898308Y-79811598D01*
X101898308Y-79811598D02*
X101862022Y-79906836D01*
X101862022Y-79906836D02*
X101789451Y-80002075D01*
X101789451Y-80002075D02*
X101680594Y-80049694D01*
X101680594Y-80049694D02*
X101608022Y-80049694D01*
X101608022Y-80049694D02*
X101499165Y-80002075D01*
X101499165Y-80002075D02*
X101462879Y-79954455D01*
X101462879Y-79954455D02*
X101462879Y-79621122D01*
X101462879Y-79621122D02*
X101608022Y-79621122D01*
X101172594Y-80002075D02*
X101063737Y-80049694D01*
X101063737Y-80049694D02*
X100882308Y-80049694D01*
X100882308Y-80049694D02*
X100809737Y-80002075D01*
X100809737Y-80002075D02*
X100773451Y-79954455D01*
X100773451Y-79954455D02*
X100737165Y-79859217D01*
X100737165Y-79859217D02*
X100737165Y-79763979D01*
X100737165Y-79763979D02*
X100773451Y-79668741D01*
X100773451Y-79668741D02*
X100809737Y-79621122D01*
X100809737Y-79621122D02*
X100882308Y-79573503D01*
X100882308Y-79573503D02*
X101027451Y-79525884D01*
X101027451Y-79525884D02*
X101100022Y-79478265D01*
X101100022Y-79478265D02*
X101136308Y-79430646D01*
X101136308Y-79430646D02*
X101172594Y-79335408D01*
X101172594Y-79335408D02*
X101172594Y-79240170D01*
X101172594Y-79240170D02*
X101136308Y-79144932D01*
X101136308Y-79144932D02*
X101100022Y-79097313D01*
X101100022Y-79097313D02*
X101027451Y-79049694D01*
X101027451Y-79049694D02*
X100846022Y-79049694D01*
X100846022Y-79049694D02*
X100737165Y-79097313D01*
X100592023Y-80144932D02*
X100011451Y-80144932D01*
X99830023Y-80049694D02*
X99830023Y-79049694D01*
X99830023Y-79049694D02*
X99394594Y-80049694D01*
X99394594Y-80049694D02*
X99394594Y-79049694D01*
X99031737Y-80049694D02*
X99031737Y-79049694D01*
X98269737Y-79097313D02*
X98342309Y-79049694D01*
X98342309Y-79049694D02*
X98451166Y-79049694D01*
X98451166Y-79049694D02*
X98560023Y-79097313D01*
X98560023Y-79097313D02*
X98632594Y-79192551D01*
X98632594Y-79192551D02*
X98668880Y-79287789D01*
X98668880Y-79287789D02*
X98705166Y-79478265D01*
X98705166Y-79478265D02*
X98705166Y-79621122D01*
X98705166Y-79621122D02*
X98668880Y-79811598D01*
X98668880Y-79811598D02*
X98632594Y-79906836D01*
X98632594Y-79906836D02*
X98560023Y-80002075D01*
X98560023Y-80002075D02*
X98451166Y-80049694D01*
X98451166Y-80049694D02*
X98378594Y-80049694D01*
X98378594Y-80049694D02*
X98269737Y-80002075D01*
X98269737Y-80002075D02*
X98233451Y-79954455D01*
X98233451Y-79954455D02*
X98233451Y-79621122D01*
X98233451Y-79621122D02*
X98378594Y-79621122D01*
X97906880Y-80049694D02*
X97906880Y-79049694D01*
X97906880Y-79525884D02*
X97471451Y-79525884D01*
X97471451Y-80049694D02*
X97471451Y-79049694D01*
X97217451Y-79049694D02*
X96782023Y-79049694D01*
X96999737Y-80049694D02*
X96999737Y-79049694D01*
X96709452Y-80144932D02*
X96128880Y-80144932D01*
X95584595Y-80049694D02*
X95947452Y-80049694D01*
X95947452Y-80049694D02*
X95947452Y-79049694D01*
X95330595Y-80049694D02*
X95330595Y-79049694D01*
X94568595Y-79097313D02*
X94641167Y-79049694D01*
X94641167Y-79049694D02*
X94750024Y-79049694D01*
X94750024Y-79049694D02*
X94858881Y-79097313D01*
X94858881Y-79097313D02*
X94931452Y-79192551D01*
X94931452Y-79192551D02*
X94967738Y-79287789D01*
X94967738Y-79287789D02*
X95004024Y-79478265D01*
X95004024Y-79478265D02*
X95004024Y-79621122D01*
X95004024Y-79621122D02*
X94967738Y-79811598D01*
X94967738Y-79811598D02*
X94931452Y-79906836D01*
X94931452Y-79906836D02*
X94858881Y-80002075D01*
X94858881Y-80002075D02*
X94750024Y-80049694D01*
X94750024Y-80049694D02*
X94677452Y-80049694D01*
X94677452Y-80049694D02*
X94568595Y-80002075D01*
X94568595Y-80002075D02*
X94532309Y-79954455D01*
X94532309Y-79954455D02*
X94532309Y-79621122D01*
X94532309Y-79621122D02*
X94677452Y-79621122D01*
X94205738Y-80049694D02*
X94205738Y-79049694D01*
X94205738Y-79525884D02*
X93770309Y-79525884D01*
X93770309Y-80049694D02*
X93770309Y-79049694D01*
X93516309Y-79049694D02*
X93080881Y-79049694D01*
X93298595Y-80049694D02*
X93298595Y-79049694D01*
X93008310Y-80144932D02*
X92427738Y-80144932D01*
X92355167Y-79049694D02*
X92101167Y-80049694D01*
X92101167Y-80049694D02*
X91847167Y-79049694D01*
X91194024Y-80049694D02*
X91629453Y-80049694D01*
X91411738Y-80049694D02*
X91411738Y-79049694D01*
X91411738Y-79049694D02*
X91484310Y-79192551D01*
X91484310Y-79192551D02*
X91556881Y-79287789D01*
X91556881Y-79287789D02*
X91629453Y-79335408D01*
D11*
X94327000Y-63900637D02*
X94073000Y-63985304D01*
X94073000Y-63985304D02*
X93988333Y-64069970D01*
X93988333Y-64069970D02*
X93903666Y-64239304D01*
X93903666Y-64239304D02*
X93903666Y-64493304D01*
X93903666Y-64493304D02*
X93988333Y-64662637D01*
X93988333Y-64662637D02*
X94073000Y-64747304D01*
X94073000Y-64747304D02*
X94242333Y-64831970D01*
X94242333Y-64831970D02*
X94919666Y-64831970D01*
X94919666Y-64831970D02*
X94919666Y-63053970D01*
X94919666Y-63053970D02*
X94327000Y-63053970D01*
X94327000Y-63053970D02*
X94157666Y-63138637D01*
X94157666Y-63138637D02*
X94073000Y-63223304D01*
X94073000Y-63223304D02*
X93988333Y-63392637D01*
X93988333Y-63392637D02*
X93988333Y-63561970D01*
X93988333Y-63561970D02*
X94073000Y-63731304D01*
X94073000Y-63731304D02*
X94157666Y-63815970D01*
X94157666Y-63815970D02*
X94327000Y-63900637D01*
X94327000Y-63900637D02*
X94919666Y-63900637D01*
X93395666Y-63053970D02*
X92379666Y-63053970D01*
X92887666Y-64831970D02*
X92887666Y-63053970D01*
X90855666Y-64831970D02*
X91871666Y-64831970D01*
X91363666Y-64831970D02*
X91363666Y-63053970D01*
X91363666Y-63053970D02*
X91532999Y-63307970D01*
X91532999Y-63307970D02*
X91702333Y-63477304D01*
X91702333Y-63477304D02*
X91871666Y-63561970D01*
D12*
X92352857Y-55467200D02*
X90067143Y-55467200D01*
X91210000Y-56610057D02*
X91210000Y-54324342D01*
D11*
X51814666Y-42883970D02*
X51814666Y-44323304D01*
X51814666Y-44323304D02*
X51730000Y-44492637D01*
X51730000Y-44492637D02*
X51645333Y-44577304D01*
X51645333Y-44577304D02*
X51476000Y-44661970D01*
X51476000Y-44661970D02*
X51137333Y-44661970D01*
X51137333Y-44661970D02*
X50968000Y-44577304D01*
X50968000Y-44577304D02*
X50883333Y-44492637D01*
X50883333Y-44492637D02*
X50798666Y-44323304D01*
X50798666Y-44323304D02*
X50798666Y-42883970D01*
X50036666Y-43053304D02*
X49951999Y-42968637D01*
X49951999Y-42968637D02*
X49782666Y-42883970D01*
X49782666Y-42883970D02*
X49359333Y-42883970D01*
X49359333Y-42883970D02*
X49189999Y-42968637D01*
X49189999Y-42968637D02*
X49105333Y-43053304D01*
X49105333Y-43053304D02*
X49020666Y-43222637D01*
X49020666Y-43222637D02*
X49020666Y-43391970D01*
X49020666Y-43391970D02*
X49105333Y-43645970D01*
X49105333Y-43645970D02*
X50121333Y-44661970D01*
X50121333Y-44661970D02*
X49020666Y-44661970D01*
X78216332Y-34751970D02*
X78808999Y-33905304D01*
X79232332Y-34751970D02*
X79232332Y-32973970D01*
X79232332Y-32973970D02*
X78554999Y-32973970D01*
X78554999Y-32973970D02*
X78385666Y-33058637D01*
X78385666Y-33058637D02*
X78300999Y-33143304D01*
X78300999Y-33143304D02*
X78216332Y-33312637D01*
X78216332Y-33312637D02*
X78216332Y-33566637D01*
X78216332Y-33566637D02*
X78300999Y-33735970D01*
X78300999Y-33735970D02*
X78385666Y-33820637D01*
X78385666Y-33820637D02*
X78554999Y-33905304D01*
X78554999Y-33905304D02*
X79232332Y-33905304D01*
X76692332Y-33566637D02*
X76692332Y-34751970D01*
X77115666Y-32889304D02*
X77538999Y-34159304D01*
X77538999Y-34159304D02*
X76438332Y-34159304D01*
X56656332Y-26602637D02*
X56740999Y-26687304D01*
X56740999Y-26687304D02*
X56994999Y-26771970D01*
X56994999Y-26771970D02*
X57164332Y-26771970D01*
X57164332Y-26771970D02*
X57418332Y-26687304D01*
X57418332Y-26687304D02*
X57587666Y-26517970D01*
X57587666Y-26517970D02*
X57672332Y-26348637D01*
X57672332Y-26348637D02*
X57756999Y-26009970D01*
X57756999Y-26009970D02*
X57756999Y-25755970D01*
X57756999Y-25755970D02*
X57672332Y-25417304D01*
X57672332Y-25417304D02*
X57587666Y-25247970D01*
X57587666Y-25247970D02*
X57418332Y-25078637D01*
X57418332Y-25078637D02*
X57164332Y-24993970D01*
X57164332Y-24993970D02*
X56994999Y-24993970D01*
X56994999Y-24993970D02*
X56740999Y-25078637D01*
X56740999Y-25078637D02*
X56656332Y-25163304D01*
X54962999Y-26771970D02*
X55978999Y-26771970D01*
X55470999Y-26771970D02*
X55470999Y-24993970D01*
X55470999Y-24993970D02*
X55640332Y-25247970D01*
X55640332Y-25247970D02*
X55809666Y-25417304D01*
X55809666Y-25417304D02*
X55978999Y-25501970D01*
X101036332Y-46581970D02*
X101628999Y-45735304D01*
X102052332Y-46581970D02*
X102052332Y-44803970D01*
X102052332Y-44803970D02*
X101374999Y-44803970D01*
X101374999Y-44803970D02*
X101205666Y-44888637D01*
X101205666Y-44888637D02*
X101120999Y-44973304D01*
X101120999Y-44973304D02*
X101036332Y-45142637D01*
X101036332Y-45142637D02*
X101036332Y-45396637D01*
X101036332Y-45396637D02*
X101120999Y-45565970D01*
X101120999Y-45565970D02*
X101205666Y-45650637D01*
X101205666Y-45650637D02*
X101374999Y-45735304D01*
X101374999Y-45735304D02*
X102052332Y-45735304D01*
X100358999Y-44973304D02*
X100274332Y-44888637D01*
X100274332Y-44888637D02*
X100104999Y-44803970D01*
X100104999Y-44803970D02*
X99681666Y-44803970D01*
X99681666Y-44803970D02*
X99512332Y-44888637D01*
X99512332Y-44888637D02*
X99427666Y-44973304D01*
X99427666Y-44973304D02*
X99342999Y-45142637D01*
X99342999Y-45142637D02*
X99342999Y-45311970D01*
X99342999Y-45311970D02*
X99427666Y-45565970D01*
X99427666Y-45565970D02*
X100443666Y-46581970D01*
X100443666Y-46581970D02*
X99342999Y-46581970D01*
X78376332Y-41341970D02*
X78968999Y-40495304D01*
X79392332Y-41341970D02*
X79392332Y-39563970D01*
X79392332Y-39563970D02*
X78714999Y-39563970D01*
X78714999Y-39563970D02*
X78545666Y-39648637D01*
X78545666Y-39648637D02*
X78460999Y-39733304D01*
X78460999Y-39733304D02*
X78376332Y-39902637D01*
X78376332Y-39902637D02*
X78376332Y-40156637D01*
X78376332Y-40156637D02*
X78460999Y-40325970D01*
X78460999Y-40325970D02*
X78545666Y-40410637D01*
X78545666Y-40410637D02*
X78714999Y-40495304D01*
X78714999Y-40495304D02*
X79392332Y-40495304D01*
X77783666Y-39563970D02*
X76682999Y-39563970D01*
X76682999Y-39563970D02*
X77275666Y-40241304D01*
X77275666Y-40241304D02*
X77021666Y-40241304D01*
X77021666Y-40241304D02*
X76852332Y-40325970D01*
X76852332Y-40325970D02*
X76767666Y-40410637D01*
X76767666Y-40410637D02*
X76682999Y-40579970D01*
X76682999Y-40579970D02*
X76682999Y-41003304D01*
X76682999Y-41003304D02*
X76767666Y-41172637D01*
X76767666Y-41172637D02*
X76852332Y-41257304D01*
X76852332Y-41257304D02*
X77021666Y-41341970D01*
X77021666Y-41341970D02*
X77529666Y-41341970D01*
X77529666Y-41341970D02*
X77698999Y-41257304D01*
X77698999Y-41257304D02*
X77783666Y-41172637D01*
X27496332Y-46161970D02*
X28088999Y-45315304D01*
X28512332Y-46161970D02*
X28512332Y-44383970D01*
X28512332Y-44383970D02*
X27834999Y-44383970D01*
X27834999Y-44383970D02*
X27665666Y-44468637D01*
X27665666Y-44468637D02*
X27580999Y-44553304D01*
X27580999Y-44553304D02*
X27496332Y-44722637D01*
X27496332Y-44722637D02*
X27496332Y-44976637D01*
X27496332Y-44976637D02*
X27580999Y-45145970D01*
X27580999Y-45145970D02*
X27665666Y-45230637D01*
X27665666Y-45230637D02*
X27834999Y-45315304D01*
X27834999Y-45315304D02*
X28512332Y-45315304D01*
X25802999Y-46161970D02*
X26818999Y-46161970D01*
X26310999Y-46161970D02*
X26310999Y-44383970D01*
X26310999Y-44383970D02*
X26480332Y-44637970D01*
X26480332Y-44637970D02*
X26649666Y-44807304D01*
X26649666Y-44807304D02*
X26818999Y-44891970D01*
X30982666Y-78383970D02*
X30982666Y-79653970D01*
X30982666Y-79653970D02*
X31067333Y-79907970D01*
X31067333Y-79907970D02*
X31236666Y-80077304D01*
X31236666Y-80077304D02*
X31490666Y-80161970D01*
X31490666Y-80161970D02*
X31660000Y-80161970D01*
X29204666Y-80161970D02*
X30220666Y-80161970D01*
X29712666Y-80161970D02*
X29712666Y-78383970D01*
X29712666Y-78383970D02*
X29881999Y-78637970D01*
X29881999Y-78637970D02*
X30051333Y-78807304D01*
X30051333Y-78807304D02*
X30220666Y-78891970D01*
%TO.C,BT1*%
D13*
X89510000Y-45666000D02*
X30510000Y-45666000D01*
X30510000Y-94666000D01*
X89510000Y-94666000D01*
X89510000Y-45666000D01*
D14*
%TO.C,U2*%
X47865000Y-30560000D02*
X49515000Y-30560000D01*
X47865000Y-40840000D02*
X47865000Y-30560000D01*
X51515000Y-30560000D02*
X53165000Y-30560000D01*
X53165000Y-30560000D02*
X53165000Y-40840000D01*
X53165000Y-40840000D02*
X47865000Y-40840000D01*
X51515000Y-30560000D02*
G75*
G02*
X49515000Y-30560000I-1000000J0D01*
G01*
%TO.C,R4*%
X65390000Y-34060000D02*
X66160000Y-34060000D01*
X73470000Y-34060000D02*
X72700000Y-34060000D01*
X66160000Y-35430000D02*
X72700000Y-35430000D01*
X72700000Y-32690000D01*
X66160000Y-32690000D01*
X66160000Y-35430000D01*
%TO.C,C1*%
X48320000Y-27064000D02*
X48320000Y-27120000D01*
X48320000Y-27120000D02*
X52860000Y-27120000D01*
X52860000Y-24980000D02*
X48320000Y-24980000D01*
X52860000Y-25036000D02*
X52860000Y-24980000D01*
%TO.C,R2*%
X97130000Y-41560000D02*
X97130000Y-42330000D01*
X97130000Y-49640000D02*
X97130000Y-48870000D01*
X98500000Y-48870000D02*
X95760000Y-48870000D01*
X95760000Y-42330000D01*
X98500000Y-42330000D01*
X98500000Y-48870000D01*
%TO.C,R3*%
X65390000Y-40360000D02*
X66160000Y-40360000D01*
X73470000Y-40360000D02*
X72700000Y-40360000D01*
X72700000Y-38990000D02*
X66160000Y-38990000D01*
X66160000Y-41730000D01*
X72700000Y-41730000D01*
X72700000Y-38990000D01*
%TO.C,R1*%
X23260000Y-41280000D02*
X23260000Y-42050000D01*
X23260000Y-49360000D02*
X23260000Y-48590000D01*
X24630000Y-48590000D02*
X21890000Y-48590000D01*
X21890000Y-42050000D01*
X24630000Y-42050000D01*
X24630000Y-48590000D01*
%TO.C,J1*%
X17800000Y-66720000D02*
X17800000Y-82220000D01*
X17800000Y-82220000D02*
X26920000Y-82220000D01*
X19110000Y-68020000D02*
X19110000Y-80920000D01*
X19110000Y-80920000D02*
X25610000Y-80920000D01*
X25610000Y-68020000D02*
X19110000Y-68020000D01*
X25610000Y-72420000D02*
X25610000Y-68020000D01*
X25610000Y-76520000D02*
X26920000Y-76520000D01*
X25610000Y-80920000D02*
X25610000Y-76520000D01*
X26920000Y-66720000D02*
X17800000Y-66720000D01*
X26920000Y-72420000D02*
X25610000Y-72420000D01*
X26920000Y-82220000D02*
X26920000Y-66720000D01*
X27310000Y-71930000D02*
X28310000Y-71430000D01*
X28310000Y-71430000D02*
X28310000Y-72430000D01*
X28310000Y-72430000D02*
X27310000Y-71930000D01*
%TD*%
M02*
