%TF.GenerationSoftware,KiCad,Pcbnew,9.0.7-9.0.7~ubuntu24.04.1*%
%TF.CreationDate,2026-01-20T11:30:11-05:00*%
%TF.ProjectId,GS_Circuit,47535f43-6972-4637-9569-742e6b696361,rev?*%
%TF.SameCoordinates,Original*%
%TF.FileFunction,Soldermask,Bot*%
%TF.FilePolarity,Negative*%
%FSLAX46Y46*%
G04 Gerber Fmt 4.6, Leading zero omitted, Abs format (unit mm)*
G04 Created by KiCad (PCBNEW 9.0.7-9.0.7~ubuntu24.04.1) date 2026-01-20 11:30:11*
%MOMM*%
%LPD*%
G01*
G04 APERTURE LIST*
G04 Aperture macros list*
%AMRoundRect*
0 Rectangle with rounded corners*
0 $1 Rounding radius*
0 $2 $3 $4 $5 $6 $7 $8 $9 X,Y pos of 4 corners*
0 Add a 4 corners polygon primitive as box body*
4,1,4,$2,$3,$4,$5,$6,$7,$8,$9,$2,$3,0*
0 Add four circle primitives for the rounded corners*
1,1,$1+$1,$2,$3*
1,1,$1+$1,$4,$5*
1,1,$1+$1,$6,$7*
1,1,$1+$1,$8,$9*
0 Add four rect primitives between the rounded corners*
20,1,$1+$1,$2,$3,$4,$5,0*
20,1,$1+$1,$4,$5,$6,$7,0*
20,1,$1+$1,$6,$7,$8,$9,0*
20,1,$1+$1,$8,$9,$2,$3,0*%
G04 Aperture macros list end*
%ADD10R,1.800000X1.800000*%
%ADD11C,1.800000*%
%ADD12C,4.300000*%
%ADD13C,1.300000*%
%ADD14C,3.450000*%
%ADD15RoundRect,0.249999X1.250001X1.250001X-1.250001X1.250001X-1.250001X-1.250001X1.250001X-1.250001X0*%
%ADD16C,3.000000*%
%ADD17RoundRect,0.250000X0.550000X0.550000X-0.550000X0.550000X-0.550000X-0.550000X0.550000X-0.550000X0*%
%ADD18C,1.600000*%
%ADD19RoundRect,0.250000X0.600000X0.600000X-0.600000X0.600000X-0.600000X-0.600000X0.600000X-0.600000X0*%
%ADD20C,1.700000*%
G04 APERTURE END LIST*
D10*
%TO.C,D1*%
X22150000Y-59960000D03*
D11*
X24690000Y-59960000D03*
%TD*%
D12*
%TO.C,H2*%
X20630000Y-26980000D03*
%TD*%
D10*
%TO.C,S1*%
X64300000Y-26080000D03*
D11*
X66840000Y-26080000D03*
%TD*%
D13*
%TO.C,SW2*%
X84660000Y-35680000D03*
X81160000Y-24480000D03*
X83460000Y-30080000D03*
X83460000Y-27580000D03*
X83460000Y-32580000D03*
%TD*%
D12*
%TO.C,H4*%
X99370000Y-93020000D03*
%TD*%
%TO.C,H3*%
X99370000Y-26980000D03*
%TD*%
D10*
%TO.C,D2*%
X95725000Y-59960000D03*
D11*
X98265000Y-59960000D03*
%TD*%
D13*
%TO.C,SW1*%
X37060000Y-35690000D03*
X33560000Y-24490000D03*
X35860000Y-30090000D03*
X35860000Y-27590000D03*
X35860000Y-32590000D03*
%TD*%
D12*
%TO.C,H1*%
X20630000Y-93020000D03*
%TD*%
D14*
%TO.C,BT1*%
X60010000Y-85180000D03*
X60010000Y-55180000D03*
D15*
X86710000Y-55180000D03*
D16*
X86710000Y-67880000D03*
%TD*%
D17*
%TO.C,U2*%
X54325000Y-31890000D03*
D18*
X54325000Y-34430000D03*
X54325000Y-36970000D03*
X54325000Y-39510000D03*
X46705000Y-39510000D03*
X46705000Y-36970000D03*
X46705000Y-34430000D03*
X46705000Y-31890000D03*
%TD*%
%TO.C,R4*%
X64350000Y-34060000D03*
X74510000Y-34060000D03*
%TD*%
%TO.C,C1*%
X48090000Y-26050000D03*
X53090000Y-26050000D03*
%TD*%
%TO.C,R2*%
X97130000Y-50680000D03*
X97130000Y-40520000D03*
%TD*%
%TO.C,R3*%
X74510000Y-40360000D03*
X64350000Y-40360000D03*
%TD*%
%TO.C,R1*%
X23260000Y-50400000D03*
X23260000Y-40240000D03*
%TD*%
D19*
%TO.C,J1*%
X23630000Y-71930000D03*
D20*
X21090000Y-71930000D03*
X23630000Y-74470000D03*
X21090000Y-74470000D03*
X23630000Y-77010000D03*
X21090000Y-77010000D03*
%TD*%
M02*
