<?xml version="1.0" encoding="UTF-8"?>
<svg id="Layer_1" xmlns="http://www.w3.org/2000/svg" version="1.1" viewBox="0 0 324 324">
  <!-- Generator: Adobe Illustrator 30.1.0, SVG Export Plug-In . SVG Version: 2.1.1 Build 136)  -->
  <defs>
    <style>
      .st0 {
        fill: none;
        stroke: #000;
        stroke-miterlimit: 11.34;
        stroke-width: .1px;
      }

      .st1 {
        fill: #fcfcfb;
      }

      .st2 {
        fill: silver;
      }

      .st3 {
        fill: #040404;
      }

      .st4 {
        fill: #e6e6e6;
      }
    </style>
  </defs>
  <g>
    <path class="st3" d="M134.44,252.96c-.54.29-4.64.52-6,.33-.51-.07-1.04-.23-1.17-.37-.14-.13-.5-.25-.79-.25-.7,0-4.88-2.13-6.59-3.36-.73-.53-2-1.53-2.82-2.23s-1.61-1.27-1.77-1.27-.67.22-1.15.48c-.47.27-1.58.69-2.45.95-.87.25-1.79.57-2.04.7-.59.31-5.07.32-5.67,0-.25-.13-.81-.39-1.25-.59-1.02-.46-2.7-1.71-3.63-2.72-.72-.78-2.3-3.75-2.3-4.32,0-.2-1.02-.28-3.23-.25-2.93.04-3.34-.02-4.36-.58-1.36-.74-2.84-2.59-3.26-4.08-.17-.6-.41-1.19-.53-1.33-.12-.14-.22-.91-.22-1.73s-.14-1.62-.32-1.79c-.17-.17-.8-.32-1.38-.32-2.84,0-6.03-2.1-7.36-4.84-1-2.05-1.48-4.4-1.48-7.27,0-2.5-.02-2.58-.67-2.88-.37-.17-.86-.31-1.1-.31-.83,0-2.84-1.17-3.89-2.26-1.68-1.74-2.39-3.53-2.65-6.7-.23-2.7.69-8.82,1.71-11.47.11-.29.58-1.54,1.05-2.77,1.9-5.04,6.8-13.71,9.27-16.39.35-.38,1.14-1.28,1.74-1.99,1.61-1.89,2.58-2.81,5.16-4.88,1.27-1.02,2.31-1.96,2.31-2.08s-1.33-.23-2.95-.23-3.31-.11-3.76-.23c-3.87-1.13-5.65-1.83-7-2.78-2.01-1.4-4.09-3.39-4.96-4.74-.39-.59-.77-1.14-.86-1.21-.41-.35-3.15-6.1-3.15-6.61,0-.14-.1-.46-.23-.71-.13-.25-.41-1.11-.64-1.91-.22-.8-.59-2.09-.82-2.86-.23-.78-.42-1.86-.42-2.4s-.09-1.07-.2-1.18-.35-1.17-.55-2.35c-.19-1.18-.46-2.81-.59-3.6-.45-2.79-1.04-7.01-1.31-9.36-.15-1.31-.38-2.87-.53-3.48-.15-.61-.26-1.47-.26-1.92s-.12-1.02-.26-1.27-.37-1.47-.51-2.7c-.14-1.23-.38-2.77-.53-3.43-.15-.65-.41-1.96-.57-2.9-.17-.94-.4-1.95-.52-2.24-.32-.75-.84-5.47-.85-7.65,0-2,.46-5.75.81-6.59,2.51-5.98,5.38-8.47,10.87-9.4,3.99-.68,5.16-.62,10.94.57,4.02.83,4.99,1.06,5.47,1.33.25.14.62.25.83.25s.71.18,1.13.39c.41.22.95.4,1.19.4s.77.18,1.19.4c.41.22.95.4,1.2.4s.52.12.61.27.35.26.57.26,1.19.36,2.16.81c.96.45,1.99.9,2.28,1.02,2.25.91,2.92,1.2,3.03,1.32.07.08,1.2.66,2.5,1.3,4.34,2.12,4.99,2.47,7.33,3.89,1.28.78,2.37,1.41,2.42,1.41s.83.5,1.73,1.12,1.89,1.29,2.19,1.5c6.55,4.49,10.77,7.98,16.25,13.46,3.32,3.32,6.57,6.96,8.7,9.76.5.65.97,1.25,1.06,1.32.08.07.56.73,1.06,1.45.5.73.98,1.38,1.07,1.45.34.29,3.25,4.66,5.6,8.43l2.48,3.98,2.91-3.3-.8-.91c-3.08-3.51-2.14-9.02,1.93-11.29,1.26-.7,1.31-.77,1.15-1.62-.09-.49-.26-1.08-.38-1.32-.52-1.01-1.06-2.38-1.06-2.72,0-.2-.09-.48-.21-.62-.12-.14-.6-1.5-1.08-3.02-.8-2.55-1-3.1-1.64-4.61-.12-.29-.34-1-.48-1.58-.51-2.07-.96-3.54-1.14-3.72-.11-.1-.19-.41-.19-.67s-.11-.69-.24-.94c-.41-.79-2.21-6.49-2.92-9.29-.13-.51-.61-2.17-1.07-3.69-.46-1.52-.96-3.18-1.11-3.69s-.37-1.22-.49-1.58c-.12-.36-.29-1.13-.38-1.71s-.26-1.29-.38-1.58c-.72-1.73-1.65-5.19-1.68-6.24-.03-.97.09-1.37.6-1.91.67-.71,1.4-.87,1.94-.41.18.15.57.47.87.73,1.14.94,1.94,3.96,1.97,7.46,0,1.08.12,2.55.25,3.28.69,3.92.81,4.53,1.03,5.01.13.29.3.82.38,1.19.2.99.88,3.68,1.23,4.88.17.58.44,1.65.61,2.37.17.73.38,1.44.47,1.58s.25.72.35,1.28.28,1.22.4,1.45c.12.24.42,1.14.68,2.01.25.87.55,1.82.66,2.11s.57,1.71,1.03,3.16c.46,1.45.94,2.87,1.06,3.16s.42,1.12.66,1.85c.25.73.54,1.56.66,1.85s.42,1.12.67,1.85c.25.73.63,1.73.85,2.24.99,2.35,1.16,2.51,1.67,1.55.37-.69,2.35-2.86,2.6-2.86.1,0,.81.78,1.58,1.72,1.12,1.38,1.47,1.66,1.76,1.42.2-.17.36-.47.36-.67s.11-.57.24-.82.44-.99.69-1.65c.25-.65.62-1.56.82-2.02.2-.46.36-1,.36-1.2s.1-.48.22-.62.44-1.02.71-1.96.57-1.83.68-1.98c.11-.15.28-.71.38-1.26s.29-1.06.42-1.14.23-.43.23-.77.11-.7.24-.78.32-.62.42-1.2.28-1.11.4-1.19.3-.63.41-1.24c.1-.61.29-1.32.42-1.58l.46-.94c.13-.26.32-1.12.43-1.9s.29-1.61.41-1.84c.23-.44.74-2.32.97-3.57.08-.44.23-.91.35-1.05.11-.15.29-.86.4-1.58.11-.73.28-1.44.39-1.58.11-.15.27-.68.35-1.19.47-2.86.79-4.41.98-4.88.12-.29.27-2.19.35-4.21.08-2.28.24-3.72.42-3.78.16-.05.28-.25.28-.45,0-.5,1.29-1.97,1.74-1.97.2,0,.37-.12.37-.26,0-.48,1.23-.27,1.74.29.4.45.49.91.45,2.4-.03,1.01-.16,1.97-.3,2.14s-.33.72-.44,1.22-.28,1.09-.39,1.32c-.31.63-.74,2.15-.94,3.3-.1.58-.27,1.17-.39,1.32-.11.15-.29.83-.39,1.52-.1.69-.29,1.32-.42,1.4s-.23.49-.23.9-.1.82-.23.9c-.13.08-.31.62-.4,1.21s-.27,1.28-.4,1.52c-.29.57-.72,2.03-.96,3.22-.1.51-.28,1.04-.39,1.19s-.28.68-.38,1.19-.27,1.16-.39,1.45-.42,1.24-.67,2.11-.55,1.76-.66,1.99c-.11.22-.28.82-.38,1.32s-.28,1.15-.41,1.44-.44,1.24-.69,2.11-.56,1.7-.68,1.83c-.12.14-.22.42-.22.62s-.17.74-.37,1.2-.43,1.07-.5,1.36c-.32,1.28-1.73,5.08-2.3,6.23-.12.23-.3.86-.39,1.39-.1.53-.29,1.02-.41,1.1-.56.35-.18,1.09.78,1.51,1.22.54,2.85,2.11,3.32,3.21.84,1.96.94,2.34.94,3.55,0,1.53-.7,3.28-1.82,4.55-.45.51-.81,1.03-.8,1.16,0,.13.65.92,1.43,1.77l1.42,1.53.95-1.48c.52-.81,1.31-2.1,1.75-2.85,1.68-2.89,6.73-10.29,7.72-11.33.17-.18.78-.92,1.36-1.66,2.71-3.43,10.12-11.22,13.05-13.7.51-.43,1.75-1.49,2.77-2.37,1.02-.87,1.99-1.7,2.16-1.85.18-.15.51-.42.73-.6.22-.19,1.38-1.01,2.58-1.83,1.19-.82,2.29-1.58,2.44-1.7.15-.12.62-.49,1.06-.84s1.21-.86,1.71-1.13c.51-.28,1.6-.95,2.43-1.48.83-.54,1.63-.98,1.78-.98s.28-.09.28-.21.38-.39.86-.62c.47-.23,2.81-1.41,5.21-2.63,2.39-1.22,5-2.5,5.8-2.84s1.8-.79,2.21-.99c.42-.2.88-.36,1.02-.36s.62-.16,1.08-.36c2.19-.96,2.82-1.21,4.79-1.87,1.16-.39,2.35-.8,2.64-.92,1.13-.45,5.37-1.41,7.25-1.64,1.09-.13,2.58-.37,3.32-.53,1.94-.41,6.5.04,8.67.86.93.35,2.5,1.08,2.9,1.35,1.9,1.29,3.99,4,4.83,6.24,1.32,3.52,1.68,8.98.85,12.95-.26,1.23-.76,4.03-.98,5.41-.07.44-.23,1.03-.35,1.32s-.37,1.48-.53,2.64c-.17,1.16-.41,2.76-.54,3.56-.62,3.86-1.68,11.25-1.99,13.97-.07.65-.21,1.36-.3,1.58s-.31,1.41-.5,2.64-.46,2.9-.61,3.69c-.16.8-.43,2.22-.61,3.16s-.4,1.83-.49,1.98-.25.83-.35,1.51c-.1.69-.29,1.32-.43,1.4-.14.08-.25.39-.25.68,0,.54-.31,1.28-2.13,5.15-1.13,2.4-1.78,3.43-3.41,5.37-1.12,1.33-3.94,3.68-4.43,3.68-.15,0-.3.1-.35.22-.15.38-4.1,1.89-4.93,1.89-.44,0-.87.12-.96.26-.09.15-1.54.26-3.44.26-3.66,0-3.95.17-2.29,1.36,3.08,2.18,7.24,6.51,10.04,10.44.75,1.05,1.36,1.96,1.36,2.02s.42.74.94,1.51c.52.77,1.36,2.3,1.86,3.39,1.55,3.35,2.33,4.88,2.53,4.97.11.05.2.29.2.53s.17.77.38,1.18c.21.41.46,1.15.56,1.65.09.5.28.98.4,1.06.13.08.23.41.23.74s.09.69.2.8c.73.73,1.97,10.22,1.41,10.78-.16.16-.29.73-.29,1.27s-.1,1.05-.23,1.13-.3.51-.39.95c-.17.84-1.23,2.42-2.15,3.21-.77.66-3,1.7-4.22,1.96-.7.15-1.04.62-1.02,1.41.06,1.68-.42,6.56-.68,7.08-.12.24-.43.93-.68,1.54-.98,2.38-4.81,5.09-7.18,5.09-1.5,0-1.95.46-2.1,2.13-.2,2.4-1.34,4.97-2.74,6.19-1.69,1.47-2.02,1.57-5.37,1.52l-3.16-.04-.9,1.87c-.5,1.03-1.33,2.34-1.85,2.92-1.11,1.23-3.15,2.57-4.64,3.04-1.52.49-7.01.09-7.4-.53-.08-.13-.32-.23-.54-.23s-1.05-.3-1.84-.66-1.59-.65-1.76-.65c-.18,0-.91.55-1.64,1.2-.73.66-2.15,1.75-3.16,2.43s-1.9,1.29-1.98,1.37c-.3.3-3.09,1.57-3.82,1.74-.44.1-.95.31-1.15.47-.49.39-6.42.39-6.91,0-.2-.16-.71-.38-1.13-.48-.94-.22-3.68-2.15-5.16-3.64-2.1-2.1-4.9-6.18-6.85-9.96-.49-.94-.98-1.89-1.09-2.11s-.55-1.17-.98-2.11c-.42-.94-.96-2.15-1.2-2.68-.24-.53-.44-1.09-.44-1.26s-.11-.5-.25-.75c-.45-.81-1.59-3.4-1.59-3.61,0-.11-.18-.6-.4-1.09l-.79-1.79c-.22-.49-.4-1.03-.4-1.19s-.11-.5-.24-.75-.44-.99-.69-1.65c-.25-.65-.62-1.56-.82-2.02-.2-.46-.36-.95-.36-1.09s-.17-.59-.38-1c-.5-.98-.59-.7-.92,3.19-.74,8.65-2.42,14.11-4.33,14.11-1.14,0-2.32-1.91-2.68-4.34-.1-.66-.28-1.27-.41-1.34-.13-.08-.23-.55-.23-1.05s-.12-1.12-.26-1.37-.38-1.88-.53-3.62-.37-3.88-.48-4.75l-.21-1.58-.58,1.27c-.32.7-.58,1.38-.58,1.51,0,.23-.62,1.77-1.09,2.69-.13.25-.23.59-.23.75s-.18.7-.4,1.19c-.91,2.06-1.15,2.67-1.55,3.86-.23.69-.53,1.46-.66,1.71-.56,1.07-1.61,3.53-1.61,3.79,0,.16-.16.6-.36.98-.2.38-1.06,2.12-1.91,3.86-2.49,5.07-3.45,6.71-5.12,8.76-.14.17-.26.39-.26.47s-.36.54-.79,1-.79.93-.79,1.03c0,.4-3.94,3.53-5.17,4.11-.71.33-1.49.72-1.75.86h-.08v.02ZM146.37,162.92c1.39.56,2.57.29,3.6-.84.77-.84.89-1.14.89-2.37,0-.77-.12-1.47-.26-1.56s-.26-.35-.26-.57c0-.6-1.54-3.92-3.35-7.21-.97-1.77-5.59-8.45-7.31-10.57-7.9-9.75-9.03-11.03-14.76-16.68-3.86-3.81-7.67-7.08-10.85-9.32-1.27-.89-5.94-3.21-7.1-3.53-.58-.16-1.13-.41-1.22-.56-.25-.4-3.19-.4-3.66,0-.21.18-.72.58-1.12.88-1.07.8-1.42,1.7-1.6,4.12-.12,1.63-.07,2.25.19,2.52.2.19.44.64.54,1,.75,2.58,3.43,7.4,5.71,10.27.4.51,1.54,1.93,2.52,3.16,10.69,13.47,26.25,26.89,34.81,30.04,1.28.47,2.74,1.02,3.25,1.23h-.02ZM174.67,162.42c1.31,1.2,1.51,1.18,6.24-.65.94-.36,2.13-.85,2.64-1.07,1.37-.6,8.35-5.22,10.01-6.61.79-.66,2.08-1.7,2.85-2.31,1.68-1.3,9.18-8.38,11.03-10.4.71-.78,2.27-2.46,3.47-3.74,3.05-3.25,7.16-8.32,9.22-11.37,1.39-2.07,4.04-7.09,4.04-7.68,0-.21.11-.59.23-.84.13-.25.38-1.09.56-1.86.56-2.45-.46-5.06-2.39-6.06-.97-.51-1.42-.58-2.61-.45-.79.09-1.51.26-1.58.38-.08.12-.62.36-1.2.52-1.77.49-6.59,3.22-9.14,5.17-1.32,1.02-3.8,3.12-5.51,4.68-3.08,2.81-10.73,10.67-11.53,11.84-.23.34-1.32,1.68-2.42,2.99-4.25,5.04-9.38,12.18-11.46,15.95-2.57,4.66-3.41,6.83-3.43,8.87-.02,1.67,0,1.75.99,2.65h-.01ZM209.25,161.97c9.96.43,21.8.2,25.31-.5,4.57-.91,7.82-2.56,9.09-4.62.64-1.03.71-2.99.15-4.08-.49-.95-2.81-2.93-4.33-3.7l-1.16-.59-8.73.29c-4.8.16-11.97.29-15.94.29h-7.21l-3.32,3.23c-4.86,4.73-7.84,7.31-9.35,8.09-.4.21-.73.45-.73.55,0,.18,7.71.67,16.22,1.04h0ZM95.22,161.96c4.14.3,12.04.31,19.55.02,7.13-.28,15.16-.76,15.74-.95.21-.07-.49-.81-1.71-1.84-2.93-2.44-5.61-4.89-8.37-7.63l-2.39-2.37-4.89-.06c-2.69-.03-9.9-.19-16.03-.35l-11.14-.29-1.65.93c-3.57,2-4.89,4.49-3.79,7.12.58,1.39,3.23,3.24,6.1,4.24.89.31,5.65.97,8.57,1.18h.01ZM200.27,242.32c.93.55,2.04.4,2.84-.37.41-.39.74-.91.74-1.17s.1-.53.23-.6c.13-.08.37-1.26.54-2.62l.31-2.48-.91-1.98c-.5-1.09-1.51-3.21-2.23-4.71-4.08-8.47-5.58-11.63-5.58-11.73,0-.11-.52-1.22-6.86-14.47-1.87-3.93-3.03-6.39-3.89-8.31-.42-.94-1.3-2.37-1.94-3.16-1.49-1.84-6.83-9.15-6.83-9.36,0-.08-.45-.77-.99-1.53-.55-.76-1.28-1.91-1.62-2.56-.72-1.35-1.32-2.11-1.66-2.11-.13,0-.53.29-.88.65-1.43,1.44-.64,3.89,3.11,9.56,3.72,5.62,6.13,10.03,7.18,13.13.25.73.56,1.56.68,1.85.13.29.88,2.54,1.68,5.01.8,2.47,1.59,4.9,1.76,5.4.17.51.29,1.43.26,2.05-.03.79.08,1.18.36,1.28.22.08.4.34.4.56s.2,1.07.43,1.88c.75,2.55,1.66,5.64,2.11,7.14,2.45,8.21,7.31,16.64,10.76,18.64h0ZM121.04,241.85c1.16,1.63,3.34.87,5.72-1.98,1.95-2.33,6.11-9.82,6.79-12.24.1-.36.28-.9.4-1.19.12-.29.42-1.24.68-2.11s.56-1.82.69-2.11c.12-.29.34-1,.48-1.58s.39-1.53.55-2.11.44-1.61.61-2.29c.17-.67.4-1.32.51-1.43.11-.11.2-.51.2-.9s.16-1.23.36-1.87.57-1.88.83-2.75.55-1.82.66-2.11.44-1.3.74-2.24c1.68-5.35,4.78-12.62,5.96-13.97.19-.22.43-.67.53-1s1.39-2.41,2.86-4.61c3.27-4.89,3.25-4.86,3.65-6.79.35-1.7.13-2.49-.84-3.1-.7-.44-1.12-.2-1.7.94-.72,1.41-5.29,8.32-6.84,10.34-.72.94-1.92,2.48-2.67,3.43-.74.94-1.66,2.37-2.04,3.16-.37.8-1.45,3.05-2.38,5.01-.94,1.96-2,4.21-2.38,5.01-.37.8-1.61,3.41-2.76,5.8s-2.31,4.83-2.57,5.41-1.18,2.54-2.05,4.35c-.87,1.81-1.97,4.13-2.44,5.16s-1.57,3.34-2.44,5.14c-2.09,4.34-2.62,5.36-2.64,6.38,0,.34.04.68.11,1.14.02.11.03.23.05.35.36,2.69.68,3.78,1.36,4.74v.02h.01ZM203.72,200.75c1.79.31,1.95.27,2.97-.65.97-.87,2.33-3.28,2.93-5.18.38-1.2.38-5.26,0-6.67-.84-3.19-1.19-4.17-2.19-6.06-.6-1.14-1.32-2.23-1.61-2.42s-1.42-.47-2.5-.62c-3.79-.52-5.41-.84-6.09-1.22-.38-.21-1.21-.37-1.85-.35-.64,0-2.29-.16-3.67-.38-7.2-1.15-13.45-1.85-13.45-1.51,0,.12.51.98,1.14,1.89.62.92,1.82,2.68,2.66,3.91.84,1.23,1.81,2.54,2.16,2.91.35.37.64.77.64.89,0,.25,1.99,2.66,4.45,5.39,4.33,4.82,11.01,9.49,14.4,10.07h.01ZM117.49,199.9l1.05,1.14,1.45-.18c1.84-.23,4.04-1.22,7.02-3.17,2.87-1.88,9.37-8.28,12.24-12.06,2.21-2.91,6.84-9.67,6.84-9.99,0-.26-2.19-.07-6.99.62-6.98.99-9.11,1.33-13.71,2.2-1.16.22-3.06.52-4.22.68-1.16.16-2.37.45-2.69.66-.73.47-2.61,4.27-3.25,6.57-1.02,3.66-1.26,5.85-.81,7.36,1.15,3.89,1.4,4.38,3.05,6.17h.02ZM83.22,144.13c2.19.44,16.98.56,19.51.17.87-.13,3.58-.36,6.02-.5,2.44-.14,4.5-.31,4.58-.39s-1.08-1.53-2.58-3.22c-2.35-2.66-3.86-4.51-6.66-8.13l-.6-.77-11.85-.11-11.85-.11-1.51.72c-1.48.7-3.4,2.41-4.07,3.61-.51.91-.43,2.99.15,4.11.67,1.31,2,2.52,3.49,3.19,1.25.56,2.11.79,5.37,1.44h0ZM221.64,144.29c.73.13,5.05.2,9.62.17,11.79-.08,14.6-.65,17.62-3.57,1.3-1.26,1.63-1.97,1.63-3.47,0-2.1-1.48-4.02-4.27-5.5l-1.6-.85-11.87.13-11.87.13-.68.8c-.37.44-1.22,1.48-1.87,2.3-1.36,1.73-4.48,5.48-4.72,5.68-.6.49-2.7,3.22-2.58,3.34.08.08,2.2.26,4.71.39,2.51.13,5.15.34,5.88.46h0ZM80.21,186.62c.45.51.91.93,1.02.93.31,0,2.11-.75,3.43-1.43.65-.34,1.78-.83,2.5-1.09.73-.26,1.44-.55,1.58-.65s.86-.38,1.58-.64c.73-.25,1.56-.56,1.85-.67,1.94-.78,5.91-2.2,7.78-2.78.8-.25,1.63-.54,1.85-.65s.82-.28,1.32-.38,1.21-.28,1.57-.4c.76-.26,3.15-.96,4.48-1.32.51-.14,1.58-.43,2.37-.65,3.21-.88,6.04-1.55,8.04-1.91,1.16-.21,2.64-.48,3.3-.61,3.06-.61,6.23-1.14,9.49-1.59,1.96-.27,4.21-.63,5.01-.79.8-.16,2.76-.41,4.35-.56,6.44-.6,6.68-.67,4.83-1.41-1.55-.62-3.22-.92-6.81-1.23-3.38-.29-14.15-.11-17.01.3-1.02.14-3.03.4-4.48.56-5.24.6-7.38.96-11.6,1.95-1.02.24-2.29.42-2.84.41-.66,0-1.05.12-1.15.38-.08.22-.37.39-.64.39s-1.06.18-1.75.4-1.91.6-2.71.84-1.56.54-1.7.66c-.14.12-.49.22-.79.22s-.88.18-1.29.4c-.42.22-.87.39-1,.39s-2.23.97-4.65,2.15c-7.85,3.83-10.1,6.32-7.94,8.79h0ZM241.01,186.81c.8.39,1.58.71,1.72.72.74.03,2.24-1.81,2.24-2.77s-1.4-2.55-3.45-3.95c-1.75-1.2-4.18-2.47-8.44-4.42-1.58-.72-8.38-3.01-11.05-3.72-.94-.25-2.13-.57-2.64-.7-.51-.14-1.52-.37-2.24-.52-5.68-1.14-6.58-1.29-11.6-1.81-1.6-.17-3.73-.42-4.74-.56-4.79-.69-16.62-.55-20.84.25-1.44.27-3.29,1.06-3.29,1.41,0,.12.59.21,1.32.21s1.82.11,2.44.26c.62.14,2.37.38,3.89.54,4.6.47,8.73,1.08,13.32,1.96,3.43.66,3.59.69,5.93,1.09,1.23.21,2.66.5,3.16.63s2.47.61,4.35,1.07c1.89.46,3.66.93,3.95,1.05.29.12,1,.34,1.58.48,2.65.66,5.32,1.4,5.8,1.61.29.13.76.29,1.05.36s1.54.5,2.77.95,2.95,1.08,3.82,1.38c.87.3,1.7.65,1.83.78.14.13.46.23.72.23s.85.17,1.33.37c.47.21,1.28.55,1.79.75,1.76.73,3.81,1.64,5.26,2.34h.02,0ZM106.42,237.34c.99.55,3.5.37,4.94-.36,2.74-1.38,3.21-1.95,5.51-6.68,1.17-2.41,2.49-5.16,2.92-6.1.44-.94,1.27-2.72,1.85-3.95.59-1.23,1.6-3.37,2.24-4.75.65-1.38,1.84-3.87,2.64-5.54s1.8-3.8,2.23-4.75c1.03-2.27,1.47-3.15,2-4.01.4-.66.25-1.47-.16-.84-.3.46-4.27,2.83-6.12,3.65-1.62.72-2.76,1.05-4.63,1.37-.68.11-1.02.49-2.11,2.28-.72,1.18-1.67,2.86-2.11,3.73s-1.11,2.07-1.48,2.65c-.37.59-1.54,2.6-2.59,4.48-1.05,1.88-2.31,4.04-2.79,4.8-.49.76-1.23,2.07-1.65,2.91s-1.37,2.53-2.11,3.76c-.89,1.48-1.34,2.53-1.34,3.1,0,1.5,1.23,3.38,2.77,4.23v.02h0ZM212.73,236.9c3.54,1.97,7.83-.06,7.82-3.72,0-1.26-.52-2.29-4.97-9.78-.9-1.52-2.01-3.44-2.45-4.26-.44-.82-1.64-2.91-2.67-4.65-1.03-1.74-1.87-3.22-1.87-3.3,0-.16-2.39-4.22-2.98-5.06-.23-.33-.96-.66-1.92-.87-2.11-.47-3.57-1.02-5.83-2.2-2.32-1.21-3.18-1.74-3.96-2.43-.32-.29-.68-.43-.79-.32-.11.11,0,.35.26.54.25.19.46.4.46.48,0,.15,1.39,3.12,3.96,8.5.83,1.74,1.78,3.76,2.1,4.48s1.27,2.74,2.11,4.48,1.79,3.76,2.11,4.48c.65,1.44,4.24,8.96,4.95,10.38.53,1.05,1.9,2.26,3.66,3.25h0ZM242.38,205.03c.54.2,2.64-.09,3.39-.48.36-.18.95-.65,1.32-1.04.57-.61.66-.94.64-2.4-.03-2.38-1.11-4.35-3.99-7.3-1.14-1.17-2.13-1.84-4.18-2.83-1.48-.72-2.76-1.31-2.84-1.31s-.78-.28-1.54-.63c-4.12-1.86-17.62-6.49-18.94-6.49-.26,0-.55-.12-.64-.26s-.41-.26-.71-.26-1.07-.26-1.7-.57c-.63-.32-1.22-.5-1.31-.41-.25.25.1,1.41.56,1.87.22.22.4.57.4.79s.12.47.26.56.26.35.26.57c0,1.28.86,2.11,4.75,4.57,5.75,3.64,16.67,10.69,21.08,13.61,1.56,1.03,3,1.94,3.2,2.01h0ZM79.92,204.97c.51.1,1.12.2,1.35.22.23.02,1.74-.83,3.35-1.88s4.59-2.98,6.63-4.28c2.04-1.31,5.19-3.35,7.02-4.55s3.35-2.18,3.39-2.18c.05,0,1.41-.89,3.02-1.98,1.62-1.09,3.38-2.2,3.92-2.48,1.29-.66,2.02-1.51,2.43-2.79.18-.58.5-1.43.69-1.89.59-1.38.41-2.38-.32-1.7-.14.13-.78.36-1.44.52-2.85.67-3.92.98-4.11,1.16-.11.11-.48.2-.82.2s-.83.11-1.08.25c-.25.13-1.11.44-1.91.67-1.44.42-5.2,1.75-6.72,2.38-.44.18-1.68.65-2.77,1.05s-2.6,1.01-3.37,1.35c-.76.34-1.5.62-1.63.62s-1.54.65-3.13,1.45c-2.68,1.34-3.03,1.61-4.59,3.49-.93,1.12-1.89,2.4-2.12,2.83-2.22,4.07-1.43,6.8,2.19,7.53h.02ZM139.32,237.32c.14.18.34.33.44.33.35,0,2.08-2,2.99-3.46.99-1.58,3.68-7.06,4-8.15.11-.36.35-1.01.54-1.45.95-2.14,1.42-3.27,1.85-4.35.26-.65.63-1.56.83-2.02s.36-.96.36-1.12.1-.5.23-.75c.13-.25.44-1.17.71-2.04.26-.87.55-1.7.65-1.85s.37-.87.6-1.61c.36-1.12.39-1.8.18-4.09-.13-1.51-.25-4.83-.26-7.38,0-5.05-.25-9.47-.52-9.47-.41,0-4.84,8.46-5.18,9.89-.1.44-.27.91-.36,1.05-.25.37-1.45,3.62-2.14,5.8-.32,1.02-.76,2.38-.98,3.03s-.55,1.84-.74,2.64c-.34,1.44-.99,3.9-1.43,5.41-.13.44-.43,1.5-.67,2.37-.25.87-.56,2-.71,2.5-.93,3.29-1.26,5.59-1.26,8.99s.23,4.9.86,5.71v.02h0ZM183.74,237.13c.86.67.97.66,1.53-.2.38-.57.49-1.42.57-4.15.06-1.89-.02-4.32-.16-5.41-.3-2.22-.86-4.6-1.16-4.9-.11-.11-.2-.53-.2-.93s-.11-.8-.23-.88c-.13-.08-.32-.71-.42-1.4-.1-.69-.26-1.37-.35-1.52-.2-.31-1.24-4.19-1.65-6.06-.15-.73-.38-1.56-.51-1.85s-.47-1.3-.76-2.24c-.97-3.2-2.05-6.18-2.7-7.45-.13-.25-.23-.58-.23-.73,0-.28-1.9-4.18-2.89-5.94-1.57-2.78-1.94-3.31-2.22-3.22-.21.07-.36,2.66-.5,8.51l-.02.66c-.17,7.25-.23,9.66.29,11.95.27,1.22.71,2.39,1.39,4.24,1.53,4.19,1.8,4.9,2.65,6.86.12.29.66,1.6,1.19,2.9,2.3,5.68,5,10.66,6.37,11.74v.02h0ZM93.36,230.17c.8.55,1.23.63,3.32.63s2.45-.06,2.94-.59c.53-.58,2.71-4.03,2.71-4.3,0-.07.28-.57.62-1.12.59-.94,1.43-2.4,2.69-4.67,2.04-3.68,3.11-5.57,3.69-6.47.36-.57.65-1.1.65-1.18s.42-.8.92-1.59.92-1.52.92-1.61.37-.77.83-1.51c.46-.74,1.17-1.98,1.58-2.75l.76-1.4-1.38-1.59-1.38-1.59-2.63,2.73c-4.83,5-7.38,7.71-10.16,10.77-1.52,1.67-4.02,4.28-5.57,5.8-2.67,2.62-2.82,2.84-2.99,4.09-.18,1.36.14,3.76.54,4.06.12.09.4.5.62.92.21.42.8,1.04,1.31,1.38h0ZM224.64,230.09c.68.73.73.74,3.25.66,2.5-.08,2.58-.11,3.48-.99,1.39-1.35,1.74-2.3,1.74-4.75v-2.14l-2.26-2.5c-1.24-1.38-2.64-2.88-3.1-3.35-.93-.94-8.74-9.21-10.27-10.87-2.86-3.11-5.45-5.76-5.53-5.66-.05.07-.65.79-1.33,1.61-.69.82-1.24,1.57-1.24,1.66s.39.79.87,1.54,1.42,2.38,2.08,3.61c1.47,2.74,2.8,5.06,3.69,6.46.37.58,1.24,2.12,1.94,3.43s1.84,3.29,2.54,4.41c.7,1.12,1.28,2.14,1.28,2.26,0,.38,2.15,3.85,2.87,4.62h0ZM86.66,218.92c.57.29,1.19.52,1.38.53.19,0,.96-.66,1.71-1.48,1.6-1.75,8.34-8.96,14-14.98,2.18-2.32,4.6-4.85,5.38-5.63l1.42-1.41-.18-1.95c-.1-1.08-.29-1.95-.41-1.95-.34,0-2.84,1.58-3.07,1.94-.11.17-1.12.9-2.25,1.62-1.13.73-3.51,2.27-5.28,3.44s-3.4,2.19-3.61,2.28c-.38.15-6.3,4.01-9.77,6.36-1.53,1.04-1.78,1.33-2.18,2.55-.25.76-.44,2.17-.44,3.13.01,2.77.98,4.4,3.31,5.56h0ZM233.58,216.91c1.85,1.94,2.59,2.54,2.92,2.41.25-.1.68-.25.97-.33.75-.21,2.12-1.29,2.64-2.07.24-.37.6-1.31.81-2.09.32-1.24.32-1.66-.03-3.21-.56-2.48-.75-2.77-2.73-4.1-2.32-1.57-5.6-3.69-6.1-3.94-.22-.11-1.64-1.02-3.16-2.02s-4.43-2.86-6.46-4.13c-2.03-1.27-4.61-2.95-5.73-3.72s-2.16-1.4-2.31-1.4-.27.64-.27,1.43-.07,1.61-.16,1.83c-.15.38.95,1.66,4.77,5.58.58.6,2.6,2.72,4.48,4.73,1.89,2.01,3.84,4.08,4.35,4.6s1.51,1.6,2.23,2.39c.71.8,2.42,2.61,3.78,4.04h0ZM88.49,127.93c4.09.3,12.22.32,12.39.03.08-.12-.5-1.21-1.28-2.42-.78-1.2-1.89-3.08-2.46-4.17-.91-1.74-1.2-2.05-2.34-2.61-2.45-1.19-4.55-1.58-8.42-1.59-3.83,0-4.93.37-6.12,2.13-1.46,2.15-1.4,4.33.16,6,1.38,1.48,3.98,2.33,8.07,2.62h0ZM223.82,128.05c.91.24,8.61.18,11.76-.09,3.46-.3,4.58-.54,6.67-1.47,2.01-.89,2.6-1.87,2.6-4.32,0-1.69-.09-2.1-.65-2.84-1.37-1.82-2.06-2.04-6.47-2.04-3.89,0-5.07.18-7.16,1.09-.46.2-1.02.36-1.24.36-.54,0-1.41,1.2-2.89,4-.66,1.26-1.63,2.87-2.15,3.59-1.08,1.5-1.1,1.56-.48,1.72h0ZM75.38,104.39c2.44.84,4.26.82,5.75-.05,1.6-.94,2.22-1.89,2.22-3.39,0-3.67-4.74-7.34-9.47-7.34-7.4,0-6.28,8.11,1.49,10.78h.01ZM244.85,104.82c1.09.12,3.37-.08,3.69-.32.15-.11.6-.27,1.01-.37,1.64-.39,4.4-2.58,5.18-4.1,1.24-2.43.91-4.29-.97-5.59-1.09-.75-1.38-.82-3.29-.82-2.24,0-2.29.01-5.09,1.41-1.43.71-2.11,1.27-3.03,2.45-1.15,1.48-1.19,1.6-1.19,3.33,0,1.55.09,1.89.65,2.49.77.82,1.93,1.39,3.04,1.51h0ZM226.92,104.16c1.58.88,4.81.6,7.25-.62,2.04-1.02,4.46-4.18,4.48-5.84,0-1.11-.71-2.34-1.75-2.98-.88-.55-1.33-.63-3.26-.61-1.96.02-2.46.13-4.04.89-2.08,1-3.3,2.12-4.1,3.76-1.06,2.19-.5,4.35,1.41,5.41h0ZM93.24,104.5c.27.44,2.65.3,3.9-.24,2.48-1.06,3.02-3.4,1.4-5.94-.95-1.48-2.31-2.57-4.5-3.59-1.03-.48-1.77-.61-3.43-.62-3.13,0-4.49.91-4.8,3.21-.35,2.58,3.74,6.88,6.56,6.91.39,0,.78.12.87.27ZM252.42,116.37c1.14.7,2.32.66,3.83-.11,2.6-1.33,4.5-3.5,5.37-6.13.63-1.92.61-2.84-.11-4.31-.7-1.43-1.44-1.84-3.35-1.84-2.21,0-3.92.97-5.58,3.15-2.75,3.61-2.81,7.61-.15,9.23h-.01ZM68.19,116.4c1.58.72,2.76.63,4.06-.31.61-.44,1.22-1.1,1.36-1.47.42-1.1.32-4.47-.14-4.85-.22-.18-.4-.44-.4-.58,0-.7-2.43-3.49-3.82-4.37-1.22-.78-4.14-1.13-5.12-.61-1.79.95-2.2,4.44-.86,7.27.84,1.79,3.19,4.13,4.92,4.91h0ZM249.92,128.08c1.01.55,3.76.52,5-.04,1.43-.65,2.92-1.86,3.8-3.06,1.05-1.45,1.07-3.21.03-4.18-1.05-.98-1.73-1.27-3.01-1.26-3.42.01-7.34,3.1-7.34,5.8,0,1.1.65,2.28,1.52,2.75h0ZM69.51,128.04c.58.23,1.81.43,2.73.44,1.61,0,1.72-.03,2.7-1.01.75-.76,1.02-1.24,1.02-1.85,0-4.53-8.25-8.15-10.68-4.69-.58.82-.5,2.71.16,3.88.64,1.13,2.49,2.62,4.06,3.24h.01ZM71.2,151.1c1.63,1.09,3.48.6,4.64-1.25,1.14-1.81.71-3.55-1.25-4.99-1.28-.94-1.99-1.01-2.84-.28-.33.29-.75.53-.93.53-.51,0-1.17,1.21-1.33,2.44-.18,1.41.45,2.72,1.71,3.56h0ZM250.12,151.39c.88.49,2.31.35,3.03-.29,2.49-2.21,2.48-4.37-.04-6.23-1.48-1.09-2.29-1.05-3.64.17-2.2,2-1.9,4.94.65,6.35h0ZM118.73,113.73c1.5,1.09,2.82,1.08,3.75-.03.82-.97.86-1.76.16-3.15-1.56-3.05-5.8-3.2-5.8-.2,0,1.38.59,2.43,1.9,3.37h-.01ZM201.89,113.71c.54.65.89.81,1.7.81s1.24-.21,2.39-1.27c1.32-1.22,1.38-1.33,1.4-2.66.02-1.15-.08-1.47-.6-1.89-1.61-1.31-4.47-.02-5.27,2.37-.44,1.31-.38,1.74.38,2.64h0ZM212.56,106.92c.7.7.92.78,1.77.62,1.97-.37,3.49-2.13,3.49-4.06,0-1.51-.68-2.14-2.28-2.14-3.02,0-4.95,3.61-2.98,5.58h0ZM108.82,107.06c1.33.76,1.84.75,2.92-.07.75-.57.88-.84.88-1.75,0-2.13-1.73-3.91-3.8-3.91-1.75,0-2.37.68-2.2,2.42.15,1.54.79,2.5,2.2,3.31ZM155.96,180.32c.18.47.67.47,3.24-.02,2.55-.49,3.98-.49,6.02,0,2.47.6,2.95.54,3.09-.4.15-1.04,0-1.22-1.24-1.43-.58-.1-1.55-.37-2.16-.59-1.24-.46-5.25-.42-5.57.06-.1.16-.9.39-1.77.52-1.37.21-1.59.33-1.67.86-.05.34-.02.78.06.99h0ZM156.57,187.12c.1.1.6.09,1.12,0,.81-.16,6.49-.17,9.25,0,.87.05.93,0,1.01-.84.05-.49,0-.98-.13-1.1-.5-.48-5.28-.8-7.92-.54-1.45.15-2.83.35-3.07.44-.44.17-.63,1.68-.26,2.05h0ZM194.56,120.82c.4.29.86.54,1.04.54.78.02,2.21-.96,3.1-2.13.8-1.05.94-1.41.8-2.07-.4-1.82-2.64-2.42-4.29-1.16-1.77,1.35-2.1,3.74-.65,4.82h0ZM134.5,128.95c1.15.78,1.99.75,2.82-.08.6-.6.67-.84.56-2.13-.1-1.22-.27-1.6-1.03-2.36-.58-.58-1.27-.97-1.89-1.07-.85-.14-1.07-.05-1.77.7-.44.47-.79,1.11-.79,1.42,0,.95,1.17,2.91,2.09,3.53h0ZM127.47,120.96c1.26.55,1.64.49,2.53-.4,1-1,1.05-1.98.17-3.39-1.74-2.76-5.46-2.33-5.07.58.17,1.24,1.26,2.72,2.38,3.2h0ZM187.02,128.94c1.59,1.69,4.57-.53,4.57-3.41,0-1.72-.78-2.44-2.36-2.19-1.79.28-2.78,1.62-2.78,3.74,0,.92.15,1.41.57,1.86h0ZM74.47,161.25c3.57.63,5-3.75,1.71-5.23-.96-.43-1.06-.43-2.05.02-1.88.85-2.31,3.04-.88,4.47.36.36.9.69,1.22.75h0ZM248.21,161.27c1.03.2,2.15-.11,2.9-.81.98-.91,1.02-2.59.09-3.66-.56-.65-.82-.74-2.14-.74s-1.56.08-2.13.79c-.84,1.05-.83,2.33.02,3.45.36.47.93.91,1.25.98h.01ZM157.02,193.51c.16.41,1.62.52,1.86.14.25-.4,3.63-.59,5.16-.27,2.66.54,3.24.48,3.54-.36.33-.93-.06-1.62-.93-1.68-5.18-.35-6.05-.36-7.75-.03-1.72.33-1.85.41-1.93,1.09-.05.4-.02.9.06,1.1h-.01ZM157.18,199.95c.22.41.42.5.74.34.24-.12,2.34-.22,4.66-.23h4.22l.08-.96c.07-.86,0-.98-.66-1.12-1.16-.25-7.68-.38-8.47-.17-.81.21-1.07,1.2-.57,2.14ZM158.11,213.18c.08.08,1.91.14,4.08.14h3.94l.17-.89c.28-1.47,0-1.58-4.04-1.6-2.12,0-3.77.09-3.96.25-.32.27-.46,1.83-.19,2.1ZM141.58,137.71c.81.85,1.2,1.07,1.95,1.07,1.13,0,1.79-.82,1.79-2.23s-1.56-3.04-2.8-3.04-1.95.77-1.95,2.1c0,.85.19,1.24,1.02,2.11h0ZM179.61,138.4c.55.66,1.88.43,3.01-.53.97-.82,1.05-1,1.05-2.19,0-1.54-.51-2.18-1.72-2.18-1.05,0-2.2.8-2.63,1.84-.36.87-.21,2.46.28,3.06h.01ZM157.85,206.34c.12.31.42.33,1.65.13.83-.13,2.72-.17,4.21-.07l2.7.17v-.92c0-.91-.02-.93-1.52-1.24-1.71-.35-5.78-.19-6.64.27-.53.28-.69.91-.4,1.66ZM68.46,136.36c.68.37.73.37,1.57-.07,1.86-.97,2.18-2.22.9-3.54-.62-.63-1.05-.84-1.76-.84-1.34,0-1.9.61-1.9,2.1,0,1.28.29,1.85,1.19,2.34h0ZM254.15,136.25s.07.04.11.06c.36.2.55.3.74.3.23,0,.46-.15.99-.48,1.03-.63,1.51-1.56,1.28-2.48-.44-1.75-2.78-2.39-3.83-1.05-.97,1.23-.64,2.91.71,3.64h0Z"/>
    <path class="st4" d="M27.19,27.24h269.99v269.99H27.19V27.24ZM134.44,252.96c.25-.14,1.04-.52,1.75-.86,1.23-.58,5.17-3.72,5.17-4.11,0-.11.36-.57.79-1.03.44-.46.79-.91.79-1s.12-.3.26-.47c1.67-2.05,2.63-3.68,5.12-8.76.85-1.74,1.71-3.48,1.91-3.86s.36-.83.36-.98c0-.26,1.05-2.73,1.61-3.79.13-.26.43-1.03.66-1.71.4-1.19.64-1.8,1.55-3.86.22-.49.4-1.03.4-1.19s.11-.5.23-.75c.46-.91,1.09-2.46,1.09-2.69,0-.13.26-.81.58-1.51l.58-1.27.21,1.58c.11.87.33,3.01.48,4.75s.39,3.37.53,3.62.26.87.26,1.37.11.98.23,1.05c.13.08.32.68.41,1.34.37,2.43,1.55,4.34,2.68,4.34,1.91,0,3.59-5.46,4.33-14.11.33-3.88.42-4.16.92-3.19.21.41.38.86.38,1s.16.64.36,1.09c.2.46.57,1.37.82,2.02.25.65.56,1.39.69,1.65.13.25.24.59.24.75s.18.7.4,1.19l.79,1.79c.22.49.4.99.4,1.09,0,.21,1.14,2.8,1.59,3.61.14.25.25.59.25.75s.2.73.44,1.26.78,1.73,1.2,2.68c.42.94.86,1.89.98,2.11s.61,1.17,1.09,2.11c1.95,3.79,4.75,7.86,6.85,9.96,1.48,1.48,4.22,3.41,5.16,3.64.42.1.93.32,1.13.48.49.39,6.42.38,6.91,0,.2-.16.72-.37,1.15-.47.73-.17,3.52-1.43,3.82-1.74.07-.07.96-.69,1.98-1.37s2.44-1.77,3.16-2.43c.73-.66,1.46-1.2,1.64-1.2s.97.29,1.76.65,1.62.66,1.84.66.46.11.54.23c.38.62,5.87,1.01,7.4.53,1.49-.47,3.53-1.81,4.64-3.04.52-.58,1.35-1.89,1.85-2.92l.9-1.87,3.16.04c3.35.04,3.68-.05,5.37-1.52,1.4-1.22,2.54-3.8,2.74-6.19.14-1.67.59-2.13,2.1-2.13,2.37,0,6.2-2.72,7.18-5.09.25-.61.56-1.3.68-1.54.27-.52.74-5.4.68-7.08-.04-1.18-.03-1.19,1.02-1.41,1.22-.26,3.45-1.3,4.22-1.96.92-.79,1.98-2.38,2.15-3.21.09-.45.27-.87.39-.95s.23-.59.23-1.13.13-1.12.29-1.27c.56-.56-.68-10.06-1.41-10.78-.11-.11-.2-.47-.2-.8s-.11-.66-.23-.74c-.13-.08-.31-.56-.4-1.06s-.35-1.24-.56-1.65c-.21-.4-.38-.93-.38-1.18s-.09-.48-.2-.53c-.21-.09-.99-1.62-2.53-4.97-.5-1.09-1.34-2.62-1.86-3.39s-.94-1.45-.94-1.51-.61-.97-1.36-2.02c-2.8-3.94-6.96-8.26-10.04-10.44-1.67-1.18-1.37-1.36,2.29-1.36,1.9,0,3.35-.11,3.44-.26s.52-.26.96-.26c.83,0,4.78-1.52,4.93-1.89.05-.12.21-.22.35-.22.49,0,3.32-2.35,4.43-3.68,1.63-1.95,2.28-2.97,3.41-5.37,1.82-3.87,2.13-4.62,2.13-5.15,0-.29.11-.59.25-.68.14-.08.33-.71.43-1.4.1-.69.25-1.37.35-1.51.09-.15.31-1.03.49-1.98s.45-2.37.61-3.16c.16-.8.43-2.46.61-3.69s.4-2.42.5-2.64.23-.93.3-1.58c.31-2.73,1.36-10.12,1.99-13.97.13-.8.37-2.4.54-3.56.17-1.16.41-2.35.53-2.64s.29-.88.35-1.32c.22-1.37.72-4.17.98-5.41.82-3.97.46-9.43-.85-12.95-.84-2.25-2.93-4.95-4.83-6.24-.39-.27-1.97-1-2.9-1.35-2.17-.81-6.74-1.27-8.67-.86-.74.16-2.23.39-3.32.53-1.88.23-6.12,1.19-7.25,1.64-.29.11-1.48.53-2.64.92-1.96.66-2.6.91-4.79,1.87-.46.2-.94.36-1.08.36s-.59.16-1.02.36c-.42.2-1.42.64-2.21.99-.8.34-3.41,1.62-5.8,2.84-2.39,1.22-4.74,2.4-5.21,2.63-.47.22-.86.5-.86.62s-.12.21-.28.21-.95.44-1.78.98-1.92,1.2-2.43,1.48c-.51.28-1.28.79-1.71,1.13-.44.35-.91.73-1.06.84-.15.12-1.24.88-2.44,1.7-1.19.82-2.35,1.64-2.58,1.83-.22.19-.55.46-.73.6-.18.15-1.15.98-2.16,1.85-1.01.87-2.26,1.94-2.77,2.37-2.93,2.48-10.34,10.27-13.05,13.7-.58.73-1.19,1.48-1.36,1.66-.99,1.04-6.04,8.44-7.72,11.33-.44.75-1.23,2.04-1.75,2.85l-.95,1.48-1.42-1.53c-.78-.85-1.42-1.64-1.43-1.77,0-.13.35-.65.8-1.16,1.12-1.28,1.82-3.02,1.82-4.55,0-1.21-.1-1.6-.94-3.55-.47-1.09-2.1-2.67-3.32-3.21-.96-.42-1.34-1.17-.78-1.51.13-.08.31-.57.41-1.1s.27-1.15.39-1.39c.57-1.15,1.98-4.95,2.3-6.23.07-.29.3-.9.5-1.36s.37-1,.37-1.2.1-.48.22-.62.43-.96.68-1.83.56-1.82.69-2.11c.12-.29.31-.94.41-1.44s.27-1.09.38-1.32c.11-.22.41-1.12.66-1.99.25-.87.55-1.82.67-2.11s.29-.94.39-1.45.27-1.04.38-1.19.28-.68.39-1.19c.24-1.19.67-2.65.96-3.22.13-.25.3-.93.4-1.52.09-.59.27-1.14.4-1.21.13-.08.23-.48.23-.9s.11-.83.23-.9c.13-.08.32-.71.42-1.4.1-.69.28-1.37.39-1.52.11-.15.29-.74.39-1.32.2-1.16.63-2.67.94-3.3.11-.22.28-.82.39-1.32s.31-1.05.44-1.22c.14-.17.27-1.13.3-2.14.04-1.48-.04-1.95-.45-2.4-.51-.57-1.74-.77-1.74-.29,0,.15-.17.26-.37.26-.44,0-1.74,1.47-1.74,1.97,0,.2-.13.4-.28.45-.18.06-.33,1.5-.42,3.78-.07,2.03-.23,3.92-.35,4.21-.19.47-.5,2.02-.98,4.88-.08.51-.24,1.04-.35,1.19s-.28.86-.39,1.58c-.1.73-.28,1.44-.4,1.58-.11.15-.27.62-.35,1.05-.22,1.25-.73,3.13-.97,3.57-.12.22-.3,1.05-.41,1.84s-.3,1.64-.43,1.9l-.46.94c-.13.26-.31.97-.42,1.58-.1.61-.29,1.17-.41,1.24s-.3.61-.4,1.19-.28,1.12-.42,1.2c-.13.08-.24.43-.24.78s-.11.69-.23.77c-.13.08-.32.59-.42,1.14-.1.55-.27,1.11-.38,1.26s-.41,1.03-.68,1.98c-.27.94-.59,1.83-.71,1.96-.12.14-.22.42-.22.62s-.16.74-.36,1.2-.57,1.36-.82,2.02c-.25.65-.56,1.39-.69,1.65-.13.25-.24.62-.24.82s-.16.5-.36.67c-.29.24-.64-.04-1.76-1.42-.77-.94-1.48-1.72-1.58-1.72-.26,0-2.24,2.18-2.6,2.86-.52.96-.68.81-1.67-1.55-.21-.51-.6-1.52-.85-2.24-.25-.73-.55-1.56-.67-1.85s-.41-1.12-.66-1.85c-.24-.73-.54-1.56-.66-1.85-.12-.29-.6-1.71-1.06-3.16-.46-1.45-.92-2.87-1.03-3.16s-.4-1.24-.66-2.11c-.25-.87-.56-1.77-.68-2.01-.12-.23-.3-.89-.4-1.45-.1-.56-.26-1.14-.35-1.28s-.3-.86-.47-1.58c-.17-.73-.45-1.79-.61-2.37-.35-1.2-1.03-3.89-1.23-4.88-.08-.36-.25-.9-.38-1.19-.22-.48-.35-1.09-1.03-5.01-.13-.73-.24-2.2-.25-3.28-.03-3.5-.83-6.52-1.97-7.46-.3-.25-.69-.58-.87-.73-.54-.46-1.27-.3-1.94.41-.5.54-.63.94-.6,1.91.03,1.05.97,4.51,1.68,6.24.12.29.29,1,.38,1.58s.26,1.35.38,1.71c.12.36.34,1.07.49,1.58.15.51.65,2.17,1.11,3.69.46,1.52.94,3.19,1.07,3.69.72,2.81,2.51,8.51,2.92,9.29.13.25.24.67.24.94s.08.57.19.67c.18.19.64,1.65,1.14,3.72.14.58.36,1.29.48,1.58.64,1.51.84,2.06,1.64,4.61.48,1.52.96,2.88,1.08,3.02s.21.42.21.62c0,.34.54,1.72,1.06,2.72.12.23.3.83.38,1.32.16.85.11.92-1.15,1.62-4.08,2.26-5.02,7.77-1.93,11.29l.8.91-2.91,3.3-2.48-3.98c-2.35-3.77-5.26-8.14-5.6-8.43-.09-.07-.57-.73-1.07-1.45-.5-.73-.98-1.38-1.06-1.45s-.56-.66-1.06-1.32c-2.14-2.8-5.38-6.44-8.7-9.76-5.48-5.48-9.69-8.97-16.25-13.46-.31-.21-1.29-.89-2.19-1.5s-1.68-1.12-1.73-1.12c-.06,0-1.14-.64-2.42-1.41-2.34-1.42-3-1.77-7.33-3.89-1.31-.64-2.43-1.22-2.5-1.3-.12-.12-.79-.41-3.03-1.32-.29-.12-1.32-.58-2.28-1.02-.97-.45-1.94-.81-2.16-.81s-.48-.12-.57-.26-.36-.26-.61-.27c-.25,0-.79-.18-1.2-.4-.42-.22-.95-.39-1.19-.4-.24,0-.77-.18-1.19-.4-.42-.22-.92-.39-1.13-.39s-.57-.11-.83-.25c-.48-.26-1.45-.5-5.47-1.33-5.78-1.19-6.96-1.25-10.94-.57-5.48.93-8.35,3.42-10.87,9.4-.36.85-.82,4.59-.81,6.59,0,2.18.53,6.89.85,7.65.12.29.36,1.3.52,2.24.16.94.42,2.25.57,2.9s.39,2.2.53,3.43.37,2.45.51,2.7.26.82.26,1.27.12,1.31.26,1.92c.15.61.38,2.17.53,3.48.26,2.35.85,6.57,1.31,9.36.13.8.39,2.42.59,3.6.19,1.18.44,2.24.55,2.35s.2.64.2,1.18.19,1.62.42,2.4.6,2.07.82,2.86c.22.8.51,1.66.64,1.91s.23.57.23.71c0,.51,2.74,6.26,3.15,6.61.09.07.47.62.86,1.21.88,1.36,2.95,3.34,4.96,4.74,1.36.95,3.14,1.65,7,2.78.45.13,2.14.23,3.76.23s2.95.11,2.95.23-1.04,1.07-2.31,2.08c-2.58,2.07-3.55,2.99-5.16,4.88-.6.71-1.39,1.61-1.74,1.99-2.46,2.68-7.36,11.35-9.27,16.39-.47,1.23-.94,2.48-1.05,2.77-1.03,2.64-1.94,8.77-1.71,11.47.27,3.17.98,4.96,2.65,6.7,1.05,1.09,3.06,2.26,3.89,2.26.24,0,.73.14,1.1.31.65.3.67.38.67,2.88,0,2.87.48,5.22,1.48,7.27,1.33,2.73,4.52,4.83,7.36,4.84.59,0,1.21.15,1.38.32.17.17.32.98.32,1.79s.1,1.59.22,1.73.36.74.53,1.33c.42,1.49,1.9,3.34,3.26,4.08,1.03.56,1.43.61,4.36.58,2.21-.03,3.23.05,3.23.25,0,.57,1.59,3.54,2.3,4.32.93,1,2.61,2.26,3.63,2.72.44.19,1,.46,1.25.59.6.31,5.09.3,5.67,0,.25-.13,1.17-.45,2.04-.7s1.97-.68,2.45-.95c.47-.26.99-.48,1.15-.48s.95.57,1.77,1.27,2.09,1.7,2.82,2.23c1.71,1.23,5.89,3.36,6.59,3.36.3,0,.66.11.79.25.14.13.67.3,1.17.37,1.36.19,5.46-.04,6-.33h.08v-.02ZM158.11,213.18c-.27-.28-.13-1.84.19-2.1.16-.13,1.35-.23,2.99-.25-.48.05-.98.13-1.53.25-1.12.23-1.5.42-1.4.68.08.2.14.56.14.8,0,.39.42.44,3.67.44h3.67l.09-.83c.09-.79.05-.84-1.18-1.12-.41-.09-.8-.16-1.18-.21,2.8.06,2.98.3,2.73,1.59l-.17.89h-3.94c-2.17,0-4.01-.06-4.08-.14h0ZM92.97,229.86c-.39-.34-.76-.76-.92-1.08-.22-.42-.49-.83-.62-.92-.4-.29-.73-2.7-.54-4.06.17-1.25.32-1.46,2.99-4.09.97-.96,2.32-2.34,3.57-3.65-1.95,2.14-3.64,4.02-4.93,5.51-1.21,1.4-1.25,1.5-1.25,3.14,0,2.4.57,4.13,1.7,5.15ZM166.48,178.35c-2.13-.3-5.66-.35-8.09-.04.51-.12.89-.26.96-.37.32-.48,4.32-.53,5.57-.06.43.16,1.04.34,1.57.47h-.01ZM158.16,187.06c.48-.08.98-.2,1.34-.33,1.02-.37,4.73-.26,6.11.2.17.06.32.1.47.15-2.55-.1-6.46-.11-7.92,0v-.02h0ZM157.18,199.95c-.5-.94-.24-1.92.57-2.14.64-.17,5.07-.11,7.33.05-1.6-.11-3.7-.1-5.07.05l-2.57.28v.83c0,.46.05.88.11.94s2.16.1,4.68.09l4.57-.02.08-.97c0-.08,0-.16.02-.24,0,.08,0,.17-.02.27l-.08.96h-4.22c-2.32,0-4.42.11-4.66.23-.32.16-.52.06-.74-.34h0ZM224.95,113.19c-.29-1.22-.98-2.26-1.98-2.88-1.04-.64-3.28-.71-5.34-.16-1.14.3-3.25,1.32-5.26,2.46,1.93-1.12,3.83-2.06,4.8-2.33.58-.16,1.12-.4,1.2-.52.08-.12.79-.3,1.58-.38,1.19-.13,1.64-.06,2.61.45,1.21.63,2.07,1.9,2.39,3.37h0ZM93.69,144.54c1.7-.04,3.6-.12,5.22-.23,2.25-.15,6.38-.37,9.18-.5,2.16-.1,4.06-.23,4.85-.31-.72.09-2.35.21-4.18.32-2.44.14-5.15.36-6.02.5-1.18.18-5.04.25-9.04.23h-.01ZM163.5,193.29c1.26.02,2.37.07,2.84.18.83.19.86.17.85-.69,0-.7-.15-.95-.72-1.21-.33-.15-.94-.27-1.68-.36.55.04,1.16.08,1.85.12.88.06,1.26.75.93,1.68-.3.84-.89.89-3.54.36-.16-.03-.34-.06-.53-.08h0ZM110.4,194.32c-.16-.83-.43-1.76-.57-1.76-.3,0-1.81.88-2.3,1.35-.3.27-.66.5-.81.5s-.57.22-1.72.95c.98-.64,1.79-1.24,1.89-1.39.23-.36,2.73-1.94,3.07-1.94.12,0,.31.88.41,1.95l.03.33h0ZM221.64,144.29c-.73-.12-3.37-.33-5.88-.46-1.86-.1-3.5-.22-4.26-.31.88.09,2.96.22,5.33.32,3.08.13,7.03.33,8.77.46,1.56.11,3.44.16,5.4.16-4.47.03-8.64-.05-9.35-.17h0ZM107.67,110.53c-3.57-1.28-6.23-.97-7.63,1.05.22-.39.52-.69.91-.99.4-.3.91-.7,1.12-.88.47-.4,3.41-.4,3.66,0,.09.15.64.4,1.22.56.17.05.42.14.72.26h0ZM179.66,162.25c-3.31,1.26-3.76,1.26-4.78.35.37.19.87.17,2.21.09.88-.06,1.68-.19,2.57-.44h0ZM83.22,144.13c-2.72-.54-3.77-.79-4.77-1.19,1.57.57,3.61.92,6.29,1.12,2.1.16,3.89.33,4.11.4-2.68-.07-4.88-.18-5.63-.33h0ZM213.99,181.79c-.76-.18-1.52-.31-1.61-.22-.14.14.3,1.76.7,2.56.02.05.05.11.08.19-.03-.03-.05-.05-.08-.07-.15-.09-.26-.34-.26-.56s-.18-.58-.4-.79c-.45-.45-.8-1.62-.56-1.87.09-.09.68.09,1.31.41.26.13.55.25.82.35h0ZM253.67,145.32c-.58-.46-1.32-.75-2.14-.74-.91,0-1.65.21-2.21.6l.15-.15c1.35-1.22,2.15-1.26,3.64-.17.2.15.39.3.56.45h0ZM146.37,162.92c-.3-.12-.91-.36-1.63-.63.97.29,2,.46,2.91.46,1.54,0,1.73-.06,2.44-.81.03-.03.05-.06.08-.08-.06.07-.13.14-.2.22-1.03,1.13-2.2,1.4-3.6.84ZM99.47,113.53c0,.33.03.73.07,1.25.2,2.88.5,3.85,2.45,7.77-.85-1.59-1.57-3.19-1.91-4.34-.1-.36-.35-.81-.54-1-.26-.26-.31-.89-.19-2.52.03-.44.07-.83.12-1.17h0ZM75.08,145.25c-1-.75-2.39-.9-3.79-.34.15-.09.31-.21.46-.33.84-.73,1.56-.66,2.84.28.18.13.34.26.49.4h0ZM70.87,132.7s.04.04.06.06c1.1,1.13,1.02,2.21-.2,3.11.32-.29.39-.64.44-1.51.04-.71-.06-1.26-.3-1.66ZM232,144.45c5.34-.07,11.06-.51,12.85-1.12,1.23-.42,2.53-1.17,3.55-1.99-2.79,2.47-5.84,3.02-16.4,3.12h0ZM227.56,162.05c.31-.02.58-.04.81-.06,4.22-.41,6.45-.64,7.94-.92-.56.15-1.14.28-1.74.4-1.33.26-3.85.46-7.01.58ZM198.71,115.87c.38.31.67.75.79,1.29.15.66,0,1.02-.8,2.07-.02.03-.05.07-.08.1.31-.53.46-1.14.47-1.84,0-.95-.07-1.33-.38-1.63h0ZM192.26,177.28c1.24.18,2.57.31,3.13.3.64,0,1.47.15,1.85.35.28.16.73.31,1.43.46-.39-.07-.77-.14-1.14-.21-1.71-.32-3.5-.62-5.26-.91h-.01ZM102.49,172.64c.09-.07.17-.16.21-.25.1-.26.49-.39,1.15-.38.55,0,1.83-.17,2.84-.41.54-.13,1.05-.25,1.53-.35-.69.17-2.46.6-4.17,1.01-.54.13-1.07.26-1.56.38h0ZM186.94,214.49c-.06-.17-.2-.34-.37-.4-.28-.11-.38-.49-.36-1.28.02-.38-.02-.86-.09-1.3.42,1.41.72,2.5.81,2.95v.04h0ZM194.94,161.16c-1.21-.1-1.91-.18-1.91-.23,0-.1.33-.35.73-.55.43-.22.98-.59,1.66-1.12-.88.8-1.6,1.53-1.6,1.68,0,.07.36.14,1.12.22h0ZM128.1,206.64c.57-1.22,1.14-2.48,1.95-4.26.51-1.12.62-1.65.37-1.65-.06,0-.75.4-1.63.93.96-.59,1.7-1.1,1.82-1.29.41-.63.56.18.16.84-.53.85-.97,1.74-2,4.01-.16.34-.39.84-.66,1.42h0ZM73.86,112.93v-.16c0-1.84-.79-3.87-2.05-5.54.72.84,1.26,1.64,1.26,1.97,0,.14.18.4.4.58.31.25.45,1.82.4,3.16h-.01ZM224.64,230.09c-.15-.17-.37-.45-.62-.81.46.58.86.9,1.18.94.36.05.78.21.92.35.11.11.68.18,1.42.19-2.17.07-2.25.03-2.9-.67h0ZM194.87,201.39c-.7-.38-1.04-.47-1.04-.28,0,.28.52,1.49,2.27,5.18-1.49-3.13-2.27-4.85-2.27-4.96,0-.08-.21-.29-.46-.48-.25-.18-.37-.43-.26-.54s.46.04.79.32c.29.26.59.49.98.75h0ZM198.75,123.76c-2.82,2.86-5.88,6.12-8.23,8.81.22-.28.38-.5.46-.6.56-.82,4.43-4.87,7.77-8.21h0ZM96.8,230.79c.64-.04,1.29-.15,1.89-.33.62-.19,1.08-.49,1.66-1.25-.31.46-.58.83-.72.99-.48.52-.78.59-2.83.59ZM121.37,169.28c.55-.07,1.04-.13,1.4-.18,1.47-.21,5.05-.36,8.64-.41-3.19.08-6.67.29-10.04.6h0ZM157.31,193.74c.13,0,.31-.06.58-.16.24-.09.93-.17,1.82-.22-.45.07-.76.17-.83.28-.18.29-1.08.3-1.56.1h-.01ZM116.94,115.98c-1.8-1.38-3.51-2.53-5.11-3.46.95.5,1.78.98,2.21,1.28.92.65,1.89,1.38,2.89,2.18h.01ZM209.25,161.97c-1.94-.08-3.83-.17-5.6-.27.92.04,1.91.09,2.97.14,4.77.22,10.14.34,14.46.34-3.83.02-7.97-.04-11.83-.21h0ZM138.46,168.76c-.79-.05-1.64-.08-2.54-.11,1.61.02,2.98.06,3.86.14,1.89.16,3.25.32,4.33.53-1.28-.23-2.97-.39-5.65-.56h0ZM197.46,157.57c1.09-.95,2.38-2.14,3.89-3.58-1.08,1.05-1.92,1.88-2.11,2.09-.28.3-1.07.96-1.77,1.49h0ZM240.33,159.59c1.38-.77,2.78-1.9,3.29-2.7-.64,1.01-1.77,1.92-3.29,2.7ZM185.13,208.24c-.28-.87-.61-1.87-.94-2.89-.8-2.47-1.56-4.72-1.68-5.01.37.84,1.56,4.49,2.62,7.9ZM110.5,195.4l.05.54-1.42,1.41c-.58.58-2.09,2.15-3.73,3.88,1.63-1.72,3.13-3.29,3.71-3.86.92-.91,1.32-1.48,1.38-1.97h.01ZM248.17,146.98c-.07.3-.1.62-.11.96,0,.56.06,1.05.2,1.47-.32-.77-.36-1.62-.1-2.44h.01ZM126.36,124.56c-2-1.98-4.16-4.03-5.97-5.67,1.47,1.31,2.99,2.73,4.52,4.23.52.51,1,.99,1.45,1.44ZM193.67,118.58c.11-.92.63-1.88,1.54-2.57.18-.14.37-.26.56-.35-1.07.59-1.93,1.76-2.1,2.92h0ZM250.33,136.14c-.53-1.59-1.94-3.09-4.09-4.23,2.22,1.18,3.61,2.63,4.09,4.23ZM209.49,114.39c-.3.21-.58.42-.83.61-.68.53-1.45,1.12-2.03,1.55.53-.44,1.01-.82,1.39-1.12.43-.33.93-.68,1.47-1.05h0ZM187.69,217.51c-.1-.33-.19-.66-.29-.98-.23-.81-.43-1.66-.43-1.88v-.03c.14.68.41,1.75.72,2.9h0ZM101.03,212.19c2.25-2.44,4.67-4.99,8.58-9.04-2.96,3.06-5.9,6.17-8.58,9.04ZM93.36,230.17c.47.32,1.19.52,2.02.61-1.03-.05-1.42-.2-2.02-.61ZM215.87,182.48c-.12-.04-.23-.09-.3-.15-.1-.08-.4-.2-.77-.32h.07c.3,0,.62.12.71.26.05.08.16.15.29.2h0ZM128.44,201.87c-.07.04-.13.08-.2.13-1.48.91-2.76,1.6-4,2.13.08-.04.16-.07.24-.11,1-.44,2.63-1.34,3.96-2.15h0ZM97.72,173.98c-.87.26-1.69.57-1.83.7.14-.12.9-.42,1.7-.66s2.02-.62,2.71-.84c.55-.17,1.15-.32,1.52-.37-.93.23-1.64.42-1.85.49-.36.11-1.37.42-2.24.69h0ZM222.75,227.32c-.54-.88-.97-1.66-.98-1.85.06.11.11.21.16.31.28.57.56,1.08.82,1.54h0ZM187,158.64c2.51-1.63,5.66-3.79,6.55-4.55-1.02.86-4.05,2.93-6.55,4.55ZM70.89,145.09c-.35.18-.62.41-.83.69.24-.41.51-.68.75-.68h.08ZM161.98,191.07c-1.15,0-2.28.08-3.09.23.98-.19,1.68-.27,3.09-.23ZM252.23,151.56c.55-.2,1.1-.6,1.66-1.22-.22.25-.47.49-.75.74-.24.21-.56.37-.92.47h0ZM101.33,227.69c.29-.5.62-1.08,1-1.78h0c0,.12-.46.9-1,1.78ZM185.4,138.87c-3.1,4.03-5.93,8.05-7.63,10.87,1.74-2.9,4.67-7.06,7.63-10.87ZM200.3,204.22c-1.14-.46-2.33-1.04-3.64-1.79.35.19.75.4,1.2.63.91.47,1.7.85,2.44,1.15h0ZM213.34,184.91c.04.15.08.3.11.44.04.19.09.36.15.51-.18-.32-.25-.62-.26-.95ZM250.12,151.39c-.24-.13-.46-.27-.65-.43.11.08.22.15.34.22.37.23.73.38,1.08.46-.27-.04-.54-.13-.76-.25h-.01ZM196.78,120.96c-.45.26-.87.42-1.18.41-.07,0-.18-.04-.32-.11.43.16.79.06,1.5-.3ZM156.55,187.1c-.17-.19-.21-.63-.16-1.05v.04c0,.45.07.9.16,1.02h0ZM174.07,161.83c-.38-.45-.41-.8-.4-1.91,0,1.06.07,1.47.4,1.91ZM73.28,115.13c.23-.31.38-.65.47-1.05-.04.22-.08.4-.14.55-.05.14-.17.31-.33.5ZM255.01,147.95c0-.53-.16-1.07-.42-1.54.3.5.44,1.02.42,1.54ZM156.64,185.23c.06-.08.12-.13.18-.16.08-.03.27-.07.54-.12-.35.08-.58.16-.73.28h.01ZM222.94,184.51c4.46,1.49,9.87,3.46,12.23,4.52-2.32-1.05-7.76-3.02-12.23-4.52ZM217.14,188.79c.35.23.74.47,1.17.74,2.76,1.75,6.82,4.36,10.75,6.89-3.98-2.57-8.11-5.22-10.97-7.02-.34-.22-.66-.42-.95-.61ZM167.67,187.06c.16-.16.24-.42.27-.8v-.11.12c-.04.48-.08.7-.27.79h0ZM202.51,179.03c.26.04.53.07.81.11,1.04.14,2.13.4,2.47.59-.34-.19-1.42-.45-2.47-.59-.22-.03-.49-.07-.81-.12h0ZM68.46,136.36c.39.21.63.3.93.23-.3.09-.48,0-.93-.23ZM220.68,223.5c-.06-.09-.12-.19-.18-.29-.16-.25-.34-.55-.53-.88.07.11.12.2.18.28.16.25.34.55.53.88h0ZM113.33,143.42c.06-.11-1.09-1.55-2.58-3.23,1.5,1.7,2.66,3.15,2.58,3.22h0ZM189.16,222.49c.13.42.26.84.36,1.18.19.65.4,1.31.62,1.96-.22-.65-.43-1.31-.63-1.96-.1-.33-.22-.73-.35-1.18h0ZM211.06,143.44h0c-.06-.06.49-.85,1.1-1.65-.61.79-1.15,1.56-1.1,1.65ZM156.57,187.12h0c.08.07.38.08.77.04-.37.04-.69.03-.76-.04h-.01ZM168.33,179.14c.04.18.02.43-.03.77.04-.28.05-.56.03-.77ZM76.43,147.44c-.06-.3-.16-.61-.32-.93.16.3.27.61.32.93ZM230.3,230.53c.39-.13.65-.36,1.08-.77.35-.34.63-.65.86-.97-.23.32-.51.63-.86.97-.43.42-.67.64-1.08.77ZM103.04,224.66c.17-.3.3-.52.35-.59,0,0,.01-.02.02-.03-.13.22-.26.43-.37.61h0ZM204.45,205.48c-.17-.06-.36-.11-.57-.16.2.05.4.11.57.16ZM203.27,205.17c-.2-.05-.4-.1-.6-.15.2.05.4.1.6.15ZM69.4,131.93h-.23.23Z"/>
    <path class="st2" d="M121.04,241.85c-.69-.96-1-2.05-1.36-4.74-.3-2.25-.46-1.76,2.49-7.88.87-1.8,1.96-4.12,2.44-5.14.47-1.03,1.57-3.35,2.44-5.16s1.79-3.77,2.05-4.35,1.42-3.01,2.57-5.41c1.15-2.39,2.39-5,2.76-5.8s1.44-3.05,2.38-5.01c.94-1.96,2.01-4.21,2.38-5.01.37-.8,1.29-2.22,2.04-3.16.74-.94,1.94-2.48,2.67-3.43,1.55-2.03,6.12-8.94,6.84-10.34.58-1.14,1-1.37,1.7-.94.98.61,1.19,1.4.84,3.1-.4,1.92-.38,1.89-3.65,6.79-1.47,2.21-2.76,4.28-2.86,4.61s-.34.78-.53,1c-1.19,1.36-4.29,8.62-5.96,13.97-.3.94-.63,1.95-.74,2.24-.11.29-.41,1.24-.66,2.11s-.63,2.11-.83,2.75-.36,1.48-.36,1.87-.09.79-.2.9-.34.75-.51,1.43-.45,1.71-.61,2.29c-.16.58-.41,1.53-.55,2.11s-.35,1.29-.48,1.58c-.12.29-.43,1.24-.69,2.11-.25.87-.56,1.82-.68,2.11s-.3.82-.4,1.19c-.68,2.41-4.84,9.9-6.79,12.24-2.39,2.85-4.57,3.61-5.72,1.98h-.02ZM200.27,242.32c-3.45-2.01-8.34-10.5-10.75-18.64-.23-.8-.61-2.02-.83-2.73-.63-2.02-1.49-5.2-1.75-6.5-.32-1.65-3.75-12.56-4.42-14.11-.13-.29-.44-1.12-.68-1.85-1.06-3.1-3.47-7.51-7.18-13.13-3.75-5.68-4.55-8.13-3.11-9.56.36-.36.75-.65.88-.65.34,0,.94.76,1.66,2.11.35.65,1.08,1.8,1.62,2.56.54.75.99,1.44.99,1.53,0,.21,5.33,7.52,6.83,9.36.65.8,1.52,2.22,1.94,3.16.86,1.91,2.01,4.38,3.89,8.31,6.33,13.25,6.86,14.36,6.86,14.47,0,.09,1.51,3.26,5.58,11.73.73,1.5,1.73,3.63,2.23,4.71l.91,1.98-.31,2.48c-.17,1.36-.42,2.54-.54,2.62-.13.08-.23.35-.23.6s-.33.78-.74,1.17c-.8.77-1.91.91-2.84.37h-.01ZM106.42,237.34c-1.54-.85-2.77-2.73-2.77-4.23,0-.57.46-1.62,1.34-3.1.74-1.23,1.69-2.92,2.11-3.76s1.17-2.15,1.65-2.91c.48-.76,1.74-2.92,2.79-4.8s2.22-3.9,2.59-4.48c.37-.58,1.04-1.78,1.48-2.65s1.39-2.55,2.11-3.73c1.09-1.8,1.43-2.17,2.11-2.28,2.91-.49,5.19-1.41,8.38-3.39,1.12-.7,2.1-1.27,2.18-1.27.25,0,.13.54-.37,1.65-1.49,3.29-2.2,4.83-3.52,7.58-.8,1.67-1.99,4.16-2.64,5.54-.65,1.38-1.66,3.51-2.24,4.75-.58,1.23-1.41,3.01-1.85,3.95-.43.94-1.75,3.69-2.92,6.1-2.3,4.73-2.77,5.3-5.51,6.68-1.45.73-3.95.91-4.94.36h.02,0ZM139.32,237.32c-.63-.8-.86-2.35-.86-5.71s.33-5.7,1.26-8.99c.15-.51.46-1.63.71-2.5s.55-1.94.67-2.37c.44-1.5,1.08-3.96,1.43-5.41.19-.8.52-1.99.74-2.64s.66-2.02.98-3.03c.69-2.18,1.88-5.43,2.14-5.8.1-.15.26-.62.36-1.05.33-1.43,4.76-9.89,5.18-9.89.27,0,.51,4.42.52,9.47,0,2.55.12,5.87.26,7.38.21,2.29.18,2.96-.18,4.09-.23.74-.51,1.46-.6,1.61s-.39.98-.65,1.85c-.26.87-.58,1.79-.71,2.04s-.23.59-.23.75-.16.67-.36,1.12c-.2.46-.57,1.37-.83,2.02-.43,1.08-.9,2.21-1.85,4.35-.19.44-.44,1.09-.54,1.45-.31,1.09-3,6.57-4,8.15-.92,1.46-2.65,3.46-2.99,3.46-.1,0-.29-.15-.44-.33v-.02h0ZM183.74,237.13c-1.37-1.08-4.07-6.05-6.37-11.74-.53-1.31-1.07-2.61-1.19-2.9-.85-1.96-1.12-2.66-2.65-6.86-1.97-5.42-1.94-5.09-1.66-16.85.14-5.86.29-8.45.5-8.51.28-.09.65.44,2.22,3.22.99,1.75,2.89,5.65,2.89,5.94,0,.15.11.47.23.73.65,1.27,1.73,4.25,2.7,7.45.28.94.63,1.95.76,2.24s.36,1.12.51,1.85c.4,1.88,1.45,5.75,1.65,6.06.09.15.25.83.35,1.52s.29,1.32.42,1.4c.13.08.23.47.23.88s.09.82.2.93c.3.3.86,2.68,1.16,4.9.15,1.09.22,3.52.16,5.41-.08,2.73-.2,3.58-.57,4.15-.57.86-.67.88-1.53.2v-.02h0ZM212.73,236.9c-1.76-.98-3.13-2.2-3.66-3.25-.71-1.42-4.3-8.94-4.95-10.38-.33-.73-1.28-2.74-2.11-4.48s-1.78-3.76-2.11-4.48-1.27-2.74-2.1-4.48c-3.12-6.52-3.96-8.37-3.96-8.72,0-.25.55-.04,1.65.63,3.13,1.9,5.54,2.94,8.08,3.5,1.09.24,1.81.56,2.05.9.6.85,2.99,4.9,2.99,5.06,0,.08.84,1.56,1.87,3.3,1.03,1.73,2.23,3.83,2.67,4.65.44.82,1.55,2.74,2.45,4.26,4.45,7.49,4.97,8.52,4.97,9.78,0,3.65-4.28,5.69-7.82,3.72h-.02,0ZM93.36,230.17c-1.4-.95-2.1-2.78-2.1-5.46,0-1.64.04-1.74,1.25-3.14,3.58-4.13,10.3-11.38,17.09-18.42l2.63-2.73,1.38,1.59,1.38,1.59-.76,1.4c-.42.77-1.13,2.01-1.58,2.75-.46.74-.83,1.42-.83,1.51s-.42.81-.92,1.61-.92,1.51-.92,1.59-.29.61-.65,1.18c-.57.9-1.65,2.79-3.69,6.47-1.41,2.54-2.08,3.71-2.25,3.95-.11.15-.58.98-1.06,1.85-1.89,3.46-2.48,4.2-3.64,4.55-1.86.56-4.26.43-5.33-.3h0ZM226.13,230.57c-.15-.14-.56-.3-.92-.35-.73-.1-1.85-1.6-3.27-4.44-.47-.94-1.28-2.37-1.79-3.16s-1.49-2.52-2.19-3.82-1.57-2.85-1.94-3.43c-.89-1.4-2.21-3.72-3.69-6.46-.66-1.23-1.6-2.86-2.08-3.61s-.87-1.45-.87-1.54.56-.84,1.24-1.66c.68-.82,1.28-1.55,1.33-1.61.07-.11,2.67,2.55,5.53,5.66,1.53,1.66,9.33,9.93,10.27,10.87.46.47,1.86,1.98,3.1,3.35l2.26,2.5v2.14c0,2.45-.35,3.4-1.74,4.75-.86.84-1.06.9-2.96.98-1.12.05-2.15-.03-2.29-.17h0ZM86.66,218.92c-2.32-1.16-3.3-2.79-3.31-5.56,0-.96.2-2.37.44-3.13.4-1.22.64-1.51,2.18-2.55,3.46-2.35,9.39-6.21,9.77-6.36.22-.08,1.84-1.11,3.61-2.28,5.72-3.77,7.08-4.63,7.36-4.63.15,0,.51-.22.81-.5.5-.47,2.01-1.35,2.3-1.35.2,0,.68,1.89.68,2.7,0,.52-.38,1.11-1.39,2.11-.77.76-3.18,3.29-5.36,5.61-5.66,6.02-12.4,13.24-14,14.98-.75.82-1.52,1.49-1.71,1.48-.19,0-.81-.24-1.38-.53h0ZM233.58,216.91c-1.36-1.43-3.06-3.24-3.78-4.04-.72-.79-1.72-1.87-2.23-2.39s-2.47-2.59-4.35-4.6c-1.89-2.01-3.9-4.14-4.48-4.73-3.82-3.93-4.91-5.21-4.77-5.58.08-.22.16-1.05.16-1.83s.12-1.43.27-1.43,1.18.63,2.31,1.4c1.12.77,3.7,2.44,5.73,3.72,2.03,1.27,4.94,3.13,6.46,4.13s2.95,1.91,3.16,2.02c.49.25,3.77,2.37,6.1,3.94,1.97,1.33,2.17,1.62,2.73,4.1.35,1.55.35,1.96.03,3.21-.2.79-.57,1.73-.81,2.09-.51.78-1.89,1.87-2.64,2.07-.29.08-.73.23-.97.33-.33.13-1.07-.47-2.92-2.41h0ZM158.5,212.56c0-.24-.06-.6-.14-.8-.1-.26.28-.45,1.4-.68,1.92-.4,3.34-.4,4.99-.02,1.23.28,1.28.33,1.18,1.12l-.09.83h-3.67c-3.25,0-3.67-.05-3.67-.44h0ZM157.85,206.34c-.29-.74-.13-1.37.4-1.66.86-.46,4.94-.62,6.64-.27,1.49.31,1.52.33,1.52,1.24v.92l-2.7-.17c-1.49-.09-3.38-.06-4.21.07-1.22.2-1.53.18-1.65-.13ZM79.92,204.97c-3.61-.73-4.41-3.46-2.19-7.53.24-.44,1.19-1.71,2.12-2.83,1.56-1.89,1.91-2.15,4.59-3.49,1.6-.8,3.01-1.45,3.13-1.45s.86-.28,1.63-.62,2.28-.95,3.37-1.35,2.33-.88,2.77-1.05c1.52-.63,5.28-1.96,6.72-2.38.8-.23,1.66-.53,1.91-.67.25-.13.74-.25,1.08-.25s.71-.09.82-.2c.18-.18,1.26-.49,4.11-1.16.65-.15,1.3-.38,1.44-.52.72-.68.91.32.32,1.7-.2.46-.51,1.31-.69,1.89-.41,1.29-1.14,2.13-2.43,2.79-.54.28-2.3,1.39-3.92,2.48-1.62,1.09-2.98,1.98-3.02,1.98s-1.57.98-3.39,2.18-4.98,3.24-7.02,4.55c-2.04,1.31-5.02,3.23-6.63,4.28s-3.12,1.9-3.35,1.88c-.24-.02-.84-.12-1.35-.22h-.02ZM242.38,205.03c-.2-.08-1.64-.98-3.2-2.01-4.28-2.84-15.27-9.93-20.87-13.48-4.17-2.64-4.6-3.01-4.86-4.18-.1-.45-.27-.99-.37-1.22-.4-.8-.84-2.42-.7-2.56.17-.17,2.84.46,3.19.75.14.12.45.22.7.22,1.28,0,14.85,4.66,18.9,6.49.76.35,1.46.63,1.54.63s1.36.59,2.84,1.31c2.05,1,3.04,1.67,4.18,2.83,2.88,2.96,3.96,4.92,3.99,7.3.02,1.46-.07,1.79-.64,2.4-.36.39-.95.86-1.32,1.04-.76.38-2.86.68-3.39.48h.01ZM117.49,199.9c-1.65-1.79-1.9-2.28-3.05-6.17-.45-1.52-.21-3.7.81-7.36.64-2.3,2.52-6.11,3.25-6.57.32-.21,1.53-.5,2.69-.66s3.06-.46,4.22-.68c4.6-.86,6.73-1.2,13.71-2.2,4.79-.68,6.99-.88,6.99-.62,0,.32-4.63,7.08-6.84,9.99-2.87,3.78-9.37,10.18-12.24,12.06-2.98,1.95-5.18,2.95-7.02,3.17l-1.45.18-1.05-1.14h-.02ZM203.72,200.75c-3.39-.58-10.07-5.25-14.4-10.07-2.46-2.74-4.45-5.15-4.45-5.39,0-.12-.29-.51-.64-.89-.35-.37-1.32-1.68-2.16-2.91-.84-1.23-2.03-2.99-2.66-3.91s-1.14-1.77-1.14-1.89c0-.47,10.62.91,19.25,2.5,2.1.39,4.71.82,5.8.97s2.21.42,2.5.61,1.02,1.28,1.61,2.42c.99,1.9,1.34,2.87,2.19,6.06.37,1.42.37,5.47,0,6.67-.6,1.9-1.96,4.31-2.93,5.18-1.03.93-1.18.96-2.97.65h0ZM157.55,199.97c-.06-.06-.11-.48-.11-.94v-.83l2.57-.28c2.01-.22,5.57-.13,6.87.16.04,0,.04.46,0,.99l-.08.97-4.57.02c-2.52,0-4.62-.03-4.68-.09h0ZM157.02,193.5c-.08-.2-.1-.7-.06-1.1.08-.68.21-.76,1.93-1.09,2.12-.41,6.46-.26,7.59.26.57.26.72.51.72,1.21,0,.85-.02.87-.85.69-1.33-.3-7.63-.21-8.45.12-.59.23-.76.22-.88-.08h0ZM80.21,186.62c-2.16-2.47.09-4.96,7.94-8.79,2.42-1.18,4.52-2.15,4.65-2.15s.59-.18,1-.39c.41-.22,1-.4,1.29-.4s.65-.1.79-.22.96-.43,1.83-.7,1.88-.57,2.24-.69,2.2-.58,4.09-1.03c1.89-.45,3.84-.93,4.35-1.05,7.02-1.75,21.96-2.97,30.06-2.44,4.72.3,6.37.56,8.13,1.27,1.85.74,1.61.81-4.83,1.41-1.6.15-3.55.4-4.35.56s-3.05.52-5.01.79c-3.26.45-6.43.98-9.49,1.59-.65.13-2.14.4-3.3.61-2,.36-4.83,1.03-8.04,1.91-.8.22-1.87.51-2.37.65-1.34.36-3.72,1.06-4.48,1.32-.36.12-1.07.31-1.57.4-.5.1-1.09.27-1.32.38-.22.11-1.06.4-1.85.65-1.86.58-5.84,2.01-7.78,2.78-.29.12-1.12.42-1.85.67-.73.26-1.44.54-1.58.64s-.86.39-1.58.65c-.73.26-1.85.75-2.5,1.09-1.32.68-3.12,1.43-3.43,1.43-.11,0-.57-.42-1.02-.93h-.02ZM241.01,186.81c-1.45-.7-3.5-1.61-5.26-2.34-.51-.21-1.31-.55-1.79-.75-.48-.21-1.08-.37-1.33-.37s-.58-.1-.72-.23c-.14-.13-.96-.48-1.83-.78s-2.59-.92-3.82-1.38-2.48-.89-2.77-.95-.76-.23-1.05-.36c-.48-.21-3.15-.96-5.8-1.61-.58-.14-1.29-.36-1.58-.48-.29-.12-2.07-.59-3.95-1.05-1.89-.46-3.84-.94-4.35-1.07s-1.93-.42-3.16-.63c-2.34-.41-2.5-.44-5.93-1.09-4.59-.88-8.71-1.48-13.32-1.96-1.52-.16-3.27-.4-3.89-.54s-1.72-.26-2.44-.26-1.32-.1-1.32-.21c0-.35,1.85-1.13,3.29-1.41,4.22-.79,16.05-.93,20.84-.25,1.01.15,3.14.4,4.74.56,5.02.52,5.92.66,11.6,1.81.73.15,1.73.38,2.24.52.51.14,1.69.45,2.64.7,2.67.71,9.47,2.99,11.05,3.72,4.27,1.95,6.69,3.22,8.44,4.42,2.05,1.41,3.45,3.01,3.45,3.95s-1.49,2.8-2.24,2.77c-.15,0-.92-.33-1.72-.72h-.02,0ZM156.56,187.11c-.09-.09-.17-.56-.17-1.02,0-1.05.15-1.11,3.5-1.46,2.63-.27,7.42.05,7.92.54.12.12.18.61.13,1.1-.1,1.09-.58,1.23-2.33.65-1.38-.45-5.09-.57-6.11-.2-.93.34-2.75.58-2.95.39h0ZM155.96,180.32c-.08-.21-.11-.65-.06-.99.08-.53.31-.65,1.8-.91,3.39-.6,10.05-.29,10.57.48.08.12.1.58.04,1.01-.14.93-.62.99-3.09.4-2.04-.49-3.47-.49-6.02,0-2.57.49-3.05.49-3.24.02h0ZM144.23,162.13c-2.8-.99-3.89-1.54-6.96-3.46-8.93-5.59-20.56-16.43-28.96-27.01-.98-1.23-2.11-2.66-2.52-3.16-1.37-1.72-2.88-4.08-3.81-5.93-1.95-3.92-2.26-4.9-2.45-7.77-.14-2.07-.1-2.32.47-3.17,2.48-3.65,8.98-1.86,17.49,4.79,3.04,2.38,10.6,9.66,13.77,13.28,2.21,2.52,3.28,3.8,8.39,10.11,1.72,2.12,6.34,8.81,7.31,10.57,1.81,3.29,3.35,6.6,3.35,7.21,0,.22.12.48.26.57s.26.8.26,1.57c0,1.19-.12,1.53-.76,2.23-.7.75-.9.82-2.44.81-1.07,0-2.31-.23-3.42-.63h.02ZM174.32,162.12c-.56-.61-.66-.95-.64-2.39.02-2,.88-4.2,3.43-8.83,2.04-3.7,6.94-10.53,11.78-16.41,4.49-5.45,14.26-15.45,17.01-17.39.47-.33,1.72-1.28,2.77-2.1,2.25-1.76,7.01-4.34,8.96-4.86,2.06-.55,4.31-.48,5.34.16,1.69,1.05,2.49,3.3,1.97,5.58-.18.77-.43,1.61-.56,1.86s-.23.63-.23.84c0,.59-2.64,5.61-4.04,7.68-2.06,3.05-6.17,8.12-9.22,11.37-1.19,1.27-2.76,2.96-3.47,3.74-1.84,2.02-9.35,9.1-11.03,10.4-.78.61-2.06,1.65-2.85,2.31-1.42,1.2-8.48,5.9-9.74,6.5-3.15,1.48-4.75,1.98-6.72,2.1-2.03.13-2.13.11-2.77-.57h.01ZM95.22,161.96c-2.92-.21-7.68-.87-8.57-1.18-2.87-1-5.51-2.85-6.1-4.24-1.1-2.63.22-5.12,3.79-7.12l1.65-.93,11.14.29c6.13.16,13.34.32,16.03.35l4.89.06,2.39,2.37c2.76,2.75,5.44,5.19,8.37,7.63,1.23,1.03,1.92,1.77,1.71,1.84-.58.19-8.61.67-15.74.95-7.51.29-15.41.28-19.55-.02h-.01ZM206.62,161.84c-9.03-.42-12.79-.68-12.79-.9,0-.27,2.09-2.22,3.56-3.32.73-.54,1.56-1.24,1.85-1.55.29-.31,2.03-2.01,3.86-3.79l3.34-3.23h7.21c3.97,0,11.14-.13,15.94-.29l8.73-.29,1.16.59c1.52.77,3.84,2.75,4.33,3.7.57,1.1.49,3.05-.15,4.1-.57.91-2.36,2.31-3.94,3.05-2.42,1.15-3,1.25-11.34,2.07-3.16.31-13.37.24-21.75-.14h-.01ZM74.47,161.25c-.32-.06-.86-.39-1.22-.75-1.43-1.43-.99-3.62.88-4.47.99-.45,1.09-.45,2.05-.02,3.29,1.48,1.85,5.86-1.71,5.23h0ZM248.21,161.27c-.33-.06-.89-.5-1.25-.98-.85-1.12-.86-2.4-.02-3.45.57-.71.78-.79,2.13-.79s1.58.09,2.14.74c.93,1.08.89,2.75-.09,3.66-.75.7-1.87,1.02-2.9.81h-.01ZM71.2,151.1c-1.25-.84-1.88-2.15-1.71-3.55.19-1.47.62-2.14,1.7-2.59,2.01-.85,4.02-.23,4.9,1.52.59,1.17.51,2.18-.25,3.38-1.17,1.85-3.01,2.34-4.64,1.25h0ZM249.8,151.18c-1.26-.76-1.76-1.71-1.74-3.23.03-2.16,1.27-3.36,3.47-3.37,2.72,0,4.46,3.13,2.87,5.17-1.57,2.01-2.95,2.44-4.6,1.43h0ZM88.87,144.47c-.06-.06-1.92-.24-4.13-.41-6.12-.46-8.89-1.68-10.38-4.56-.58-1.12-.65-3.2-.15-4.11.67-1.2,2.59-2.91,4.07-3.61l1.51-.72,11.85.11,11.85.11.6.77c2.8,3.62,4.31,5.47,6.66,8.13,1.5,1.7,2.66,3.15,2.58,3.23s-2.44.25-5.24.38c-2.8.13-6.93.35-9.18.5-4.06.27-9.83.36-10.04.17h0ZM225.6,144.3c-1.74-.13-5.69-.34-8.77-.46-3.08-.13-5.68-.3-5.77-.39-.13-.13,1.95-2.84,2.57-3.35.24-.2,3.36-3.95,4.72-5.68.65-.83,1.49-1.87,1.87-2.3l.68-.8,11.87-.13,11.87-.13,1.6.85c3.47,1.85,5.01,4.62,4.03,7.21-.55,1.44-3.09,3.41-5.42,4.2-2.57.88-13.23,1.42-19.25.97h0ZM141.58,137.71c-.83-.87-1.02-1.26-1.02-2.11,0-1.33.72-2.1,1.95-2.1s2.8,1.69,2.8,3.04-.66,2.23-1.79,2.23c-.75,0-1.14-.21-1.95-1.07h0ZM179.61,138.4c-.5-.6-.64-2.19-.28-3.06.43-1.04,1.58-1.84,2.63-1.84,1.21,0,1.72.64,1.72,2.18,0,1.19-.09,1.37-1.05,2.19-1.14.96-2.46,1.19-3.01.53h-.01ZM68.46,136.36c-.89-.49-1.19-1.07-1.19-2.34,0-1.48.56-2.1,1.88-2.1,1.46,0,2.12.8,2.02,2.44-.07,1.17-.18,1.4-.87,1.8-.94.55-1.15.57-1.85.2h.01ZM254.15,136.25c-1.35-.73-1.68-2.41-.71-3.64,1.05-1.34,3.4-.7,3.83,1.05.23.92-.25,1.85-1.28,2.48-1.01.62-.93.61-1.84.12h0ZM134.5,128.95c-.92-.62-2.08-2.58-2.09-3.53,0-.31.35-.95.79-1.42.7-.75.91-.83,1.77-.7.62.1,1.31.49,1.89,1.07.76.77.93,1.14,1.03,2.36.11,1.29.04,1.52-.56,2.13-.83.83-1.67.86-2.82.08h0ZM187.02,128.94c-.42-.45-.57-.94-.57-1.86,0-2.12.99-3.45,2.78-3.74,1.58-.25,2.36.47,2.36,2.19,0,2.88-2.98,5.1-4.57,3.41h0ZM69.51,128.04c-1.56-.62-3.42-2.11-4.06-3.24-.66-1.17-.74-3.06-.16-3.88,2.42-3.46,10.68.17,10.68,4.69,0,.61-.27,1.1-1.02,1.85-.98.98-1.1,1.02-2.7,1.01-.92,0-2.15-.2-2.73-.44h-.01ZM249.92,128.08c-.87-.47-1.52-1.64-1.52-2.75,0-2.69,3.91-5.79,7.34-5.8,1.28,0,1.96.28,3.01,1.26,1.04.97,1.02,2.73-.03,4.18-.88,1.21-2.37,2.41-3.8,3.06-1.24.56-3.99.59-5,.04h0ZM88.49,127.93c-4.09-.3-6.7-1.15-8.07-2.62-1.56-1.68-1.62-3.86-.16-6,1.19-1.76,2.3-2.14,6.12-2.13,3.87,0,5.98.4,8.42,1.59,1.15.56,1.43.87,2.34,2.61.57,1.09,1.68,2.96,2.46,4.17s1.36,2.29,1.28,2.42c-.18.29-8.3.27-12.39-.03h0ZM223.82,128.05c-.62-.16-.6-.22.48-1.72.52-.72,1.48-2.34,2.15-3.59,1.48-2.79,2.35-4,2.89-4,.22,0,.78-.16,1.24-.36,2.09-.91,3.27-1.09,7.16-1.09,4.41,0,5.11.22,6.47,2.04.55.74.65,1.15.65,2.84,0,2.46-.59,3.44-2.6,4.32-2.09.92-3.2,1.17-6.67,1.47-3.14.27-10.85.33-11.76.09h0ZM127.47,120.96c-1.11-.49-2.21-1.97-2.38-3.2-.39-2.92,3.33-3.34,5.07-.58.89,1.4.84,2.38-.17,3.39-.89.89-1.28.95-2.53.4h0ZM194.56,120.82c-2.72-2.03,1.17-7.05,3.95-5.1.48.33.58.66.57,1.78,0,1.54-.76,2.66-2.28,3.44-1.08.55-1.37.53-2.25-.12h0ZM68.19,116.4c-1.73-.79-4.08-3.13-4.92-4.91-1.34-2.82-.92-6.31.86-7.27.98-.52,3.9-.18,5.12.61,2.66,1.7,4.61,5.06,4.61,7.94,0,1.68-.35,2.41-1.61,3.32-1.29.94-2.48,1.03-4.06.31ZM252.42,116.37c-2.66-1.62-2.59-5.62.15-9.23,1.66-2.19,3.37-3.15,5.58-3.15,1.91,0,2.65.4,3.35,1.84.72,1.47.74,2.39.11,4.31-.87,2.63-2.76,4.8-5.37,6.13-1.51.77-2.69.81-3.83.11h.01ZM118.73,113.73c-1.31-.94-1.9-2-1.9-3.37,0-2.99,4.24-2.84,5.8.2.7,1.38.66,2.17-.16,3.15-.93,1.11-2.25,1.12-3.75.03h.01ZM201.89,113.71c-.76-.9-.82-1.33-.38-2.64.8-2.39,3.66-3.68,5.27-2.37.52.42.62.74.6,1.89-.02,1.33-.08,1.44-1.4,2.66-1.15,1.06-1.55,1.27-2.39,1.27s-1.15-.16-1.7-.81h0ZM108.82,107.06c-1.42-.81-2.05-1.77-2.2-3.31-.17-1.74.45-2.42,2.2-2.42,2.07,0,3.8,1.78,3.8,3.91,0,.91-.13,1.18-.88,1.75-1.08.82-1.59.84-2.92.07ZM212.56,106.92c-1.97-1.97-.04-5.58,2.98-5.58,1.61,0,2.28.64,2.28,2.14,0,1.92-1.52,3.69-3.49,4.06-.85.16-1.07.08-1.77-.62h0ZM75.38,104.39c-7.77-2.67-8.89-10.78-1.49-10.78,4.73,0,9.47,3.67,9.47,7.34,0,1.5-.62,2.45-2.22,3.39-1.49.87-3.31.89-5.75.05h-.01ZM244.85,104.82c-1.11-.12-2.27-.69-3.04-1.51-.56-.6-.65-.94-.65-2.49,0-1.72.04-1.85,1.19-3.33.92-1.19,1.61-1.74,3.03-2.45,2.8-1.4,2.84-1.41,5.09-1.41,1.92,0,2.2.07,3.29.82,1.88,1.3,2.21,3.16.97,5.59-.78,1.52-3.54,3.71-5.18,4.1-.41.1-.86.27-1.01.37-.32.24-2.6.43-3.69.32h0ZM93.24,104.5c-.09-.15-.48-.27-.87-.27-2.82-.02-6.91-4.32-6.56-6.91.31-2.31,1.67-3.22,4.8-3.21,1.65,0,2.39.13,3.43.62,2.19,1.02,3.55,2.11,4.5,3.59,1.63,2.55,1.08,4.88-1.4,5.94-1.24.54-3.63.68-3.9.24ZM226.92,104.16c-1.91-1.05-2.47-3.22-1.41-5.41.8-1.65,2.01-2.76,4.1-3.76,1.58-.76,2.08-.86,4.04-.89,1.93-.02,2.38.07,3.26.61,1.04.64,1.76,1.87,1.75,2.98-.02,1.66-2.44,4.82-4.48,5.84-2.44,1.22-5.67,1.49-7.25.62h0Z"/>
    <path class="st1" d="M121.04,241.85c-.69-.96-1-2.05-1.36-4.74-.3-2.25-.46-1.76,2.49-7.88.87-1.8,1.96-4.12,2.44-5.14.47-1.03,1.57-3.35,2.44-5.16s1.79-3.77,2.05-4.35,1.42-3.01,2.57-5.41c1.15-2.39,2.39-5,2.76-5.8s1.44-3.05,2.38-5.01c.94-1.96,2.01-4.21,2.38-5.01.37-.8,1.29-2.22,2.04-3.16.74-.94,1.94-2.48,2.67-3.43,1.55-2.03,6.12-8.94,6.84-10.34.58-1.14,1-1.37,1.7-.94.98.61,1.19,1.4.84,3.1-.4,1.92-.38,1.89-3.65,6.79-1.47,2.21-2.76,4.28-2.86,4.61s-.34.78-.53,1c-1.19,1.36-4.29,8.62-5.96,13.97-.3.94-.63,1.95-.74,2.24-.11.29-.41,1.24-.66,2.11s-.63,2.11-.83,2.75-.36,1.48-.36,1.87-.09.79-.2.9-.34.75-.51,1.43-.45,1.71-.61,2.29c-.16.58-.41,1.53-.55,2.11s-.35,1.29-.48,1.58c-.12.29-.43,1.24-.69,2.11-.25.87-.56,1.82-.68,2.11s-.3.82-.4,1.19c-.68,2.41-4.84,9.9-6.79,12.24-2.39,2.85-4.57,3.61-5.72,1.98h-.02ZM200.27,242.32c-3.45-2.01-8.34-10.5-10.75-18.64-.23-.8-.61-2.02-.83-2.73-.63-2.02-1.49-5.2-1.75-6.5-.32-1.65-3.75-12.56-4.42-14.11-.13-.29-.44-1.12-.68-1.85-1.06-3.1-3.47-7.51-7.18-13.13-3.75-5.68-4.55-8.13-3.11-9.56.36-.36.75-.65.88-.65.34,0,.94.76,1.66,2.11.35.65,1.08,1.8,1.62,2.56.54.75.99,1.44.99,1.53,0,.21,5.33,7.52,6.83,9.36.65.8,1.52,2.22,1.94,3.16.86,1.91,2.01,4.38,3.89,8.31,6.33,13.25,6.86,14.36,6.86,14.47,0,.09,1.51,3.26,5.58,11.73.73,1.5,1.73,3.63,2.23,4.71l.91,1.98-.31,2.48c-.17,1.36-.42,2.54-.54,2.62-.13.08-.23.35-.23.6s-.33.78-.74,1.17c-.8.77-1.91.91-2.84.37h-.01ZM106.42,237.34c-1.54-.85-2.77-2.73-2.77-4.23,0-.57.46-1.62,1.34-3.1.74-1.23,1.69-2.92,2.11-3.76s1.17-2.15,1.65-2.91c.48-.76,1.74-2.92,2.79-4.8s2.22-3.9,2.59-4.48c.37-.58,1.04-1.78,1.48-2.65s1.39-2.55,2.11-3.73c1.09-1.8,1.43-2.17,2.11-2.28,2.91-.49,5.19-1.41,8.38-3.39,1.12-.7,2.1-1.27,2.18-1.27.25,0,.13.54-.37,1.65-1.49,3.29-2.2,4.83-3.52,7.58-.8,1.67-1.99,4.16-2.64,5.54-.65,1.38-1.66,3.51-2.24,4.75-.58,1.23-1.41,3.01-1.85,3.95-.43.94-1.75,3.69-2.92,6.1-2.3,4.73-2.77,5.3-5.51,6.68-1.45.73-3.95.91-4.94.36h.02,0ZM139.32,237.32c-.63-.8-.86-2.35-.86-5.71s.33-5.7,1.26-8.99c.15-.51.46-1.63.71-2.5s.55-1.94.67-2.37c.44-1.5,1.08-3.96,1.43-5.41.19-.8.52-1.99.74-2.64s.66-2.02.98-3.03c.69-2.18,1.88-5.43,2.14-5.8.1-.15.26-.62.36-1.05.33-1.43,4.76-9.89,5.18-9.89.27,0,.51,4.42.52,9.47,0,2.55.12,5.87.26,7.38.21,2.29.18,2.96-.18,4.09-.23.74-.51,1.46-.6,1.61s-.39.98-.65,1.85c-.26.87-.58,1.79-.71,2.04s-.23.59-.23.75-.16.67-.36,1.12c-.2.46-.57,1.37-.83,2.02-.43,1.08-.9,2.21-1.85,4.35-.19.44-.44,1.09-.54,1.45-.31,1.09-3,6.57-4,8.15-.92,1.46-2.65,3.46-2.99,3.46-.1,0-.29-.15-.44-.33v-.02h0ZM183.74,237.13c-1.37-1.08-4.07-6.05-6.37-11.74-.53-1.31-1.07-2.61-1.19-2.9-.85-1.96-1.12-2.66-2.65-6.86-1.97-5.42-1.94-5.09-1.66-16.85.14-5.86.29-8.45.5-8.51.28-.09.65.44,2.22,3.22.99,1.75,2.89,5.65,2.89,5.94,0,.15.11.47.23.73.65,1.27,1.73,4.25,2.7,7.45.28.94.63,1.95.76,2.24s.36,1.12.51,1.85c.4,1.88,1.45,5.75,1.65,6.06.09.15.25.83.35,1.52s.29,1.32.42,1.4c.13.08.23.47.23.88s.09.82.2.93c.3.3.86,2.68,1.16,4.9.15,1.09.22,3.52.16,5.41-.08,2.73-.2,3.58-.57,4.15-.57.86-.67.88-1.53.2v-.02h0ZM212.73,236.9c-1.76-.98-3.13-2.2-3.66-3.25-.71-1.42-4.3-8.94-4.95-10.38-.33-.73-1.28-2.74-2.11-4.48s-1.78-3.76-2.11-4.48-1.27-2.74-2.1-4.48c-3.12-6.52-3.96-8.37-3.96-8.72,0-.25.55-.04,1.65.63,3.13,1.9,5.54,2.94,8.08,3.5,1.09.24,1.81.56,2.05.9.6.85,2.99,4.9,2.99,5.06,0,.08.84,1.56,1.87,3.3,1.03,1.73,2.23,3.83,2.67,4.65.44.82,1.55,2.74,2.45,4.26,4.45,7.49,4.97,8.52,4.97,9.78,0,3.65-4.28,5.69-7.82,3.72h-.02,0ZM93.36,230.17c-1.4-.95-2.1-2.78-2.1-5.46,0-1.64.04-1.74,1.25-3.14,3.58-4.13,10.3-11.38,17.09-18.42l2.63-2.73,1.38,1.59,1.38,1.59-.76,1.4c-.42.77-1.13,2.01-1.58,2.75-.46.74-.83,1.42-.83,1.51s-.42.81-.92,1.61-.92,1.51-.92,1.59-.29.61-.65,1.18c-.57.9-1.65,2.79-3.69,6.47-1.41,2.54-2.08,3.71-2.25,3.95-.11.15-.58.98-1.06,1.85-1.89,3.46-2.48,4.2-3.64,4.55-1.86.56-4.26.43-5.33-.3h0ZM226.13,230.57c-.15-.14-.56-.3-.92-.35-.73-.1-1.85-1.6-3.27-4.44-.47-.94-1.28-2.37-1.79-3.16s-1.49-2.52-2.19-3.82-1.57-2.85-1.94-3.43c-.89-1.4-2.21-3.72-3.69-6.46-.66-1.23-1.6-2.86-2.08-3.61s-.87-1.45-.87-1.54.56-.84,1.24-1.66c.68-.82,1.28-1.55,1.33-1.61.07-.11,2.67,2.55,5.53,5.66,1.53,1.66,9.33,9.93,10.27,10.87.46.47,1.86,1.98,3.1,3.35l2.26,2.5v2.14c0,2.45-.35,3.4-1.74,4.75-.86.84-1.06.9-2.96.98-1.12.05-2.15-.03-2.29-.17h0ZM86.66,218.92c-2.32-1.16-3.3-2.79-3.31-5.56,0-.96.2-2.37.44-3.13.4-1.22.64-1.51,2.18-2.55,3.46-2.35,9.39-6.21,9.77-6.36.22-.08,1.84-1.11,3.61-2.28,5.72-3.77,7.08-4.63,7.36-4.63.15,0,.51-.22.81-.5.29-.28.91-.69,1.37-.93.83-.43.83-.42.83.22,0,.36.18.83.4,1.04.76.76.47,1.67-1,3.13-.77.76-3.18,3.29-5.36,5.61-5.66,6.02-12.4,13.24-14,14.98-.75.82-1.52,1.49-1.71,1.48-.19,0-.81-.24-1.38-.53h-.01ZM233.58,216.91c-1.36-1.43-3.06-3.24-3.78-4.04-.72-.79-1.72-1.87-2.23-2.39s-2.47-2.59-4.35-4.6c-1.89-2.01-3.9-4.14-4.48-4.73-3.82-3.93-4.91-5.21-4.77-5.58.08-.22.16-1.05.16-1.83s.12-1.43.27-1.43,1.18.63,2.31,1.4c1.12.77,3.7,2.44,5.73,3.72,2.03,1.27,4.94,3.13,6.46,4.13s2.95,1.91,3.16,2.02c.49.25,3.77,2.37,6.1,3.94,1.97,1.33,2.17,1.62,2.73,4.1.35,1.55.35,1.96.03,3.21-.2.79-.57,1.73-.81,2.09-.51.78-1.89,1.87-2.64,2.07-.29.08-.73.23-.97.33-.33.13-1.07-.47-2.92-2.41h0ZM158.5,212.56c0-.24-.06-.6-.14-.8-.1-.26.28-.45,1.4-.68,1.92-.4,3.34-.4,4.99-.02,1.23.28,1.28.33,1.18,1.12l-.09.83h-3.67c-3.25,0-3.67-.05-3.67-.44h0ZM157.85,206.34c-.29-.74-.13-1.37.4-1.66.86-.46,4.94-.62,6.64-.27,1.49.31,1.52.33,1.52,1.24v.92l-2.7-.17c-1.49-.09-3.38-.06-4.21.07-1.22.2-1.53.18-1.65-.13ZM79.92,204.97c-3.61-.73-4.41-3.46-2.19-7.53.24-.44,1.19-1.71,2.12-2.83,1.56-1.89,1.91-2.15,4.59-3.49,1.6-.8,3.01-1.45,3.13-1.45s.86-.28,1.63-.62,2.28-.95,3.37-1.35,2.33-.88,2.77-1.05c1.52-.63,5.28-1.96,6.72-2.38.8-.23,1.66-.53,1.91-.67.25-.13.74-.25,1.08-.25s.71-.09.82-.2c.18-.18,1.26-.49,4.11-1.16.65-.15,1.3-.38,1.44-.52.72-.68.91.32.32,1.7-.2.46-.51,1.31-.69,1.89-.41,1.29-1.14,2.13-2.43,2.79-.54.28-2.3,1.39-3.92,2.48-1.62,1.09-2.98,1.98-3.02,1.98s-1.57.98-3.39,2.18-4.98,3.24-7.02,4.55c-2.04,1.31-5.02,3.23-6.63,4.28s-3.12,1.9-3.35,1.88c-.24-.02-.84-.12-1.35-.22h-.02ZM242.38,205.03c-.2-.08-1.64-.98-3.2-2.01-4.28-2.84-15.27-9.93-20.87-13.48-4.17-2.64-4.6-3.01-4.86-4.18-.1-.45-.27-.99-.37-1.22-.4-.8-.84-2.42-.7-2.56.17-.17,2.84.46,3.19.75.14.12.45.22.7.22,1.28,0,14.85,4.66,18.9,6.49.76.35,1.46.63,1.54.63s1.36.59,2.84,1.31c2.05,1,3.04,1.67,4.18,2.83,2.88,2.96,3.96,4.92,3.99,7.3.02,1.46-.07,1.79-.64,2.4-.36.39-.95.86-1.32,1.04-.76.38-2.86.68-3.39.48h.01ZM117.49,199.9c-1.65-1.79-1.9-2.28-3.05-6.17-.45-1.52-.21-3.7.81-7.36.64-2.3,2.52-6.11,3.25-6.57.32-.21,1.53-.5,2.69-.66s3.06-.46,4.22-.68c4.6-.86,6.73-1.2,13.71-2.2,4.79-.68,6.99-.88,6.99-.62,0,.32-4.63,7.08-6.84,9.99-2.87,3.78-9.37,10.18-12.24,12.06-2.98,1.95-5.18,2.95-7.02,3.17l-1.45.18-1.05-1.14h-.02ZM203.72,200.75c-3.39-.58-10.07-5.25-14.4-10.07-2.46-2.74-4.45-5.15-4.45-5.39,0-.12-.29-.51-.64-.89-.35-.37-1.32-1.68-2.16-2.91-.84-1.23-2.03-2.99-2.66-3.91s-1.14-1.77-1.14-1.89c0-.47,10.62.91,19.25,2.5,2.1.39,4.71.82,5.8.97s2.21.42,2.5.61,1.02,1.28,1.61,2.42c.99,1.9,1.34,2.87,2.19,6.06.37,1.42.37,5.47,0,6.67-.6,1.9-1.96,4.31-2.93,5.18-1.03.93-1.18.96-2.97.65h0ZM157.55,199.97c-.06-.06-.11-.48-.11-.94v-.83l2.57-.28c2.01-.22,5.57-.13,6.87.16.04,0,.04.46,0,.99l-.08.97-4.57.02c-2.52,0-4.62-.03-4.68-.09h0ZM157.02,193.5c-.08-.2-.1-.7-.06-1.1.08-.68.21-.76,1.93-1.09,2.12-.41,6.46-.26,7.59.26.57.26.72.51.72,1.21,0,.85-.02.87-.85.69-1.33-.3-7.63-.21-8.45.12-.59.23-.76.22-.88-.08h0ZM80.21,186.62c-2.16-2.47.09-4.96,7.94-8.79,2.42-1.18,4.52-2.15,4.65-2.15s.59-.18,1-.39c.41-.22,1-.4,1.29-.4s.65-.1.79-.22.96-.43,1.83-.7,1.88-.57,2.24-.69,2.2-.58,4.09-1.03c1.89-.45,3.84-.93,4.35-1.05,7.02-1.75,21.96-2.97,30.06-2.44,4.72.3,6.37.56,8.13,1.27,1.85.74,1.61.81-4.96,1.42-1.67.15-3.54.4-4.15.55-.62.15-1.58.2-2.14.11-.64-.1-1.26-.03-1.65.18-.35.19-1.58.49-2.74.67-2.18.34-5.97,1.01-8.04,1.42-.65.13-2.14.4-3.3.61-2,.36-4.83,1.03-8.04,1.91-.8.22-1.87.51-2.37.65-1.34.36-3.72,1.06-4.48,1.32-.36.12-1.07.31-1.57.4-.5.1-1.09.27-1.32.38-.22.11-1.06.4-1.85.65-1.86.58-5.84,2.01-7.78,2.78-.29.12-1.12.42-1.85.67-.73.26-1.44.54-1.58.64s-.86.39-1.58.65c-.73.26-1.85.75-2.5,1.09-1.32.68-3.12,1.43-3.43,1.43-.11,0-.57-.42-1.02-.93h-.02ZM241.01,186.81c-1.45-.7-3.5-1.61-5.26-2.34-.51-.21-1.31-.55-1.79-.75-.48-.21-1.08-.37-1.33-.37s-.58-.1-.72-.23c-.14-.13-.96-.48-1.83-.78s-2.59-.92-3.82-1.38-2.48-.89-2.77-.95-.76-.23-1.05-.36c-.48-.21-3.15-.96-5.8-1.61-.58-.14-1.29-.36-1.58-.48-.29-.12-2.07-.59-3.95-1.05-1.89-.46-3.84-.94-4.35-1.07s-1.93-.42-3.16-.63c-2.34-.41-2.5-.44-5.93-1.09-4.59-.88-8.71-1.48-13.32-1.96-1.52-.16-3.27-.4-3.89-.54s-1.72-.26-2.44-.26-1.32-.1-1.32-.21c0-.35,1.85-1.13,3.29-1.41,4.22-.79,16.05-.93,20.84-.25,1.01.15,3.14.4,4.74.56,5.02.52,5.92.66,11.6,1.81.73.15,1.73.38,2.24.52.51.14,1.69.45,2.64.7,2.67.71,9.47,2.99,11.05,3.72,4.27,1.95,6.69,3.22,8.44,4.42,2.05,1.41,3.45,3.01,3.45,3.95s-1.49,2.8-2.24,2.77c-.15,0-.92-.33-1.72-.72h-.02,0ZM156.56,187.11c-.09-.09-.17-.56-.17-1.02,0-1.05.15-1.11,3.5-1.46,2.63-.27,7.42.05,7.92.54.12.12.18.61.13,1.1-.1,1.09-.58,1.23-2.33.65-1.38-.45-5.09-.57-6.11-.2-.93.34-2.75.58-2.95.39h0ZM155.96,180.32c-.08-.21-.11-.65-.06-.99.08-.53.31-.65,1.8-.91,3.39-.6,10.05-.29,10.57.48.08.12.1.58.04,1.01-.14.93-.62.99-3.09.4-2.04-.49-3.47-.49-6.02,0-2.57.49-3.05.49-3.24.02h0ZM144.23,162.13c-2.8-.99-3.89-1.54-6.96-3.46-8.93-5.59-20.56-16.43-28.96-27.01-.98-1.23-2.11-2.66-2.52-3.16-1.37-1.72-2.88-4.08-3.81-5.93-1.95-3.92-2.26-4.9-2.45-7.77-.14-2.07-.1-2.32.47-3.17,2.48-3.65,8.98-1.86,17.49,4.79,3.04,2.38,10.6,9.66,13.77,13.28,2.21,2.52,3.28,3.8,8.39,10.11,1.72,2.12,6.34,8.81,7.31,10.57,1.81,3.29,3.35,6.6,3.35,7.21,0,.22.12.48.26.57s.26.8.26,1.57c0,1.19-.12,1.53-.76,2.23-.7.75-.9.82-2.44.81-1.07,0-2.31-.23-3.42-.63h.02ZM174.32,162.12c-.56-.61-.66-.95-.64-2.39.02-2,.88-4.2,3.43-8.83,2.04-3.7,6.94-10.53,11.78-16.41,4.49-5.45,14.26-15.45,17.01-17.39.47-.33,1.72-1.28,2.77-2.1,2.25-1.76,7.01-4.34,8.96-4.86,2.06-.55,4.31-.48,5.34.16,1.69,1.05,2.49,3.3,1.97,5.58-.18.77-.43,1.61-.56,1.86s-.23.63-.23.84c0,.59-2.64,5.61-4.04,7.68-2.06,3.05-6.17,8.12-9.22,11.37-1.19,1.27-2.76,2.96-3.47,3.74-1.84,2.02-9.35,9.1-11.03,10.4-.78.61-2.06,1.65-2.85,2.31-1.42,1.2-8.48,5.9-9.74,6.5-3.15,1.48-4.75,1.98-6.72,2.1-2.03.13-2.13.11-2.77-.57h.01ZM95.22,161.96c-2.92-.21-7.68-.87-8.57-1.18-2.87-1-5.51-2.85-6.1-4.24-1.1-2.63.22-5.12,3.79-7.12l1.65-.93,11.14.29c6.13.16,13.34.32,16.03.35l4.89.06,2.39,2.37c2.76,2.75,5.44,5.19,8.37,7.63,1.23,1.03,1.92,1.77,1.71,1.84-.58.19-8.61.67-15.74.95-7.51.29-15.41.28-19.55-.02h-.01ZM206.62,161.84c-9.03-.42-12.79-.68-12.79-.9,0-.27,2.09-2.22,3.56-3.32.73-.54,1.56-1.24,1.85-1.55.29-.31,2.03-2.01,3.86-3.79l3.34-3.23h7.21c3.97,0,11.14-.13,15.94-.29l8.73-.29,1.16.59c1.52.77,3.84,2.75,4.33,3.7.57,1.1.49,3.05-.15,4.1-.57.91-2.36,2.31-3.94,3.05-2.42,1.15-3,1.25-11.34,2.07-3.16.31-13.37.24-21.75-.14h-.01ZM74.47,161.25c-.32-.06-.86-.39-1.22-.75-1.43-1.43-.99-3.62.88-4.47.99-.45,1.09-.45,2.05-.02,3.29,1.48,1.85,5.86-1.71,5.23h0ZM248.21,161.27c-.33-.06-.89-.5-1.25-.98-.85-1.12-.86-2.4-.02-3.45.57-.71.78-.79,2.13-.79s1.58.09,2.14.74c.93,1.08.89,2.75-.09,3.66-.75.7-1.87,1.02-2.9.81h-.01ZM70.65,150.7c-1.27-1.07-1.58-3.34-.66-4.86.75-1.24,3.62-1.67,4.93-.73.9.64,1.57,1.9,1.57,2.94,0,.74-1,2.63-1.58,2.99-.16.1-1.02.2-1.91.22-1.35.03-1.75-.06-2.34-.56h0ZM249.15,150.69c-1.43-1.2-1.49-3.9-.12-5.28.96-.96,3.24-1.13,4.37-.32,1.62,1.15,2.08,3.26,1.01,4.66-.84,1.09-1.21,1.27-2.97,1.42-1.37.12-1.66.06-2.3-.48h.01ZM88.87,144.47c-.06-.06-1.92-.24-4.13-.41-6.12-.46-8.89-1.68-10.38-4.56-.58-1.12-.65-3.2-.15-4.11.67-1.2,2.59-2.91,4.07-3.61l1.51-.72,11.85.11,11.85.11.6.77c2.8,3.62,4.31,5.47,6.66,8.13,1.5,1.7,2.66,3.15,2.58,3.23s-2.44.25-5.24.38c-2.8.13-6.93.35-9.18.5-4.06.27-9.83.36-10.04.17h0ZM225.6,144.3c-1.74-.13-5.69-.34-8.77-.46-3.08-.13-5.68-.3-5.77-.39-.13-.13,1.95-2.84,2.57-3.35.24-.2,3.36-3.95,4.72-5.68.65-.83,1.49-1.87,1.87-2.3l.68-.8,11.87-.13,11.87-.13,1.6.85c3.47,1.85,5.01,4.62,4.03,7.21-.55,1.44-3.09,3.41-5.42,4.2-2.57.88-13.23,1.42-19.25.97h0ZM141.58,137.71c-.83-.87-1.02-1.26-1.02-2.11,0-1.33.72-2.1,1.95-2.1s2.8,1.69,2.8,3.04-.66,2.23-1.79,2.23c-.75,0-1.14-.21-1.95-1.07h0ZM179.61,138.4c-.5-.6-.64-2.19-.28-3.06.43-1.04,1.58-1.84,2.63-1.84,1.21,0,1.72.64,1.72,2.18,0,1.19-.09,1.37-1.05,2.19-1.14.96-2.46,1.19-3.01.53h-.01ZM68.46,136.36c-.89-.49-1.19-1.07-1.19-2.34,0-1.48.56-2.1,1.88-2.1,1.46,0,2.12.8,2.02,2.44-.07,1.17-.18,1.4-.87,1.8-.94.55-1.15.57-1.85.2h.01ZM254.15,136.25c-1.35-.73-1.68-2.41-.71-3.64,1.05-1.34,3.4-.7,3.83,1.05.23.92-.25,1.85-1.28,2.48-1.01.62-.93.61-1.84.12h0ZM134.62,129.06c-1.27-.77-1.7-1.66-1.7-3.45,0-1.4.08-1.64.66-2.02.94-.61,2.21-.3,3.29.81.73.75.9,1.16,1,2.35.11,1.28.04,1.51-.56,2.12-.8.8-1.59.86-2.69.19ZM187.02,128.94c-.42-.45-.57-.94-.57-1.86,0-2.12.99-3.45,2.78-3.74,1.58-.25,2.36.47,2.36,2.19,0,2.88-2.98,5.1-4.57,3.41h0ZM69.51,128.04c-1.56-.62-3.42-2.11-4.06-3.24-.66-1.17-.74-3.06-.16-3.88,2.42-3.46,10.68.17,10.68,4.69,0,.61-.27,1.1-1.02,1.85-.98.98-1.1,1.02-2.7,1.01-.92,0-2.15-.2-2.73-.44h-.01ZM249.92,128.08c-.87-.47-1.52-1.64-1.52-2.75,0-2.69,3.91-5.79,7.34-5.8,1.28,0,1.96.28,3.01,1.26,1.04.97,1.02,2.73-.03,4.18-.88,1.21-2.37,2.41-3.8,3.06-1.24.56-3.99.59-5,.04h0ZM88.49,127.93c-4.09-.3-6.7-1.15-8.07-2.62-1.56-1.68-1.62-3.86-.16-6,1.19-1.76,2.3-2.14,6.12-2.13,3.87,0,5.98.4,8.42,1.59,1.15.56,1.43.87,2.34,2.61.57,1.09,1.68,2.96,2.46,4.17s1.36,2.29,1.28,2.42c-.18.29-8.3.27-12.39-.03h0ZM223.82,128.05c-.62-.16-.6-.22.48-1.72.52-.72,1.48-2.34,2.15-3.59,1.48-2.79,2.35-4,2.89-4,.22,0,.78-.16,1.24-.36,2.09-.91,3.27-1.09,7.16-1.09,4.41,0,5.11.22,6.47,2.04.55.74.65,1.15.65,2.84,0,2.46-.59,3.44-2.6,4.32-2.09.92-3.2,1.17-6.67,1.47-3.14.27-10.85.33-11.76.09h0ZM127.47,120.96c-1.11-.49-2.21-1.97-2.38-3.2-.39-2.92,3.33-3.34,5.07-.58.89,1.4.84,2.38-.17,3.39-.89.89-1.28.95-2.53.4h0ZM194.56,120.82c-2.72-2.03,1.17-7.05,3.95-5.1.48.33.58.66.57,1.78,0,1.54-.76,2.66-2.28,3.44-1.08.55-1.37.53-2.25-.12h0ZM67.27,115.88c-1.73-1.15-3.23-2.8-3.99-4.39-1.35-2.81-.94-6.31.85-7.27.98-.52,3.9-.18,5.12.61,2.92,1.86,4.81,5.42,4.55,8.56-.11,1.33-.24,1.61-1.02,2.27-.78.66-1.13.76-2.74.8-1.54.03-1.99-.06-2.77-.58h0ZM251.91,116.01c-1.58-1.24-1.9-4.23-.71-6.59,1.83-3.65,4.11-5.43,6.97-5.43,1.91,0,2.65.4,3.35,1.84.72,1.47.74,2.39.11,4.31-.8,2.42-2.74,4.77-4.88,5.88-1.15.6-4.07.6-4.84,0h0ZM118.73,113.73c-1.31-.94-1.9-2-1.9-3.37,0-2.99,4.24-2.84,5.8.2.7,1.38.66,2.17-.16,3.15-.93,1.11-2.25,1.12-3.75.03h.01ZM201.89,113.71c-.76-.9-.82-1.33-.38-2.64.8-2.39,3.66-3.68,5.27-2.37.52.42.62.74.6,1.89-.02,1.33-.08,1.44-1.4,2.66-1.15,1.06-1.55,1.27-2.39,1.27s-1.15-.16-1.7-.81h0ZM108.82,107.06c-1.42-.81-2.05-1.77-2.2-3.31-.17-1.74.45-2.42,2.2-2.42,2.07,0,3.8,1.78,3.8,3.91,0,.91-.13,1.18-.88,1.75-1.08.82-1.59.84-2.92.07ZM212.56,106.92c-1.97-1.97-.04-5.58,2.98-5.58,1.61,0,2.28.64,2.28,2.14,0,1.92-1.52,3.69-3.49,4.06-.85.16-1.07.08-1.77-.62h0ZM244.85,104.82c-1.11-.12-2.27-.69-3.04-1.51-.56-.6-.65-.94-.65-2.49,0-1.72.04-1.85,1.19-3.33.92-1.19,1.61-1.74,3.03-2.45,2.8-1.4,2.84-1.41,5.09-1.41,1.92,0,2.2.07,3.29.82,1.88,1.3,2.21,3.16.97,5.59-.78,1.52-3.54,3.71-5.18,4.1-.41.1-.86.27-1.01.37-.32.24-2.6.43-3.69.32h0ZM74.8,104.19c-4.31-1.54-7.06-5.9-5.43-8.58,2-3.29,8.89-2.38,12.47,1.64,2.16,2.42,1.98,5.66-.38,6.88-1.17.6-5.05.64-6.66.06ZM93.24,104.5c-.09-.15-.48-.27-.87-.27-2.82-.02-6.91-4.32-6.56-6.91.31-2.31,1.67-3.22,4.8-3.21,1.65,0,2.39.13,3.43.62,2.19,1.02,3.55,2.11,4.5,3.59,1.63,2.55,1.08,4.88-1.4,5.94-1.24.54-3.63.68-3.9.24ZM226.92,104.16c-1.91-1.05-2.47-3.22-1.41-5.41.8-1.65,2.01-2.76,4.1-3.76,1.58-.76,2.08-.86,4.04-.89,1.93-.02,2.38.07,3.26.61,1.04.64,1.76,1.87,1.75,2.98-.02,1.66-2.44,4.82-4.48,5.84-2.44,1.22-5.67,1.49-7.25.62h0Z"/>
  </g>
  <polygon class="st0" points="297.18 126.24 297.18 27.24 180.19 27.24 180.19 18.24 144.19 18.24 144.19 27.24 27.19 27.24 27.19 126.24 18.19 126.24 18.19 198.24 27.19 198.24 27.19 297.24 126.19 297.24 126.19 306.24 198.19 306.24 198.19 297.24 297.18 297.24 297.18 198.24 306.18 198.24 306.18 126.24 297.18 126.24"/>
</svg>