<?xml version="1.0" encoding="UTF-8"?>
<svg xmlns="http://www.w3.org/2000/svg" width="9in" height="10in" viewBox="0 0 648 720">
  <defs>
    <style>
      .cls-1 {
        stroke-miterlimit: 11.34;
      }

      .cls-1, .cls-2 {
        fill: none;
        stroke: #000;
        stroke-width: .1px;
      }

      .cls-3 {
        fill-rule: evenodd;
      }

      .cls-3, .cls-4 {
        fill: #0f0f0f;
      }

      .cls-2 {
        stroke-miterlimit: 10;
      }
    </style>
  </defs>
  <g id="Back">
    <path class="cls-1" d="M264.84,401.71h-25.51v8.5h-25.51v-8.5h-25.51v8.5h-25.51v-8.5h-25.51v8.5h-25.51v-8.5h-25.51v8.5h-25.51v-8.5h-25.51v8.5H15.05v20.2H6.54v25.51h8.5v25.51H6.54v25.51h8.5v25.51H6.54v25.51h8.5v25.51H6.54v25.51h8.5v25.51H6.54v25.51h8.5v20.2h20.2v8.5h25.51v-8.5h25.51v8.5h25.51v-8.5h25.51v8.5h25.51v-8.5h25.51v8.5h25.51v-8.5h25.51v8.5h25.51v-8.5h20.2v-20.2h8.5v-25.51h-8.5v-25.51h8.5v-25.51h-8.5v-25.51h8.5v-25.51h-8.5v-25.51h8.5v-25.51h-8.5v-25.51h8.5v-25.51h-8.5v-20.2h-20.2v-8.5Z"/>
    <g id="Cuts">
      <circle class="cls-2" cx="261.64" cy="433.61" r="6.09"/>
      <circle class="cls-2" cx="261.64" cy="620.81" r="6.09"/>
      <circle class="cls-2" cx="38.44" cy="433.61" r="6.09"/>
      <circle class="cls-2" cx="38.44" cy="620.81" r="6.09"/>
      <rect class="cls-2" x="51.04" y="462.56" width="198" height="180"/>
      <circle class="cls-2" cx="150.04" cy="433.61" r="13.5"/>
    </g>
  </g>
  <g id="Top_Bottom" data-name="Top/Bottom">
    <path class="cls-1" d="M583.8,160.44h8.5v-25.51h-8.5v-25.51h8.5v-25.51h-8.5v-25.51h8.5v-25.51h-8.5V6.67h-269.99v26.22h-8.5v25.51h8.5v25.51h-8.5v25.51h8.5v25.51h-8.5v25.51h8.5v34.72h20.2v-8.5h25.51v8.5h25.51v-8.5h25.51v8.5h25.51v-8.5h25.51v8.5h25.51v-8.5h25.51v8.5h25.51v-8.5h25.51v8.5h20.2v-34.72Z"/>
    <path class="cls-1" d="M583.8,355.91h8.5v-25.51h-8.5v-25.51h8.5v-25.51h-8.5v-25.51h8.5v-25.51h-8.5v-26.22h-269.99v26.22h-8.5v25.51h8.5v25.51h-8.5v25.51h8.5v25.51h-8.5v25.51h8.5v34.72h20.2v-8.5h25.51v8.5h25.51v-8.5h25.51v8.5h25.51v-8.5h25.51v8.5h25.51v-8.5h25.51v8.5h25.51v-8.5h25.51v8.5h20.2v-34.72Z"/>
    <rect class="cls-1" x="430.8" y="24.67" width="36" height="9"/>
    <rect id="Cut" class="cls-1" x="412.8" y="220.14" width="72" height="9"/>
    <circle class="cls-1" cx="383.88" cy="104.43" r="14.55"/>
    <circle class="cls-1" cx="515.36" cy="104.43" r="14.55"/>
    <circle class="cls-1" cx="430.8" cy="116.74" r="14.55"/>
    <g>
      <path class="cls-4" d="M551.15,91.21c-.67,0-1.21.54-1.21,1.21v2.42c0,.67.54,1.21,1.21,1.21s1.21-.54,1.21-1.21v-2.42c0-.67-.54-1.21-1.21-1.21Z"/>
      <path class="cls-3" d="M551.15,113.03c4.02,0,7.27-3.26,7.27-7.27s-3.26-7.27-7.27-7.27-7.27,3.26-7.27,7.27,3.26,7.27,7.27,7.27ZM547.78,109.13c-.86-.86-1.4-2.06-1.4-3.38,0-2.64,2.14-4.78,4.78-4.78,1.32,0,2.51.53,3.38,1.4l-6.75,6.75Z"/>
      <path class="cls-4" d="M559.73,95.47c.47-.47,1.24-.47,1.71,0,.47.47.47,1.24,0,1.71l-1.71,1.71c-.47.47-1.24.47-1.71,0-.47-.47-.47-1.24,0-1.71l1.71-1.71Z"/>
      <path class="cls-4" d="M536.6,105.76c0,.67.54,1.21,1.21,1.21h2.42c.67,0,1.21-.54,1.21-1.21s-.54-1.21-1.21-1.21h-2.42c-.67,0-1.21.54-1.21,1.21Z"/>
      <path class="cls-4" d="M540.87,97.18c-.47-.47-.47-1.24,0-1.71.47-.47,1.24-.47,1.71,0l1.71,1.71c.47.47.47,1.24,0,1.71-.47.47-1.24.47-1.71,0l-1.71-1.71Z"/>
      <path class="cls-4" d="M551.15,115.46c-.67,0-1.21.54-1.21,1.21v2.42c0,.67.54,1.21,1.21,1.21s1.21-.54,1.21-1.21v-2.42c0-.67-.54-1.21-1.21-1.21Z"/>
      <path class="cls-4" d="M542.58,112.61c.47-.47,1.24-.47,1.71,0,.47.47.47,1.24,0,1.71l-1.71,1.71c-.47.47-1.24.47-1.71,0-.47-.47-.47-1.24,0-1.71l1.71-1.71Z"/>
      <path class="cls-4" d="M560.85,105.76c0,.67.54,1.21,1.21,1.21h2.42c.67,0,1.21-.54,1.21-1.21s-.54-1.21-1.21-1.21h-2.42c-.67,0-1.21.54-1.21,1.21Z"/>
      <path class="cls-4" d="M558.01,114.33c-.47-.47-.47-1.24,0-1.71s1.24-.47,1.71,0l1.71,1.71c.47.47.47,1.24,0,1.71-.47.47-1.24.47-1.71,0l-1.71-1.71Z"/>
    </g>
    <g>
      <path class="cls-4" d="M351.85,99.38c.18-.5.75-.77,1.22-.52,1.16.61,2.13,1.54,2.79,2.69.82,1.43,1.12,3.1.83,4.72-.29,1.62-1.14,3.09-2.4,4.15-1.26,1.06-2.86,1.64-4.51,1.64-1.65,0-3.24-.58-4.51-1.64-1.26-1.06-2.11-2.53-2.4-4.15-.29-1.62,0-3.3.83-4.72.66-1.15,1.63-2.08,2.78-2.69.47-.25,1.04.01,1.22.52.18.5-.08,1.05-.54,1.33-.73.44-1.35,1.06-1.78,1.81-.6,1.03-.81,2.24-.6,3.42.21,1.17.82,2.24,1.74,3,.91.77,2.07,1.19,3.26,1.18,1.19,0,2.35-.42,3.26-1.19.91-.77,1.53-1.83,1.73-3,.21-1.17,0-2.38-.6-3.42-.43-.75-1.05-1.37-1.78-1.81-.46-.28-.73-.83-.54-1.33Z"/>
      <path class="cls-4" d="M349.78,98.04c-.55,0-1,.45-1,1v6.01c0,.55.45,1,1,1s1-.45,1-1v-6.01c0-.55-.45-1-1-1Z"/>
      <path class="cls-3" d="M360.8,105.06c0,6.09-4.93,11.02-11.02,11.02s-11.02-4.93-11.02-11.02,4.93-11.02,11.02-11.02,11.02,4.93,11.02,11.02ZM340.77,105.06c0,4.98,4.03,9.01,9.01,9.01s9.01-4.03,9.01-9.01-4.03-9.01-9.01-9.01-9.01,4.03-9.01,9.01Z"/>
    </g>
  </g>
  <g id="Sides">
    <path class="cls-1" d="M60.76,382.8v8.5h25.51v-8.5h25.51v8.5h25.51v-8.5h25.51v8.5h25.51v-8.5h25.51v8.5h25.51v-8.5h25.51v8.5h28.7v-34.72h-8.5v-25.51h8.5v-25.51h-8.5v-25.51h8.5v-25.51h-8.5v-25.51h8.5v-26.22H6.54v26.22h8.5v25.51H6.54v25.51h8.5v25.51H6.54v25.51h8.5v25.51H6.54v34.72h28.7v-8.5h25.51Z"/>
    <path class="cls-1" d="M60.76,185.8v8.5h25.51v-8.5h25.51v8.5h25.51v-8.5h25.51v8.5h25.51v-8.5h25.51v8.5h25.51v-8.5h25.51v8.5h28.7v-34.72h-8.5v-25.51h8.5v-25.51h-8.5v-25.51h8.5v-25.51h-8.5v-25.51h8.5V5.8H6.54v26.22h8.5v25.51H6.54v25.51h8.5v25.51H6.54v25.51h8.5v25.51H6.54v34.72h28.7v-8.5h25.51Z"/>
    <g id="Cuts-2" data-name="Cuts">
      <rect class="cls-1" x="114.04" y="220.8" width="72" height="9"/>
      <rect class="cls-1" x="114.04" y="23.8" width="72" height="9"/>
    </g>
  </g>
</svg>