<?xml version="1.0" encoding="UTF-8"?>
<svg id="Layer_1" xmlns="http://www.w3.org/2000/svg" version="1.1" xmlns:xlink="http://www.w3.org/1999/xlink" viewBox="0 0 324 324">
  <!-- Generator: Adobe Illustrator 30.1.0, SVG Export Plug-In . SVG Version: 2.1.1 Build 136)  -->
  <defs>
    <style>
      .st0 {
        fill: #525252;
      }

      .st1 {
        fill: #5f5f5f;
      }

      .st2, .st3, .st4 {
        fill: #fff;
      }

      .st5 {
        fill: #cdcdcd;
      }

      .st6 {
        fill: #9b9b9b;
      }

      .st7, .st8 {
        fill: none;
      }

      .st3 {
        stroke-width: 2px;
      }

      .st3, .st8, .st4, .st9 {
        stroke: #000;
      }

      .st3, .st4, .st9 {
        stroke-miterlimit: 10;
      }

      .st8 {
        stroke-miterlimit: 11.34;
        stroke-width: .1px;
      }

      .st10 {
        fill: #737373;
      }

      .st4, .st9 {
        stroke-width: 5px;
      }

      .st11 {
        fill: #bfbfbf;
      }

      .st12 {
        fill: #3a3a3a;
      }

      .st13 {
        fill: #373737;
      }

      .st14 {
        fill: #666;
      }

      .st15 {
        fill: #444;
      }

      .st16 {
        fill: #868686;
      }

      .st17 {
        fill: #1a1a1a;
      }

      .st18 {
        fill: #d0d0d0;
      }

      .st19 {
        fill: #919191;
      }

      .st20 {
        fill: #cfcfcf;
      }

      .st21, .st9 {
        fill: #b3b3b3;
      }

      .st22 {
        fill: #393939;
      }

      .st23 {
        fill: #fefefe;
      }

      .st24 {
        clip-path: url(#clippath);
      }

      .st25 {
        fill: #e6e6e6;
      }

      .st26 {
        fill: #989898;
      }
    </style>
    <clipPath id="clippath">
      <rect class="st7" x="27.19" y="27.01" width="269.99" height="269.99"/>
    </clipPath>
  </defs>
  <g>
    <g id="Layer_9">
      <g class="st24">
        <g>
          <path class="st2" d="M162.19,333.08c-96.44,0-174.9-78.46-174.9-174.9S65.74-16.72,162.19-16.72s174.9,78.46,174.9,174.9-78.46,174.9-174.9,174.9h0Z"/>
          <path class="st25" d="M162.19,6.72c83.65,0,151.47,67.82,151.47,151.47s-67.82,151.47-151.47,151.47S10.72,241.84,10.72,158.19,78.54,6.72,162.19,6.72M162.19-40.16c-26.76,0-52.73,5.25-77.22,15.61C61.34-14.55,40.14-.26,21.94,17.94,3.75,36.14-10.55,57.34-20.54,80.97c-10.36,24.49-15.61,50.46-15.61,77.22s5.25,52.73,15.61,77.22c9.99,23.62,24.29,44.83,42.49,63.03,18.2,18.2,39.4,32.49,63.03,42.49,24.49,10.36,50.46,15.61,77.22,15.61s52.73-5.25,77.22-15.61c23.62-9.99,44.83-24.29,63.03-42.49,18.2-18.2,32.49-39.4,42.49-63.03,10.36-24.49,15.61-50.46,15.61-77.22s-5.25-52.73-15.61-77.22c-9.99-23.62-24.29-44.83-42.49-63.03-18.21-18.2-39.42-32.49-63.04-42.49-24.49-10.36-50.46-15.61-77.22-15.61h0Z"/>
        </g>
      </g>
    </g>
    <g id="Layer_8">
      <circle class="st9" cx="162.19" cy="162.01" r="109.7"/>
      <circle class="st4" cx="162.19" cy="162.01" r="91.08"/>
    </g>
    <g id="Layer_3">
      <g>
        <path d="M216.69,293.56l-34.08-47.69,34.08-47.63,34.16,47.63-34.16,47.69ZM204.04,221.77c-.21.3-.92.79-.93,1.19l-.05,3.89c0,.08-.16.44-.17.4l-.11-3.91-16.12,22.51,11.86,16.45,11.77,16.68,6.39,8.85,15.7-21.98,5.15-7.24,9.22-12.75-7.64-10.54-17.11-23.95c-1.69-2.37-3.31-5.28-5.56-7.14-3.14,4.4-9.39,13.02-12.41,17.53h0Z"/>
        <path class="st10" d="M202.9,227.27c-.24,6.39-.83,12.76-2.04,19.14-.64,3.38-2.79,6.02-5.57,7.93.26.52,3.35,3.74,3.67,2.91-.22,1.69-.38,3.37-.43,5.07l-11.86-16.45,16.12-22.51.11,3.91h0Z"/>
        <path class="st10" d="M222.02,211.39c-7.28.44-13.7,5.28-15.77,12.3-.74-.61-1.54-1.17-2.21-1.9,3.02-4.51,9.28-13.13,12.41-17.53,2.25,1.87,3.87,4.77,5.56,7.14h.01Z"/>
        <g>
          <path class="st25" d="M215.79,262.18c2.57-.14,5.02-1.01,7.12-2.77,1.24-.16,2.61.27,3.67-.22,2.27-1.08,4.37-2.6,6.14-4.38l.53-.53c.45-.42,1.09-1.12,1.41-1.6.13-.12.36-.37.37-.54.83-.9,1.24-2.02,1.95-3.2-.14,1.12-.37,2.03-.62,2.98-.18.17-.25.64-.31.9l-.82,1.99c-.23.13-.49.61-.61.85-.6,1.19-1.42,2.18-2.29,3.35l5.21-.41-5.15,7.24c-2.75,0-5.46.29-8.3.64-5.75,1.44-12.42,5.58-13.42,11.92-.04.23-.22.52-.37.58l-11.77-16.68c.05-1.71.2-3.38.43-5.07.75-5.5,3.53-10.61,7.85-14.26,1.39-1.17,2.96-2,4.7-2.34,2.37-.47,4.51.76,5.39,2.96,2.27,5.63-1.98,13.91-6.42,17.97,1.77.77,3.59.68,5.32.59v.04h-.01ZM213.47,252.35c.33-1.44.3-2.95-.24-4.28-.62-1.51-2.07-2.32-3.7-2-1.1.22-2.16.75-3.04,1.47-5.13,4.25-6.68,10.81-5.3,17.41,5.89-2.1,10.86-6.29,12.27-12.6h0Z"/>
          <path d="M228.18,242.34l-.07.97c-6.72,4.12-11.41,11.09-12.32,18.86-1.73.09-3.55.18-5.32-.59,4.44-4.06,8.69-12.35,6.42-17.97-.89-2.2-3.02-3.43-5.39-2.96-1.72.35-3.31,1.17-4.7,2.34-4.31,3.64-7.1,8.76-7.85,14.26-.33.83-3.41-2.38-3.67-2.91,2.77-1.91,4.93-4.55,5.57-7.93,1.21-6.38,1.8-12.75,2.04-19.14,0,.04.16-.32.17-.4l.05-3.89c0-.4.72-.89.93-1.19.67.73,1.47,1.29,2.21,1.9,4.44,3.67,11.17,3.82,16.14.78,1.91-1.17,3.19-2.7,4.47-4.64-.31,7.61.28,15.08,1.31,22.53v-.02h.01ZM213.22,235.11l1.73,3.9c.78-1.42,1.24-2.61,1.9-3.95,1.35,2.23,4.22,3,6.5,1.74,2.28-1.26,3.18-4.08,2.02-6.41s-3.94-3.36-6.32-2.31c-2.38,1.05-3.52,3.79-2.58,6.22l-2.97-.03c.85-2.45-.22-5.15-2.58-6.18-2.35-1.03-5.23-.04-6.37,2.34-1.12,2.33-.22,5.18,2.13,6.41,2.31,1.21,4.95.36,6.52-1.74h.02Z"/>
          <path class="st2" d="M222.02,211.39l17.11,23.95c-1.81,4.63-5.63,8.37-10.35,9.96-.55-.78-.44-1.99-.6-2.96-1.03-7.44-1.62-14.91-1.31-22.53-1.28,1.94-2.57,3.47-4.47,4.64-4.98,3.05-11.7,2.91-16.14-.78,2.07-7.01,8.48-11.86,15.77-12.3v.02h0Z"/>
          <path class="st10" d="M232.4,265.86l-15.7,21.98-6.39-8.85c.14-.06.34-.36.37-.58,1-6.34,7.69-10.47,13.42-11.92,2.84-.35,5.55-.64,8.3-.64h0Z"/>
          <path class="st10" d="M237.55,258.62l-5.21.41c.87-1.17,1.7-2.16,2.29-3.35.93-.37,5.93-.59,5.08-2.42-.8-1.71-3.39.97-4.47,1.57l.82-1.99c1.87-.81,4.65-1.89,5.86-3.73.44-.68.17-1.57-.46-1.9-1.91-1.03-3.6,3.32-5.09,4.72.24-.95.48-1.87.62-2.98-.71,1.18-1.12,2.3-1.95,3.2.09-1.48,1.26-7.57-1.48-7.2-2.92.39.9,6.38,1.11,7.74-.32.49-.96,1.17-1.41,1.6,0,.04-.27-.28-.29-.43-.22-1.7-1.69-5.87-3.35-4.79-2.2,1.42,3.14,4.9,3.1,5.77-1.77,1.77-3.87,3.29-6.14,4.38l-3.31-.03c3.59-3.34,5.25-8.05,5.16-12.93,0-.32.17-.73.34-.95,4.72-1.58,8.54-5.32,10.35-9.96l7.64,10.54-9.22,12.75v-.03h0ZM237.15,248.2c.84-1.16,4.48-7.7,1.45-8.11-2.73-.37-1.21,6.28-1.45,8.11Z"/>
          <path class="st21" d="M213.47,252.35c-1.42,6.31-6.38,10.5-12.27,12.6-1.4-6.59.17-13.16,5.3-17.41.88-.73,1.94-1.27,3.04-1.47,1.63-.32,3.08.49,3.7,2,.54,1.33.56,2.83.24,4.28h0Z"/>
          <path class="st21" d="M228.78,245.3c-.17.22-.35.63-.34.95.09,4.87-1.56,9.58-5.16,12.93l3.31.03c-1.06.49-2.44.06-3.67.22-2.11,1.76-4.56,2.62-7.12,2.77.91-7.78,5.6-14.74,12.32-18.86l.07-.97c.16.97.05,2.17.6,2.96h0v-.03Z"/>
          <path class="st21" d="M235.05,252.16c0,.18-.24.42-.37.54-.21-1.36-4.04-7.35-1.11-7.74,2.74-.37,1.57,5.72,1.48,7.2h0Z"/>
          <path class="st21" d="M236.07,252.84c.06-.26.13-.73.31-.9,1.49-1.41,3.18-5.77,5.09-4.72.63.34.9,1.23.46,1.9-1.2,1.84-3.98,2.92-5.86,3.73h0Z"/>
          <path class="st21" d="M233.27,254.3l-.53.53c.04-.86-5.31-4.33-3.1-5.77,1.66-1.08,3.13,3.09,3.35,4.79.02.15.28.47.29.43h0v.02Z"/>
          <path class="st21" d="M234.64,255.69c.12-.25.38-.72.61-.85,1.07-.6,3.67-3.27,4.47-1.57.85,1.83-4.15,2.04-5.08,2.42h0Z"/>
          <path class="st21" d="M213.51,234.28l-.29.83c-1.57,2.1-4.22,2.94-6.52,1.74-2.34-1.23-3.23-4.08-2.13-6.41,1.13-2.38,3.93-3.41,6.37-2.34,2.44,1.07,3.43,3.73,2.58,6.18h0ZM211.75,232.55c0-1.54-1.25-2.79-2.79-2.79s-2.79,1.25-2.79,2.79,1.25,2.79,2.79,2.79,2.79-1.25,2.79-2.79Z"/>
          <path class="st21" d="M225.89,232.55c0-2.69-2.17-4.87-4.87-4.87s-4.87,2.17-4.87,4.87,2.17,4.87,4.87,4.87,4.87-2.17,4.87-4.87ZM223.82,232.55c0-1.54-1.25-2.79-2.79-2.79s-2.79,1.25-2.79,2.79,1.25,2.79,2.79,2.79,2.79-1.25,2.79-2.79Z"/>
          <path class="st25" d="M216.49,234.31c.1.26.22.52.37.76-.67,1.34-1.13,2.54-1.9,3.95l-1.73-3.9.29-.83,2.97.03h0Z"/>
          <path class="st21" d="M237.15,248.2c.24-1.83-1.27-8.47,1.45-8.11,3.03.41-.61,6.95-1.45,8.11Z"/>
          <path class="st13" d="M211.75,232.55c0,1.54-1.25,2.79-2.79,2.79s-2.79-1.25-2.79-2.79,1.25-2.79,2.79-2.79,2.79,1.25,2.79,2.79ZM210.1,232.55c0-.63-.51-1.14-1.14-1.14s-1.14.51-1.14,1.14.51,1.14,1.14,1.14,1.14-.51,1.14-1.14Z"/>
          <path class="st13" d="M223.82,232.55c0,1.54-1.25,2.79-2.79,2.79s-2.79-1.25-2.79-2.79,1.25-2.79,2.79-2.79,2.79,1.25,2.79,2.79ZM222.17,232.55c0-.63-.51-1.14-1.14-1.14s-1.14.51-1.14,1.14.51,1.14,1.14,1.14,1.14-.51,1.14-1.14Z"/>
          <circle class="st2" cx="208.96" cy="232.55" r="1.14"/>
          <circle class="st2" cx="221.02" cy="232.55" r="1.14"/>
        </g>
      </g>
    </g>
    <g id="Layer_4">
      <g>
        <path class="st17" d="M246.17,77.29c0,19.55-15.85,35.4-35.4,35.4s-35.4-15.85-35.4-35.4,15.85-35.4,35.4-35.4,35.4,15.85,35.4,35.4h0ZM179.37,81.55c.25,1.99.86,3.77,1.42,5.62,2.98,9.67,11.1,17.55,20.81,20.36,2.82.82,5.6,1.59,8.77,1.5,3.82-.11,7.78-.37,11.13-2.06,9.78-3.29,17.36-11.85,19.89-21.79,4.95-19.41-9.04-38.18-28.6-39.42-19.57-1.24-35.94,15.98-33.44,35.81v-.02h.02Z"/>
        <path class="st20" d="M221.52,106.96c.07-.13.31-.5.45-.61,3.82-3.25,4.84-8.06,3.83-12.97-1.8,1.43-3.22,2.74-4.65,4.2.59-2.58,1.12-5.43-.6-7.84-1.24.57-2.2,1.42-3.13,2.42-.59-3.39-2.8-8.45-6.21-9.34-3.44,1.1-5.49,5.89-6.13,9.36-.91-1.01-1.79-1.77-3.08-2.45-1.73,2.18-1.23,5-.73,7.66l-4.57-4.03c-1.12,5.38.32,10.67,4.87,13.8.06.04.26.24.25.25s-.17.1-.19.12c-9.71-2.81-17.83-10.69-20.81-20.36l11.81-7.06c2.13-.22,4.05-1.29,6.04-.76,1.09.29,2.25.77,2.99-.39.6-.96.31-2.26-.82-2.82l-1-.51,3.8-2.72c1.72,2.02,5.98,5.26,8.85,3.25,2.87-2.01,5.84-4.09,8.66-6.37,1.43-1.16,1.45-3.67,1.05-5.27-.37-1.48-1.04-2.62-1.62-3.86l3.05.1c.36,0,.94-.22,1.11-.47.21-.31.1-1.18-.33-1.22l-2.94-.25c-.18-.02-.42-.53-.32-.65.12-.14.42-.46.6-.54l3.78-1.76c-.42-.93-1.62-1.15-2.48-.8-1.68.7-3.27,1.53-4.87,2.5-1.51-2.38-6.12-5.52-8.89-3.49l-8.54,6.27c-1.23.9-1.42,2.96-1.27,4.36.18,1.65.83,3.02,1.6,4.29-.46.09-.82.36-1.32.69-6.52,4.37-13.18,8.28-20,12.31l-.32-.44c-2.5-19.82,13.41-37.08,33.44-35.81,20.03,1.27,33.55,20.02,28.6,39.42-2.53,9.94-10.12,18.5-19.89,21.79h-.07ZM227.15,79.83c0-.49-.39-.87-.87-.87s-.87.39-.87.87.39.87.87.87.87-.39.87-.87ZM217.61,80.25c0-.49-.39-.88-.88-.88s-.88.39-.88.88.39.88.88.88.88-.39.88-.88ZM207.21,81.68c0-.76-.62-1.38-1.38-1.38s-1.38.62-1.38,1.38.62,1.38,1.38,1.38,1.38-.62,1.38-1.38ZM225.76,85.78c0-.75-.61-1.36-1.36-1.36s-1.36.61-1.36,1.36.61,1.36,1.36,1.36,1.36-.61,1.36-1.36ZM194.95,92.83c0-.71-.57-1.28-1.28-1.28s-1.28.57-1.28,1.28.57,1.28,1.28,1.28,1.28-.57,1.28-1.28Z"/>
        <circle class="st14" cx="226.27" cy="79.83" r=".87"/>
        <g>
          <circle class="st14" cx="224.4" cy="85.78" r="1.36"/>
          <circle class="st14" cx="205.84" cy="81.68" r="1.38"/>
          <circle class="st14" cx="193.67" cy="92.83" r="1.28"/>
          <circle class="st14" cx="216.73" cy="80.25" r=".88"/>
          <g>
            <path class="st14" d="M221.52,106.96c-3.35,1.69-7.31,1.95-11.13,2.06-3.19.09-5.96-.68-8.77-1.5.02,0,.18-.12.19-.12s-.21-.22-.25-.25c-4.55-3.13-5.99-8.43-4.87-13.8l4.57,4.03c-.5-2.66-1-5.47.73-7.66,1.3.67,2.18,1.43,3.08,2.45.65-3.47,2.69-8.26,6.13-9.36,3.4.89,5.62,5.94,6.21,9.34.93-1,1.89-1.85,3.13-2.42,1.72,2.41,1.19,5.26.6,7.84,1.43-1.46,2.86-2.77,4.65-4.2,1,4.92,0,9.73-3.83,12.97-.14.12-.37.48-.45.61h0ZM209.96,107.08c.74.13,1.56.26,2.44,0,5.18-.46,8.23-5.59,6.99-10.72l-2.46,2.44c.12-1.75.55-3.26-.51-4.8-.62.45-1.16.94-1.68,1.46-.44-1.93-1.38-5.17-3.54-5.94-2.17,1.04-2.9,3.75-3.47,5.87-.58-.52-1.16-1.01-1.72-1.36-.98,1.57-.61,2.92-.51,4.67l-2.44-2.31c-1.15,5.35,1.93,10.13,6.89,10.69h0Z"/>
            <path class="st21" d="M212.4,107.09c3.09-.9,4.93-3.7,4.09-6.97l-1.42,1.33c0-1.08,0-1.79-.33-2.89l-1.25.79c-.34-1.35-.87-3.22-2.24-3.68-1.42.58-1.88,2.37-2.24,3.69l-1.18-.83c-.43.98-.42,1.82-.33,2.99l-1.48-1.41c-.84,3.1.88,6.05,3.95,6.98-4.97-.55-8.04-5.33-6.89-10.69l2.44,2.31c-.1-1.75-.48-3.1.51-4.67.56.35,1.14.83,1.72,1.36.57-2.12,1.29-4.83,3.47-5.87,2.17.78,3.1,4.02,3.54,5.94.52-.52,1.06-1.01,1.68-1.46,1.07,1.54.63,3.05.51,4.8l2.46-2.44c1.24,5.14-1.81,10.27-6.99,10.72h-.02Z"/>
            <path class="st2" d="M212.4,107.09c-.88.25-1.7.12-2.44,0-3.07-.94-4.8-3.88-3.95-6.98l1.48,1.41c-.09-1.17-.1-2.01.33-2.99l1.18.83c.36-1.32.82-3.11,2.24-3.69,1.37.47,1.91,2.33,2.24,3.68l1.25-.79c.33,1.1.32,1.81.33,2.89l1.42-1.33c.84,3.27-1,6.08-4.09,6.97h0Z"/>
          </g>
          <g>
            <path d="M201.01,68.99c.79,1.3,1.6,2.74,2.6,3.9l-3.8,2.72,1,.51c1.12.57,1.42,1.87.82,2.82-.73,1.16-1.9.68-2.99.39-1.99-.52-3.9.55-6.04.76l-11.81,7.06c-.57-1.85-1.18-3.63-1.42-5.62l.32.44c6.82-4.03,13.47-7.94,20-12.31.51-.34.86-.6,1.32-.69v.02h0Z"/>
            <g>
              <path class="st2" d="M218.12,57.55c-.84.51-1.66,1.43-2.45,2.12-.63.54-.55,1.57-.05,2.11.42.45,1.52.64,2.04.07.77-.83,1.59-1.28,2.88-1.21.58,1.25,1.25,2.38,1.62,3.86.4,1.6.38,4.11-1.05,5.27-2.82,2.29-5.68,4.29-8.66,6.37-2.98,2.08-7.13-1.25-8.85-3.25-.99-1.17-1.82-2.6-2.6-3.9-.78-1.3-1.42-2.65-1.6-4.29-.15-1.4.05-3.46,1.27-4.36l8.54-6.27c2.77-2.03,7.38,1.11,8.89,3.49h.02ZM219.66,68.4c-1.73.2-3.01-.16-4.29-1.04-3.55-2.51-6.2-8.35-4.06-12.5-1.32.75-1.9,2.24-1.93,3.79-.08,3.74,1.75,7.32,4.72,9.59,1.57,1.2,4.38,1.91,5.57.15h-.01Z"/>
              <path d="M220.55,60.63c-1.28-.07-2.11.37-2.88,1.21-.52.57-1.63.38-2.04-.07-.51-.54-.58-1.57.05-2.11.79-.68,1.61-1.6,2.45-2.12,1.6-.97,3.2-1.81,4.87-2.5.87-.37,2.07-.13,2.48.8l-3.78,1.76c-.18.08-.48.41-.6.54-.1.11.15.64.32.65l2.94.25c.42.04.53.9.33,1.22-.17.25-.75.48-1.11.47l-3.05-.1h.02Z"/>
              <path class="st26" d="M219.66,68.4c-1.19,1.75-4.01,1.04-5.57-.15-2.96-2.27-4.8-5.85-4.72-9.59.04-1.56.61-3.04,1.93-3.79-2.14,4.14.51,9.98,4.06,12.5,1.28.88,2.56,1.24,4.29,1.04h.01Z"/>
            </g>
          </g>
        </g>
      </g>
    </g>
    <g id="Layer_1-2">
      <g>
        <path d="M86.35,189.63h-42.4c-.12-1.27-.26-2.46-.52-3.65-1.49-5.19-5.84-7.48-11-7.89v-42.47c1.15-.12,2.22-.25,3.33-.45,5.34-1.37,7.81-5.82,8.18-11.11h42.39l.41,3.2c1.31,5.46,5.77,7.96,11.13,8.36v42.47l-2.85.36c-3.08.62-5.64,2.46-7.09,5.26-.97,1.8-1.41,3.72-1.58,5.94,0,0,0-.02,0-.02ZM83.48,186.33c.43-2.02,1.08-3.56,2.02-5.09,2.01-3.26,5.26-5.42,9.06-6.09v-36.64c-5.7-1.35-10.04-5.03-11.17-11.15h-36.6c-1.26,5.83-5.22,10.12-11.08,11.19v36.63c5.7,1.38,10.04,5.04,11.15,11.16h36.62Z"/>
        <path class="st21" d="M83.48,186.33h-36.62c-1.11-6.1-5.45-9.77-11.15-11.15v-36.63c5.86-1.06,9.82-5.36,11.08-11.19h36.6c1.12,6.11,5.46,9.81,11.16,11.15v36.64c-3.79.67-7.05,2.82-9.06,6.09-.94,1.53-1.59,3.07-2.02,5.09h0ZM58.16,150.28l.03-1.12,5.94-.04-3.82-5.33,2.58-.08-3.15-5.17,3.16-.08-5.8-7.13-5.95,7.14,3.3.07-3.3,5.18,2.75.07-3.98,5.35,5.95.03.04,1.1,2.25.03h0v-.02ZM64.62,146.87l4.92-.05-3.19-4.33,2.16-.09-2.67-4.24,2.68-.07-4.93-5.86-2.11,2.45,3.61,4.69-3.31.07,3.32,5.34-2.57.15,1.86,2.64.22-.69h.02-.01ZM80.25,146.82l-2,4.28c-.54-.74-1.17-1.36-1.68-2.14-1.12-1.71-2.29-3.36-3.62-5.16l-4.43,10.1-4.45,10.42,26.02-14.01-3.08-5.25-3.28-5.7-3.49,7.44h0v.02ZM48.98,153.57c-.13-1.69-1.09-3.18-2.36-3.9-1.53-.87-3.3-.96-4.79-.15-2.49,1.36-3.32,4.46-1.98,6.94,1,1.86,2.37,3.36,4.09,4.6,2.42-1.84,5.28-4.26,5.03-7.49h.01ZM52.08,164.68c5.65-4.51,7.12-10.93,13.92-10.27l1.21-3.05c-3.7-.67-7.39.6-10.02,3.34-1.07,1.11-1.99,2.22-2.96,3.41-1.58,1.95-6.43,7.85-9.07,4.97l-2.1,2.09c2.77,2.87,6.21,1.73,9.02-.51v.02ZM80.31,178.63c-.91.42-3.7.61-3.75-.26-.02-.49.84-1.29,1.39-2.47.72-1.55-.05-3.26-1.71-3.79-1.93-.61-4-.43-5.97.19-4.6,1.43-6.12,4.2-8.95,5.94-1.57.97-3.65.72-4.76-.74-.87-1.14-.71-2.6.26-3.62s2.08-1.73,3.35-2.28l6.38-2.76c3.67-1.58,10.63-4.76,10.34-9.49-1.33.74-2.68,1.21-3.77,2.17l-1.46,1.27c-2.2,1.93-9.76,4.72-12.9,6.24-2.97,1.43-6.83,4.27-5.74,8.05.59,2.03,2.2,3.55,3.91,4.2,2.17.82,4.31.47,6.15-.69,1.27-.81,2.31-1.8,3.42-2.79,1.9-1.68,4.08-2.85,6.62-3.17.56-.07,1.34-.04,1.69.41.45.58-1.86,1.76-.99,4.34.99,2.95,5.2,2.92,7.61,1.9l-1.12-2.65h0ZM81.85,168.91l6.89-.1-1.16-1.92,1.38-2.19-7.11-.02v-.82h-.79v14.18h.79v-9.12h0Z"/>
        <path class="st2" d="M80.31,178.63l1.12,2.65c-2.41,1.02-6.62,1.05-7.61-1.9-.86-2.58,1.43-3.76.99-4.34-.35-.45-1.12-.49-1.69-.41-2.54.32-4.72,1.49-6.62,3.17-1.12.98-2.16,1.99-3.42,2.79-1.83,1.17-3.97,1.52-6.15.69-1.71-.64-3.32-2.17-3.91-4.2-1.1-3.78,2.77-6.61,5.74-8.05,3.14-1.52,10.69-4.31,12.9-6.24l1.46-1.27c1.09-.96,2.44-1.42,3.77-2.17.28,4.72-6.67,7.9-10.34,9.49l-6.38,2.76c-1.27.55-2.42,1.3-3.35,2.28s-1.13,2.47-.26,3.62c1.12,1.45,3.2,1.71,4.76.74,2.83-1.75,4.35-4.51,8.95-5.94,1.97-.61,4.04-.79,5.97-.19,1.67.52,2.43,2.23,1.71,3.79-.55,1.18-1.42,1.99-1.39,2.47.04.87,2.83.68,3.75.26h0Z"/>
        <path class="st2" d="M52.08,164.68c-2.8,2.24-6.24,3.37-9.02.51l2.1-2.09c2.64,2.88,7.49-3.03,9.07-4.97.97-1.19,1.89-2.31,2.96-3.41,2.63-2.75,6.32-4.01,10.02-3.34l-1.21,3.05c-6.81-.66-8.27,5.76-13.92,10.27v-.02Z"/>
        <path class="st14" d="M48.98,153.57c.24,3.23-2.62,5.66-5.03,7.49-1.72-1.26-3.08-2.75-4.09-4.6-1.34-2.47-.52-5.58,1.98-6.94,1.49-.81,3.25-.72,4.79.15,1.27.72,2.23,2.21,2.36,3.9h-.01ZM47.05,154.02c0-1.63-1.32-2.95-2.95-2.95s-2.95,1.32-2.95,2.95,1.32,2.95,2.95,2.95,2.95-1.32,2.95-2.95Z"/>
        <g>
          <path class="st14" d="M87.02,145.08l3.08,5.25-26.02,14.01,4.45-10.42c1.76-.52,2.3-3.96,3.1-3.75.67.17.85,1.45,1.78,1.25.29-.07.64-.5.67-.81l.1-1.3c.02-.22.42-.67.62-.57.6.32,1.19.44,1.77.22.52.78,1.13,1.4,1.68,2.14l2-4.28-.02.22c0,.07.3.05.38,0,1.3-.67,1.68-2.06,2.64-2.14,1.06-.08,1.12,1.69,2.1,1.7,1.17,0,.78-1.39,1.65-1.52h.02Z"/>
          <path class="st2" d="M76.58,148.98c-.58.22-1.17.09-1.77-.22-.2-.1-.61.35-.62.57l-.1,1.3c-.03.31-.37.74-.67.81-.93.21-1.11-1.08-1.78-1.25-.82-.21-1.34,3.22-3.1,3.75l4.43-10.1c1.33,1.8,2.49,3.45,3.62,5.16v-.02h-.01Z"/>
          <path class="st2" d="M87.02,145.08c-.87.13-.48,1.53-1.65,1.52-.98,0-1.05-1.78-2.1-1.7-.97.08-1.34,1.47-2.64,2.14-.08.05-.39.07-.38,0l.02-.22,3.49-7.44,3.28,5.7h-.02Z"/>
        </g>
        <g>
          <polygon points="81.85 168.91 81.85 164.67 88.95 164.69 87.57 166.89 88.74 168.81 81.85 168.91"/>
          <rect class="st2" x="81.06" y="163.85" width=".79" height="14.18"/>
        </g>
        <circle cx="44.09" cy="154.02" r="2.95"/>
        <g>
          <polygon points="58.16 150.28 55.91 150.25 55.86 149.16 49.91 149.14 53.89 143.79 51.14 143.71 54.43 138.53 51.14 138.45 57.1 131.32 62.9 138.45 59.74 138.54 62.89 143.7 60.31 143.79 64.13 149.12 58.18 149.16 58.16 150.28"/>
          <polygon points="64.62 146.87 64.4 147.56 62.53 144.91 65.1 144.77 61.78 139.43 65.09 139.36 61.48 134.67 63.59 132.23 68.52 138.09 65.84 138.16 68.52 142.39 66.35 142.49 69.54 146.82 64.62 146.87"/>
        </g>
      </g>
    </g>
    <g id="Layer_5">
      <g>
        <path class="st3" d="M154.35,77.43c0-5.77-4.54-10.47-10.24-10.76,2.25-1.98,3.67-4.87,3.67-8.1,0-5.96-4.83-10.79-10.79-10.79-1.36,0-2.65.26-3.85.72.06-.44.09-.89.09-1.36,0-5.96-4.83-10.79-10.79-10.79-4.05,0-7.57,2.23-9.42,5.53-1.82-3.39-5.4-5.7-9.52-5.7-5.96,0-10.79,4.83-10.79,10.79,0,.62.07,1.21.16,1.8-1.38-.64-2.9-1-4.52-1-5.96,0-10.79,4.83-10.79,10.79,0,2.74,1.03,5.23,2.71,7.13-4.87,1.04-8.52,5.37-8.52,10.55,0,5.48,4.1,10,9.38,10.69-2.19,1.98-3.58,4.83-3.58,8.02,0,5.96,4.83,10.79,10.79,10.79,1.59,0,3.1-.36,4.46-.97-.07.48-.11.96-.11,1.45,0,5.96,4.83,10.79,10.79,10.79,4.06,0,7.59-2.24,9.43-5.56,1.87,3.22,5.34,5.38,9.33,5.38,5.96,0,10.79-4.83,10.79-10.79,0-.36-.02-.7-.06-1.04,1.49.77,3.17,1.22,4.97,1.22,5.96,0,10.79-4.83,10.79-10.79,0-2.89-1.14-5.5-2.99-7.44,4.89-1.02,8.58-5.36,8.58-10.57l.02.02h.01ZM112.96,52.3h-.07s.03-.05.04-.07c0,.02.02.05.03.07h0ZM99.11,57.52c-.03-.25-.07-.51-.11-.76.23.1.47.21.71.3-.21.15-.4.31-.6.46ZM90.87,69.37c-.07-.08-.15-.17-.22-.25.11-.03.22-.06.34-.08-.04.11-.07.22-.11.34h0ZM90.59,83.44c.09.35.2.69.31,1.03-.37-.09-.75-.16-1.13-.21.29-.26.56-.53.82-.82ZM99.08,96.19c.06.04.1.08.16.12-.07.03-.13.07-.2.09,0-.07.03-.14.04-.22h0Z"/>
        <g>
          <path class="st23" d="M132.94,49.12l9.25,28.3c0-16.3-13.22-29.52-29.52-29.52s-29.52,13.22-29.52,29.52,13.22,29.52,29.52,29.52,29.52-13.22,29.52-29.52c0,0-9.25-28.3-9.25-28.3Z"/>
          <g>
            <path d="M142.19,77.42c0,16.3-13.22,29.52-29.52,29.52s-29.52-13.22-29.52-29.52,13.22-29.52,29.52-29.52,29.52,13.22,29.52,29.52ZM106.77,61.53c-.07,1.9-.07,3.83,0,5.74-.07-.04-.39-.18-.53-.17l-18.43,1.11c-.6,1.47-1.89,6.3-1.38,7.29-.62.82-.08,5.2.07,6.42.02.16.29.37.41.35l-.29.33c.17.66,1.31,5.49,1.98,5.36-.15.32.02.89.33.99l4.08-2.81,1.3-.86c.1-.07.55.02.67.07.67.31-.79,1.5-1.15,1.75l-4.38,3.05c.23.53.63.93.85,1.33,2.07,3.67,5.29,6.62,9.06,8.89l.04-6.69-.19-.14s.13-.11.23-.22l.11.19v6.97c8.17,4.72,18.37,4.66,26.45-.12,4.05-2.4,7.63-5.86,9.76-10.06l.85-1.68c2.95-5.82,3.25-13.12,1.34-19.25-.06-.2-.37-.32-.37-.23l.14-.37c-.18-1.03-.92-1.99-1.28-2.86-1.29-3.09-3.47-6-6.09-8.1-.5-.39-.97-.94-1.52-1.31l-1.54-1.05c-11.14-7.65-26.98-5.32-35.41,5.59l13.88.64c.38.02.75-.03,1.02-.12h0v-.03Z"/>
            <path class="st23" d="M127.28,55.43l-7.17,12c-.55.93-.76,2.17-1.06,3.2-.43.97-.75,1.94-1.06,3.03.97-.71,1.65-1.43,2.41-2.09.93-.82,2.04-1.55,2.88-2.47l7.06-11.31c2.62,2.1,4.8,5,6.09,8.1-1.37,1.96-2.77,3.9-4.7,5.43-2.32,1.84-3.99-.53-5.7-.1-.74.19-1.22,1.01-1.83,1.29-.54.25-.5.5-.73.83-.75,1.09-1.87,1.88-2.92,2.65-.82.61-1.63,1.2-2.53,1.8l2.07,2.06c.65-.27,1.25-.52,1.81-.8l.14.16-1.56,1.05,2.17,2.11c1.15-.43,1.97-1.03,3.07-1.79-.6.96-1.4,1.62-2.36,2.39.12.24.57.68.95.82l2.54-1.59c-.59.9-1.28,1.49-2.11,2.22l1.56,1.56c1.72-.82,3.15-1.84,4.38-3.1l.76-.78c.13-.13.41-.31.57-.38.3-.14.37-.46.52-.8.6-1.32,1.86-1.28.54-4.66-.45-1.14-.44-2.3.35-3.29,1.19-1.5,2.62-2.8,4.16-3.85,0-.09.31.04.37.23,1.91,6.13,1.61,13.42-1.34,19.25l-3.38-1.14-.03-1.02c-.02-.68-.56-1.12-1.16-1.18-.5-.39-1.22-.36-1.71.17-1.14,1.23-2.09,4.21-.29,4.71.37.1.99.43,1.4.24.46-.22.79-.67,1.15-1.12l3.17,1.03c-2.14,4.21-5.71,7.66-9.76,10.06l-.05-6.47,1.81,1.67,2.25-2.24-17.56-17.58-17.51,17.53,2.21,2.29,2.06-2.02.19.14-.04,6.69c-3.77-2.27-6.98-5.22-9.06-8.89l5.33-3.74c.82-.57,1.53-1.22,2.06-1.97.41-.4.82-.86,1.13-1.34l1.57-1.59c.07-.07.13-.39.06-.44s-.35-.13-.44-.1l-2.18.68-1.82.6c-3.25,1.07-4.49,2.7-7.41,4.37-.67.13-1.8-4.71-1.98-5.36l.29-.33c4.53-1.16,13.42-3.62,17.79-4.81.3-2.45-1.12-4.22-1.31-6.53-.61.12-.96.21-1.35.34-.06,0-.15.03-.21.05l-1.64.48h-.32l-.18.16h-.18l-1.86.51-.21.06-1.65.45c-.12.04-.35.13-.46.18-.52.07-1.43.32-1.89.49-.08.03-.26.06-.35.07l-1.67.46-.47.15c-.47.15-1.4.34-1.89.5-.06.02-.18.06-.23.07l-1.57.46-.69.15h-.17c-.52-.98.78-5.81,1.38-7.28l18.43-1.11c.14,0,.47.13.53.17.77.09,1.76.28,2.45.75,1.26.86,1.4,2.55.52,3.72-.73.99-1.04,2.1-.97,3.25l.04.68,3.17-.05h1.17l3.14-.06-.09-1.77c-.18-3.15-2.46-2.67-1.33-4.72.3-.54.89-1.27.92-1.88l.28-6.01c.18-3.7-2.56-6.37-5.81-7.52-.24-.08-.85.07-.96.28-.63,1.23,1.28,1.82,2.23,4.51.36,1.02-.07,1.98-1.08,2.41-1.81.78-2.77.2-3.69.66-.27.09-.63.14-1.02.12l-13.88-.64c8.43-10.92,24.27-13.24,35.41-5.59v.04l.04-.02Z"/>
            <g>
              <g>
                <path class="st14" d="M96.01,83.58c.08,0,.32.17.37.27.87,1.67.64.8,1.3,1.92-.53.75-1.25,1.41-2.06,1.97l-5.33,3.74c-.22-.4-.62-.8-.85-1.33l4.38-3.05c.37-.25,1.82-1.44,1.15-1.75-.11-.06-.56-.14-.67-.07l-1.3.86-4.08,2.81c-.3-.1-.47-.67-.33-.99,2.92-1.67,4.15-3.31,7.41-4.37h.01Z"/>
                <path class="st25" d="M98.81,84.43c-.32.48-.72.94-1.13,1.34-.67-1.12-.43-.24-1.3-1.92-.06-.1-.29-.26-.37-.27l1.82-.6c.12.58.47,1.17.98,1.44h0Z"/>
                <path class="st14" d="M98.81,84.43c-.52-.27-.86-.87-.98-1.44l2.18-.68c.09-.03.37.06.44.1s0,.37-.06.44l-1.57,1.59h-.01Z"/>
              </g>
              <g>
                <path class="st16" d="M130.33,57.8l-7.06,11.31c-.09-.04-.34-.17-.44-.24l-1.25-.96,7.23-11.42c.55.37,1.03.92,1.52,1.31Z"/>
                <polygon class="st14" points="128.81 56.49 121.59 67.91 120.1 67.43 127.28 55.43 128.81 56.49"/>
                <path class="st25" d="M121.59,67.91l1.25.96c.1.07.35.21.44.24-.83.92-1.95,1.65-2.88,2.47-.29-.44-.83-.76-1.35-.94.3-1.02.5-2.27,1.06-3.2,0,0,1.48.47,1.48.47Z"/>
                <path class="st14" d="M120.4,71.56c-.76.67-1.43,1.39-2.41,2.09.32-1.09.63-2.06,1.06-3.03.52.18,1.07.5,1.35.94Z"/>
              </g>
              <g>
                <path class="st14" d="M137.57,69.14c-1.55,1.05-2.96,2.35-4.16,3.85-.79.99-.8,2.15-.35,3.29,1.31,3.37.06,3.34-.54,4.66-.15.34-.23.66-.52.8l-8.08-8.06c-.11-.11-.36-.27-.45-.33.23-.34.19-.58.73-.83.61-.28,1.09-1.11,1.83-1.29,1.71-.43,3.38,1.94,5.7.1,1.92-1.52,3.33-3.47,4.7-5.43.37.87,1.11,1.84,1.28,2.86l-.14.37h0Z"/>
                <path class="st14" d="M130.67,82.89c-1.23,1.27-2.66,2.28-4.38,3.1l-1.56-1.56c.82-.72,1.52-1.32,2.11-2.22l-2.54,1.59c-.37-.13-.82-.57-.95-.82.97-.77,1.76-1.43,2.36-2.39-1.1.76-1.91,1.36-3.07,1.79l-2.17-2.11,1.56-1.05c.36-.24.71-.67,1.02-1.01-.42.13-.83.69-1.16.85-.57.28-1.16.52-1.81.8l-2.07-2.06c.91-.6,1.72-1.19,2.53-1.8.45-.04.34.95,1.44,1.08l1.83.22c1.59.19,1.11,2.42,2.62,2.38l2.07-.05c1.67-.04,2.31,2.1,2.15,3.24h0l.02.02Z"/>
                <path class="st25" d="M132,81.73c-.16.07-.44.25-.57.38l-.76.78c.16-1.14-.48-3.28-2.15-3.24l-2.07.05c-1.52.03-1.03-2.19-2.62-2.38l-1.83-.22c-1.11-.13-.99-1.12-1.44-1.08,1.04-.78,2.16-1.57,2.92-2.65.09.06.35.22.45.33l8.08,8.06v-.02h0Z"/>
                <path class="st5" d="M122.05,79.23l-.14-.16c.33-.16.74-.72,1.16-.85-.31.34-.67.77-1.02,1.01h0Z"/>
              </g>
              <g>
                <path class="st21" d="M86.92,82.27c-.12.03-.39-.19-.41-.35-.17-1.22-.7-5.6-.07-6.42h.17l.49,1.39c.04.11.12.49.23.46l.47-.15c.16-.05-.37-1.9-.5-1.86l1.57-.46.07.73c0,.12.28.44.4.41s.43-.11.41-.23l-.08-.52c-.04-.22-.37-.49-.58-.46.5-.16,1.43-.35,1.89-.5l.54,1.79c.06.17.67-.1.63-.25l-.34-1.37c-.03-.12-.32-.35-.37-.32l1.67-.46.28,1.03c.04.14.65.09.65-.05l-.03-.52c0-.22-.37-.52-.55-.53.46-.17,1.39-.4,1.89-.49l.49,1.77c.07.16.69-.08.65-.26l-.33-1.31c-.04-.15-.04-.33-.1-.34l-.25-.04,1.65-.45c.07.34.22.86.35,1.13.05.1.56-.02.56-.12l-.04-.53c0-.13-.1-.47-.23-.49l-.42-.04,1.86-.51c.5.52.38,1.88.89,1.87.12,0,.43-.21.4-.32l-.32-1.28c-.03-.11-.25-.38-.3-.42l1.64-.48c-.12.11.15,1.2.45,1.18.13,0,.43-.16.41-.29l-.05-.52c-.02-.21-.39-.47-.61-.43.38-.13.74-.22,1.35-.34.19,2.32,1.61,4.09,1.31,6.53-4.37,1.19-13.27,3.65-17.79,4.81h0Z"/>
                <path d="M87.29,75.34c.13-.05.66,1.8.5,1.86l-.47.15c-.11.04-.2-.35-.23-.46l-.49-1.4.69-.15Z"/>
                <path d="M91.46,74.16c.06-.03.35.2.37.32l.34,1.37c.04.15-.58.42-.63.25l-.54-1.79.47-.15h-.01Z"/>
                <path d="M100.21,71.79s.27.31.3.42l.32,1.28c.03.11-.29.32-.4.32-.51.02-.39-1.34-.89-1.87h.18l.18-.15h.32-.01Z"/>
                <path d="M95.82,72.96l.25.04c.07,0,.07.19.1.34l.33,1.31c.05.18-.58.42-.65.26l-.49-1.77c.11-.05.34-.14.46-.18h0Z"/>
                <path d="M97.47,72.51l.21-.06.42.04c.13,0,.22.35.23.49l.04.53c0,.11-.51.22-.56.12-.13-.27-.28-.8-.35-1.13h0Z"/>
                <path d="M88.86,74.88c.06-.02.17-.06.23-.07.22-.03.55.24.58.46l.08.52c.02.13-.28.22-.41.23s-.39-.29-.4-.41l-.07-.73h-.01Z"/>
                <path d="M101.85,71.32s.15-.04.21-.05c.22-.04.59.22.61.43l.05.52c0,.13-.28.28-.41.29-.3.02-.57-1.07-.45-1.18h-.01Z"/>
                <path d="M93.47,73.63c.18,0,.54.31.55.53l.03.52c0,.15-.61.19-.65.05l-.28-1.03c.08-.02.26-.05.35-.07h0Z"/>
                <path class="st16" d="M99.71,71.95l.18-.15-.18.15Z"/>
              </g>
              <g>
                <path class="st14" d="M125.95,93.88l.05,6.47c-8.07,4.78-18.28,4.84-26.45.12v-6.97l-.1-.19,13.01-13.09,13.49,13.64h0v.02ZM114.52,97.24c1.91-.74,3.29-2.31,3.53-4.41.24-2.1-.78-4.33-2.71-5.36-.18-.09-.66-.07-.84-.04l.52-.22c-2.32-1.02-5.01-.53-6.68,1.51-1.53,1.86-1.66,4.66-.15,6.72,1.51,2.06,4.03,2.68,6.32,1.79h.01ZM114.22,100.72c0-.89-.72-1.61-1.61-1.61s-1.61.72-1.61,1.61.72,1.61,1.61,1.61,1.61-.72,1.61-1.61Z"/>
                <path d="M125.95,93.88l-13.49-13.64-13.01,13.09c-.09.09-.2.19-.23.22l-2.06,2.02-2.21-2.29,17.51-17.53,17.56,17.58-2.25,2.24-1.81-1.67h0v-.02Z"/>
                <path d="M114.51,87.43c.19-.03.67-.06.84.04,1.92,1.03,2.95,3.23,2.71,5.36s-1.62,3.67-3.53,4.41c-2.58-.49-3.91-2.54-4.21-4.99-.28-2.31,2.48-4.57,4.19-4.82h0Z"/>
                <path class="st2" d="M114.51,87.43c-1.71.26-4.47,2.51-4.19,4.82.29,2.45,1.63,4.5,4.21,4.99-2.29.89-4.86.21-6.32-1.79-1.46-2-1.38-4.87.15-6.72,1.68-2.04,4.35-2.54,6.68-1.51l-.52.22h-.01Z"/>
                <circle class="st2" cx="112.61" cy="100.72" r="1.61"/>
              </g>
              <g>
                <path class="st1" d="M116.2,73.82s-.17.26-.17.36l-.05,1.19-6.65-.04c-.19,0-.52-.25-.56-.33-.07-1.15.24-2.26.97-3.25.87-1.17.73-2.87-.52-3.72-.68-.47-1.69-.66-2.45-.75-.07-1.91-.08-3.83,0-5.74.91-.46,1.87.13,3.69-.66,1-.43,1.43-1.39,1.08-2.41-.95-2.68-2.86-3.28-2.23-4.51.11-.22.72-.37.96-.28,3.25,1.15,5.99,3.82,5.81,7.52l-.28,6.01c-.03.62-.62,1.34-.92,1.88-1.12,2.05,1.16,1.57,1.33,4.72h-.02,0ZM113.42,66.21c0,.21.49.63.65.53.98-.54.83-2.15.82-3.52-.03-3.06.22-6.26-3.19-7.89-.14-.07-.55.11-.48.2.58.74,1.33.84,1.89,2.36.45,1.2.63,2.5.56,3.8l-.25,4.52h0ZM115.17,74.17c.31-.52-.2-1.44-.52-1.76-.47-.48-1.04-.35-1.41.16-.28.39-.76,1.27-.35,1.7.47.48,1.91.52,2.28-.09h0Z"/>
                <path class="st15" d="M108.79,74.99c.05.08.37.33.56.33l6.65.04.05-1.19c0-.09.16-.38.17-.36l.09,1.77-3.14.06h-1.17l-3.17.04-.04-.68h0Z"/>
                <path class="st6" d="M113.42,66.21l.25-4.52c.07-1.29-.11-2.6-.56-3.8-.57-1.51-1.31-1.62-1.89-2.36-.07-.08.34-.27.48-.2,3.4,1.63,3.16,4.84,3.19,7.89,0,1.38.17,2.98-.82,3.52-.16.08-.66-.33-.65-.53h0Z"/>
                <path class="st6" d="M115.17,74.17c-.37.61-1.81.57-2.28.09-.41-.42.06-1.3.35-1.7.37-.51.94-.64,1.41-.16.32.32.82,1.25.52,1.76h0Z"/>
              </g>
              <g>
                <path d="M132.03,85.27c.6.06,1.14.5,1.16,1.18l.03,1.02,3.38,1.14-.85,1.68-3.17-1.03c-.36.45-.69.9-1.15,1.12-.4.19-1.02-.14-1.4-.24,1.46-.61,2.38-3.05,1.93-4.63-.41-.19-.23-.21.07-.24h0Z"/>
                <path class="st14" d="M132.03,85.27c-.3.03-.49.06-.07.24.46,1.58-.46,4.03-1.93,4.63-1.8-.5-.86-3.48.29-4.71.49-.52,1.21-.56,1.71-.17h0Z"/>
              </g>
            </g>
          </g>
        </g>
      </g>
    </g>
    <g id="Layer_6">
      <g>
        <path d="M133.32,279.81c0,2.52-2.25,4.3-4.71,4.3h-43.12c-2.23,0-4.39-1.79-4.39-4.18l-.04-60.16c0-2.51,2.25-4.3,4.71-4.3h43.12c2.23,0,4.39,1.79,4.39,4.18l.04,60.16h0ZM130.2,218.59h-46.02v62.42h46.02v-62.42h0Z"/>
        <path class="st25" d="M130.2,218.59v62.42h-46.02v-62.42h46.02ZM90.25,221.36c-2.07.17-3.74,1.72-3.76,3.82s1.65,3.83,3.75,3.88v41.06c-2.06.07-3.73,1.72-3.75,3.79-.02,2.07,1.65,3.76,3.76,3.92l.02,1.98h33.12l.06-2c2.04-.16,3.67-1.73,3.71-3.79.04-2.06-1.6-3.82-3.68-3.9l-.02-41.05c2.15-.14,3.74-1.87,3.7-3.93-.04-2.06-1.66-3.59-3.71-3.79l-.07-1.01h-33.06l-.05,1.01h-.02Z"/>
        <path class="st25" d="M123.44,277.82l-.06,2h-33.12l-.02-1.98c2.07-.06,3.9-1.42,4.06-3.72l8.6-.02c.14,2.09,1.79,3.64,3.82,3.68,2.03.04,3.87-1.48,4.02-3.68h8.61c.11,2.25,1.98,3.72,4.1,3.71h-.01Z"/>
        <path class="st25" d="M123.43,221.36c-2.12-.02-3.97,1.46-4.1,3.71h-8.61c-.15-2.16-1.87-3.67-3.89-3.68-2.02,0-3.81,1.5-3.94,3.67h-8.59c-.17-2.22-1.96-3.7-4.08-3.7l.05-1.01h33.06l.07,1.01h.03Z"/>
        <path d="M90.56,229.06v4.23l-.03,33.57.03,3.25h-.32v-41.05h.32Z"/>
        <path class="st25" d="M95.57,233.28c.82,1.27,1.84,2.45,2.59,3.78l-3.88.06c-1.12.02-1.86,1.01-1.86,2.02v18.02c0,1.01.71,2.02,1.89,2.02l5.77.06c-1.64,2.59-3.39,5.13-5.17,7.63h-4.38l.02-33.58,5.02-.02h0Z"/>
        <path class="st25" d="M123.01,233.3l.02,33.57-4.35.03-5.06-7.53c1.85-.3,3.76-.07,5.74-.15.98-.05,1.89-.84,1.89-1.91v-18.28c0-1.06-.92-1.87-1.89-1.91-1.34-.07-2.62.12-3.82-.15l2.49-3.68,4.99.03h0v-.02Z"/>
        <path class="st25" d="M117.55,233.3h-10.49v3.8h-.14v-8.02c2.11-.1,3.68-1.63,3.82-3.73h8.61c.06,1.19.55,2.19,1.58,2.98-1.01,1.75-2.3,3.3-3.37,4.97h-.01Z"/>
        <path class="st25" d="M106.63,233.29l-10.48.09-3.45-5.02c1-.77,1.52-1.77,1.63-3.01h8.57c.12,2.07,1.69,3.59,3.76,3.74l-.03,4.2h0Z"/>
        <path class="st25" d="M106.63,233.29l.02,3.81h-7.53c-.22,0-.52-.07-.68-.14l-2.29-3.57,10.48-.09h0Z"/>
        <polygon class="st25" points="117.55 233.3 115.14 237.06 107.06 237.09 107.06 233.3 117.55 233.3"/>
        <path class="st25" d="M95.57,233.28l-5.02.02v-4.23c.63-.03,1.23-.22,1.87-.51,1.12,1.55,2.13,3.16,3.14,4.72h0Z"/>
        <path class="st25" d="M123.01,233.3l-4.99-.03,3.17-4.72c.66.29,1.15.43,1.84.55l-.03,4.2h.01Z"/>
        <path class="st25" d="M123.04,266.87l-.02,3.25c-.6.05-1.14.22-1.8.51l-2.53-3.73,4.35-.03Z"/>
        <polygon class="st10" points="123.31 270.01 123.17 270.01 123.25 229.17 123.31 270.01"/>
        <path class="st25" d="M118.13,266.71l2.8,4.11c-.97.78-1.56,1.78-1.59,3.02h-8.61c-.12-2.11-1.71-3.63-3.81-3.73v-10.88h.13v7.65h10.91l.16-.16h0Z"/>
        <path class="st25" d="M106.64,266.87l-.02,3.25c-1.97.08-3.62,1.59-3.72,3.71h-8.58c-.12-1.25-.63-2.23-1.64-3.01l2.77-4.09.14.14h11.05Z"/>
        <path class="st25" d="M106.64,259.22v7.65h-11.04l-.14-.14,4.89-7.37c.16-.07.47-.15.67-.14h5.62Z"/>
        <polygon class="st25" points="113.2 259.24 118.13 266.71 117.97 266.87 107.06 266.87 107.06 259.22 113.2 259.24"/>
        <path class="st25" d="M94.91,266.87c-.83,1.17-1.49,2.51-2.48,3.72-.48-.2-1.4-.5-1.87-.49l-.03-3.25h4.38s0,.02,0,.02Z"/>
        <polygon points="106.62 270.12 106.64 266.87 106.64 259.22 106.78 259.22 106.78 270 106.62 270.12"/>
        <g>
          <path d="M90.25,221.36c2.12,0,3.9,1.48,4.08,3.71h8.59c.14-2.18,1.88-3.68,3.94-3.68s3.74,1.52,3.89,3.67h8.61c.12-2.24,1.98-3.72,4.1-3.7,2.05.2,3.68,1.73,3.71,3.79.03,2.06-1.56,3.79-3.7,3.93l.02,41.05-.16-.12-.07-40.84-.07,40.84-.16.11.02-3.25-.02-33.57.03-4.2c-.69-.12-1.19-.26-1.84-.55l-3.17,4.72-2.49,3.68c-.1.04-.3.11-.4.11l2.42-3.77c1.07-1.67,2.35-3.22,3.37-4.97-1.03-.79-1.53-1.79-1.58-2.98h-8.61c-.12,2.11-1.71,3.63-3.81,3.73v8.02s-.14-.12-.14-.18v-3.51l-.15-.12.03-4.2c-2.08-.16-3.64-1.67-3.76-3.75h-8.57c-.11,1.26-.63,2.25-1.63,3.02l3.45,5.02,2.29,3.57c-.07.04-.21.1-.28.1-.75-1.33-1.76-2.51-2.59-3.78-1.01-1.57-2.02-3.18-3.14-4.72-.65.28-1.25.48-1.87.51h-.32c-2.1-.05-3.78-1.79-3.75-3.88.03-2.09,1.7-3.65,3.76-3.82h-.03ZM109.11,225.22c0-1.27-1.02-2.29-2.29-2.29s-2.29,1.02-2.29,2.29,1.02,2.29,2.29,2.29,2.29-1.02,2.29-2.29ZM125.53,225.22c0-1.27-1.02-2.29-2.29-2.29s-2.29,1.02-2.29,2.29,1.02,2.29,2.29,2.29,2.29-1.02,2.29-2.29ZM92.67,225.22c0-1.27-1.02-2.29-2.29-2.29s-2.29,1.02-2.29,2.29,1.02,2.29,2.29,2.29,2.29-1.02,2.29-2.29Z"/>
          <path d="M100.35,259.36l-4.89,7.37-2.77,4.09c1.01.78,1.52,1.76,1.64,3.02h8.58c.1-2.12,1.74-3.63,3.72-3.71l.16-.11v-10.78h.13v10.88c2.11.1,3.69,1.62,3.82,3.73h8.61c.04-1.24.62-2.24,1.59-3.01l-2.8-4.11-4.93-7.47c.11,0,.32.07.42.12l5.06,7.53,2.53,3.73c.66-.28,1.2-.45,1.8-.51l.16-.11h.14l.16.12c2.08.08,3.73,1.82,3.68,3.9-.05,2.08-1.67,3.63-3.71,3.79-2.13.02-3.99-1.46-4.1-3.71h-8.61c-.15,2.2-1.93,3.73-4.02,3.68-2.09-.05-3.68-1.59-3.82-3.68l-8.6.02c-.16,2.31-1.99,3.67-4.06,3.72-2.11-.16-3.78-1.8-3.76-3.92s1.69-3.72,3.75-3.79h.32c.48-.03,1.39.27,1.87.47.99-1.21,1.65-2.56,2.48-3.72,1.77-2.49,3.52-5.03,5.17-7.63.08,0,.26.08.28.11v-.02h0ZM92.67,273.94c0-1.27-1.02-2.29-2.29-2.29s-2.29,1.02-2.29,2.29,1.02,2.29,2.29,2.29,2.29-1.02,2.29-2.29ZM109.11,273.94c0-1.27-1.02-2.29-2.29-2.29s-2.29,1.02-2.29,2.29,1.02,2.29,2.29,2.29,2.29-1.02,2.29-2.29ZM125.53,273.94c0-1.27-1.02-2.29-2.29-2.29s-2.29,1.02-2.29,2.29,1.02,2.29,2.29,2.29,2.29-1.02,2.29-2.29Z"/>
          <circle class="st19" cx="123.25" cy="225.22" r="2.29"/>
          <circle class="st19" cx="106.81" cy="225.22" r="2.29"/>
          <circle class="st19" cx="90.39" cy="225.22" r="2.29"/>
          <circle class="st19" cx="106.82" cy="273.94" r="2.29"/>
          <circle class="st19" cx="123.25" cy="273.94" r="2.29"/>
          <circle class="st19" cx="90.39" cy="273.94" r="2.29"/>
          <g>
            <path d="M106.92,237.09h.14l8.08-.03c.1,0,.3-.07.4-.11,1.21.26,2.48.08,3.82.15.98.05,1.89.85,1.89,1.91v18.28c0,1.06-.92,1.87-1.89,1.91-1.99.08-3.89-.15-5.74.15-.11-.04-.32-.12-.42-.12l-6.14-.02h-6.03c-.22,0-.52.07-.67.14-.02-.03-.2-.11-.28-.11l-5.77-.06c-1.19,0-1.89-1.02-1.89-2.02v-18.02c0-1.01.74-2.01,1.86-2.02l3.88-.06c.07,0,.21-.07.28-.1.16.06.47.14.68.14h7.53l-.02-3.81.16.12v3.51c0,.06.09.18.13.18h0ZM118.26,238.56h-22.81v19.18h22.81v-19.18h0Z"/>
            <path class="st21" d="M118.26,238.56v19.18h-22.81v-19.18h22.81ZM113.36,253.77l1.57,1.59,1.57-1.28-2.71-2.96,2.6-1.72-3.07-1.23s.26-.09.26-.21v-4.57c0-1.05-.82-2.02-1.89-2.02h-9.68c-1.04,0-1.91.97-1.91,2v9.58c0,1.02.87,2,1.91,2h9.55c.82,0,1.54-.48,1.81-1.17h-.01Z"/>
            <path class="st2" d="M113.32,248.15l-5.55-2.04,2.5,8.68,1.92-2.35,1.17,1.32c-.26.69-.98,1.18-1.81,1.18h-9.55c-1.04,0-1.91-.99-1.91-2.01v-9.58c0-1.02.87-2,1.91-2h9.68c1.06,0,1.88.97,1.88,2.02v4.57c0,.11-.24.25-.26.21h.02Z"/>
            <polygon points="113.32 248.15 116.38 249.39 113.79 251.12 116.5 254.08 114.93 255.36 113.36 253.77 112.19 252.45 110.27 254.79 107.77 246.12 113.32 248.15"/>
          </g>
        </g>
      </g>
    </g>
    <g id="Layer_7">
      <g>
        <path d="M294.92,187.21h-81.13l40.58-60.48,40.55,60.48ZM238.01,183.05c.22-.24.43-.22.82-.2,1.11.07,2.17-.04,3.19-.21.07.56.24,1.19.49,1.56l18.96-.04,27.81.07-6.37-9.4-28.51-42.7-34.95,52.08,18.05.03c.31-.37.47-.79.52-1.19h-.01Z"/>
        <g>
          <path class="st2" d="M282.91,174.83c-1.68-.13-3.37-.63-5.05-1.07l-.13-.25c.35-.35.67-1.07.98-1.59-1.86-.17-3.67-.14-5.43-.85-1.81-.73-5.91-2.84-6.74-4.53l-.63-.4-1.96-5.23c-.26-.7-.52-1.36-.91-1.9-.66-2.11-2.55-4.06-5.03-4.27-.19-.02-.48-.29-.48-.42l.76-2.4c2.07-.92,2.57-2.11,2.54-4.38-.75.92-2.03,2.32-3.22,1.3s1.06-3.12-1.6-4.53c-.75-.4-1.85-.4-2.71-.07-.61.24-1.34,1.26-1.45,1.9-.2,1.12-2.06.83-3.01,1.08.84.67,1.97.94,3,.97.45,2.17,2.27,3.76,4.59,3.89l-.72,2.42c-.24.81-1.42-.04-3.62,2.37-1.19,1.3-2.64,1.92-4.41,2.04-1.56.1-3.03.02-4.5-.22-.49-.07-1.21.02-1.77.05-1.95.09-.04,3.22.14,3.57,1.8,3.51,4.55,3.48,8.21,3.96,3.72.48,5.04,2.09,6.77,5.07.04.34-1.99-.04-4.18.8-1.25.48-2.41,1.01-3.19,2.24,2.12.25,4.17.27,6.15-.24-1.34,2.28-2.02,4.6-2.11,7.24,2.48-.58,4.12-4.12,4.18-6.38.4,2.38-.6,4.54,2.17,7.18.69.66,1.34,1.31,1.91,2l-18.96.04c-.25-.36-.43-.99-.49-1.56.27-.42.27-.97.33-1.64.07-.76.86-1.43,1.56-1.73,1.35-.58,2.5-1.34,3.37-2.48,1.15-1.52,1.02-3.47,0-4.96.18-.6.37-1.39.26-1.97l-.48-2.31c-1.47.23-2.62.93-3.58,1.9-2.86-.53-5.01-.1-7.74.64-1.01-1.61-1.9-1.57-3.74-2.17l-.5,2.58c-.16.83.2,1.65.63,2.28-.58,1.27-.71,2.71-.07,4.06,1.36,2.87,4.03,1.72,5.68,4.41.03.51.11,1.15.3,1.79-.06.4-.22.82-.52,1.19l-18.05-.03,34.95-52.08,28.51,42.7h-.01Z"/>
          <g>
            <path class="st25" d="M282.91,174.83l6.37,9.4-27.81-.07c-.57-.68-1.23-1.34-1.91-2-2.77-2.64-1.77-4.8-2.17-7.18-.02-.09.09-.3.12-.35,5.5,5.78,14.92,4.14,20.22-1.14l.13.25c1.7.44,3.37.93,5.05,1.07h0v.02Z"/>
            <g>
              <path class="st0" d="M263.04,158.99c.49,1.61.85,3.26,1.15,5l.73,4.19c.79-.52,1.2-1.64,1.61-1.64.83,1.7,4.94,3.8,6.74,4.53,1.75.71,3.57.68,5.43.85-.31.52-.64,1.25-.98,1.59-5.29,5.28-14.71,6.93-20.22,1.14-.03.05-.14.25-.12.35-.07,2.27-1.69,5.8-4.18,6.38.07-2.63.76-4.96,2.11-7.24-1.98.52-4.03.5-6.15.24.77-1.23,1.94-1.77,3.19-2.24,2.19-.83,4.22-.46,4.18-.8-.07-.68-.09-2.02-.02-2.8l.52-5.03c.2-1.89-.28-5.25,2.08-6.36,2.09-.97,3.04.61,3.92,1.85v-.02h.01Z"/>
              <path class="st25" d="M263.04,158.99c-.88-1.25-1.83-2.82-3.92-1.85-2.37,1.11-1.88,4.46-2.08,6.36l-.52,5.03c-.08.78-.06,2.12.02,2.8-1.72-2.99-3.06-4.59-6.77-5.07-3.67-.47-6.41-.45-8.21-3.96.78-.4,2.82-3.21,1.63-3.62,1.46.23,2.93.32,4.5.22,1.76-.12,3.22-.74,4.41-2.04,2.2-2.41,3.38-1.57,3.62-2.37.04.15.07.27.16.25s.24-.07.31-.07l.73-.04c.2,0,.43-.16.63-.34,0,.13.29.4.48.42,2.48.22,4.38,2.17,5.03,4.27h-.02ZM256.54,158.61l-1,1.61c-.17.27-.73.51-1.06.42-.24-.07-.56-.49-.63-.77l-.37-1.58c-.45,1.04-.27,3.13,1.15,3.35.59.09,1.2-.15,1.48-.69.39-.74.54-1.55.41-2.33h.02Z"/>
              <path class="st22" d="M243.19,158.69c1.19.41-.85,3.22-1.63,3.62-.18-.35-2.09-3.48-.14-3.57.56-.03,1.28-.12,1.77-.05h0Z"/>
              <path class="st11" d="M266.54,166.54c-.41,0-.82,1.12-1.61,1.64l-.73-4.19c-.3-1.73-.67-3.38-1.15-5,.38.54.65,1.2.91,1.9l1.96,5.23.63.4h0v.02Z"/>
              <path class="st12" d="M256.54,158.61c.12.8-.03,1.59-.41,2.33-.28.53-.9.78-1.48.69-1.42-.22-1.6-2.31-1.15-3.35l.37,1.58c.07.28.37.71.63.77.33.08.89-.15,1.06-.42l1-1.61h-.02Z"/>
              <g>
                <path class="st14" d="M257.53,154.3c-.2.18-.43.33-.63.34l.73-2.51-.49-.07c-.11-.02-.3.27-.34.39l-.64,2.24c-.07,0-.22.05-.31.07s-.12-.1-.16-.25l.72-2.42c-2.32-.13-4.14-1.72-4.59-3.89.34,0,.8-.31.93-.58.16-.31.17-1.18-.19-1.21h-.53c-.1,0-.12-.1-.2-.27.11-.65.83-1.66,1.45-1.9.86-.34,1.95-.34,2.71.07,2.65,1.41.37,3.47,1.6,4.53s2.47-.38,3.22-1.3c.04,2.28-.47,3.46-2.54,4.38l-.76,2.4h0l.02-.02ZM254.8,146.23c0-.36-.29-.64-.64-.64s-.64.29-.64.64.29.64.64.64.64-.29.64-.64Z"/>
                <path d="M251.83,148.17c-1.03-.03-2.16-.29-3-.97.95-.24,2.81.05,3.01-1.08.07.17.09.27.2.27.08,0,.4-.02.53,0,.36.02.35.9.19,1.21-.14.27-.59.59-.93.58h0Z"/>
                <path class="st18" d="M256.9,154.63l-.73.04.64-2.24c.03-.11.22-.4.34-.39l.49.07-.73,2.51h0Z"/>
                <circle cx="254.16" cy="146.23" r=".64"/>
              </g>
            </g>
          </g>
          <g>
            <path class="st25" d="M242.02,182.65c-1.02.16-2.08.26-3.19.21-.39-.02-.61-.05-.82.2-.19-.64-.27-1.28-.3-1.79,1.53.38,3.21.42,4.64-.24-.07.67-.06,1.22-.33,1.64h0v-.02Z"/>
            <path d="M242.35,181c-1.43.67-3.11.64-4.64.24-1.64-2.68-4.32-1.54-5.68-4.41-.64-1.34-.51-2.78.07-4.06-.43-.63-.8-1.44-.63-2.28l.5-2.58c1.84.59,2.73.55,3.74,2.17,2.74-.73,4.88-1.17,7.74-.64.97-.97,2.11-1.67,3.58-1.9l.48,2.31c.12.58-.08,1.37-.26,1.97,1.03,1.49,1.15,3.44,0,4.96-.86,1.13-2.02,1.9-3.37,2.48-.69.3-1.48.97-1.56,1.73h.03ZM246.4,170.13c.08-.68.11-1.25.15-2.01-.82.36-1.53.76-1.94,1.42-.37.59-.06,1.27.51,1.43.43.12,1.19-.13,1.27-.85h.01ZM232.42,168.67l.31,1.84c.08.48.54.97,1,.92.39-.04.89-.41,1.01-.75.38-1.04-1.44-1.85-2.32-2.02h0ZM244.13,174.28c.31-.82-.4-1.56-1.2-1.61-.8-.05-1.56.53-1.49,1.44.34-.27.88-.62,1.27-.56.48.07.94.39,1.42.73h0ZM237.31,174.27c.11-1.24-.84-1.42-1.62-1.33-.59.07-1.1.68-1.08,1.35.89-.67,1.89-.59,2.7-.02ZM241.4,176.06c-.37.12-.8.27-1.05.24s-.67-.51-.65-.66l.82-.38c.18-.08.18-.69.02-.83-.75-.67-2.6-.25-2.45.46.17.83.68.27,1.53,1.19.51.55,1.42.7,1.78,0h0v-.02Z"/>
            <path class="st25" d="M232.42,168.67c.88.17,2.71.97,2.32,2.02-.12.34-.62.7-1.01.75-.46.05-.93-.43-1-.92l-.31-1.84h0Z"/>
            <path class="st25" d="M246.4,170.13c-.09.72-.84.97-1.27.85-.57-.16-.87-.84-.51-1.43.4-.66,1.12-1.06,1.94-1.42-.04.76-.07,1.32-.15,2.01h-.01Z"/>
            <path class="st25" d="M241.4,176.06c-.36.71-1.27.56-1.78,0-.84-.92-1.36-.36-1.53-1.19-.14-.7,1.7-1.13,2.45-.46.16.14.15.75-.02.83l-.82.38c-.03.14.39.63.65.66s.68-.12,1.05-.24h0v.02Z"/>
            <path class="st25" d="M244.13,174.28c-.47-.34-.94-.66-1.42-.73-.39-.06-.94.29-1.27.56-.07-.91.66-1.51,1.49-1.44s1.52.79,1.2,1.61h0Z"/>
            <path class="st25" d="M237.31,174.27c-.81-.57-1.81-.67-2.7.02-.02-.66.49-1.27,1.08-1.35.79-.09,1.73.09,1.62,1.33Z"/>
          </g>
        </g>
      </g>
    </g>
    <g id="Layer_2">
      <g>
        <path d="M214.96,159.44c.14,6.7-.68,13.72-4.22,19.56-2.43,4.06-6.56,7.07-11.2,8.03-4.22.89-9.07.91-12.62-1.88-.07,6.79-4.36,12.63-9.17,17.02-4.53,4.02-9.69,7.48-15.41,9.51-2.87-.56-5.43-2.2-7.98-3.59,6.07-8.24,12.32-16.34,18.51-24.5,2.59-3.27,4.88-6.79,7.83-9.77,1.64-1.74,3.72-3.27,6.18-3.49,3.05-.2,6.11.07,9.16-.11,1.12-.03,2.28-.58,2.77-1.63.77-1.51-.12-3.15.06-4.72.43-.77,1.42-.94,2.07-1.5.28-1.37-1.21-1.91-2.24-2.2,1.46-.64,3.09-1.18,4.03-2.57-.52-.79-1.74-1.93-.73-2.84,1.14-.94,3.15-1.38,3.11-3.21-1.8-2.19-4.28-4.05-4.89-7-.5-2.95.26-5.94-.13-8.91,3.82.84,7.4,2.97,9.74,6.14,3.8,5.02,4.91,11.49,5.13,17.64v.02h0Z"/>
        <path d="M194.96,147.25c.51,2.15-2.19,2.67-3.35,3.88-.17.93.58,1.55,1.1,2.19-.62,1.63-2.4,2.13-3.85,2.77.78.22,1.8.41,1.98,1.38.71,1.67-2.31,1.42-2.09,2.95.34,1.86.77,4.51-1.34,5.48-3.83,1.2-7.92-.21-11.81.68-3.45.66-5.62,3.71-7.74,6.22-7.3,9.6-14.62,19.2-21.9,28.81-2.85-2.53-5.12-5.68-6.82-9.08,5.96-8.22,12.24-16.23,18.41-24.3,2.02-2.47,4.31-5.24,7.66-5.8,3.7-.82,7.5.2,11.21-.45,1.12-.14,2.02-1.04,2.31-2.12.35-1.26-.17-2.53-.16-3.8,0-1.36,2.43-1.03,2.15-2.53-.38-.93-1.43-1.18-2.21-1.64,1.4-.5,2.98-.97,3.87-2.27-.19-.86-1.03-1.5-1.01-2.41.78-1.38,2.75-1.54,3.42-3.02.35-1.11-.74-1.75-1.38-2.43-2.17-1.92-3.75-4.61-3.81-7.57-3.82.05-7.71-1.82-9.62-5.2-.42,7.07-5.2,12.63-9.31,17.98-10.29,13.56-20.81,26.96-31.11,40.51-5.52.13-11.14-2.21-14.53-6.63-4.19-5.35-5.49-12.37-5.54-19.02-.13-6.56.74-13.5,4.42-19.11,2.51-3.9,6.75-6.59,11.33-7.24,3.49-.49,7.29-.53,10.41,1.34-1.01-5.46-.29-11.55,3.23-16.01,3.25-4.17,8.3-6.52,13.39-7.57,6.34-1.29,12.93-1.21,19.28-.07,6.01,1.13,12.11,4.01,15.39,9.41,3.03,4.67,3.21,10.44,3.04,15.82-.2,3.72,2.87,6.22,5.02,8.81h-.03v.04Z"/>
      </g>
    </g>
  </g>
  <polygon class="st8" points="297.18 126.24 297.18 27.24 180.19 27.24 180.19 18.24 144.19 18.24 144.19 27.24 27.19 27.24 27.19 126.24 18.19 126.24 18.19 198.24 27.19 198.24 27.19 297.24 126.19 297.24 126.19 306.24 198.19 306.24 198.19 297.24 297.18 297.24 297.18 198.24 306.18 198.24 306.18 126.24 297.18 126.24"/>
</svg>