<?xml version="1.0" encoding="UTF-8"?>
<svg id="Layer_1" xmlns="http://www.w3.org/2000/svg" version="1.1" viewBox="0 0 324 324">
  <!-- Generator: Adobe Illustrator 30.1.0, SVG Export Plug-In . SVG Version: 2.1.1 Build 136)  -->
  <defs>
    <style>
      .st0 {
        fill: #9f9e9e;
      }

      .st1 {
        fill: #4f4f4f;
      }

      .st2 {
        fill: #fcfcfc;
      }

      .st3 {
        fill: none;
        stroke: #000;
        stroke-miterlimit: 11.34;
        stroke-width: .1px;
      }
    </style>
  </defs>
  <g>
    <path d="M27.19,27.24h269.99v269.99H27.19V27.24ZM127.72,241.9c1.24,1.24,2.27,2.07,2.53,2.02.43-.08,1.29-1.16,7.66-9.57,6.33-8.35,16-21.04,18.88-24.77,2.46-3.18,8.24-10.79,9.1-11.96,1.1-1.52,8.45-11.03,10.52-13.63,3.83-4.8,7.28-7.93,10.39-9.43,3.41-1.64,7.55-2.07,17.72-1.81,6.55.16,10.64-.7,11.93-2.51.66-.93,1.38-3.58,1.38-5.07,0-.59-.14-1.88-.31-2.87-.43-2.52-.26-2.97,1.64-4.16,1.99-1.25,2.54-2.18,2.12-3.58-.3-.99-1.36-2.08-2.02-2.08-.51,0-.73-.5-.39-.9.16-.19,1.07-.74,2.02-1.2,2.12-1.04,4.06-2.82,4.06-3.72,0-.35-.42-1.22-.92-1.94-1.24-1.74-1.24-2.72,0-3.81.51-.45,1.31-1.01,1.78-1.25,2.33-1.2,4.15-3.28,4.15-4.74,0-.89-.12-1.06-3.77-5.22-1.68-1.91-4.26-5.3-4.62-6.06-.14-.3-.52-1.38-.85-2.4-.53-1.65-.61-2.65-.8-9.23-.28-9.79-.44-11.95-1.09-14.77-.69-2.96-1.3-5.19-1.52-5.54-.09-.15-.69-1.45-1.33-2.9-3.19-7.24-7.47-12.23-14.36-16.78-2.54-1.67-7.87-4.21-10.15-4.83-.36-.1-.9-.28-1.19-.41-.74-.33-3.96-1.23-5.54-1.55-1.67-.33-3.47-.73-5.71-1.24-2.82-.65-8.55-1-16.04-.99-8.66,0-14.27.28-15.8.77-.64.21-1.44.38-1.78.38s-.61.12-.61.26-.22.26-.5.26c-1.09,0-8,2-11.37,3.29-1.67.64-7.23,3.44-8.24,4.16-3.52,2.47-8.02,6.82-9.83,9.51-3.28,4.85-5.15,9.66-6.02,15.51-.51,3.42-.59,12.75-.11,13.8.52,1.15-.04,1.39-1.69.75-2.48-.98-4.78-1.61-6.66-1.82-2.69-.31-8.56-.27-11.62.07-4.49.51-9.01,2.26-14.74,5.7-1.33.8-3.89,2.96-5.33,4.49-1.65,1.76-4.03,4.76-4.03,5.06,0,.1-.22.49-.5.88-.81,1.15-3.33,6.14-3.82,7.55-.76,2.25-1.69,5.17-2.43,7.65-.39,1.31-.87,2.9-1.07,3.54s-.37,1.63-.37,2.19-.21,1.87-.46,2.92c-.67,2.74-.68,19.43-.02,22.99.24,1.31.52,3.13.61,4.07.09.93.4,2.3.68,3.03.28.74.51,1.6.51,1.91s.22,1.2.5,1.98.7,2.12.95,2.99.68,2.08.95,2.69.5,1.23.5,1.39c0,.33,2.3,4.88,3.36,6.63,3.98,6.61,10.34,12.31,16.56,14.83,1.01.41,2.37.96,3.02,1.22,3.07,1.24,11.39,2.5,12.82,1.94.72-.28,2.24-2.18,13.41-16.72,3.05-3.97,8.65-11.29,12.9-16.85,1.16-1.52,2.25-2.91,2.43-3.09.17-.18,2.04-2.61,4.15-5.41,3.31-4.38,7.2-9.47,12.96-16.95,5.56-7.21,8.63-11.21,10.62-13.82,2.62-3.43,3.28-4.29,5.7-7.41,4.92-6.34,11.08-14.7,12.73-17.27,1.6-2.49,3.25-5.65,4.55-8.7,1.02-2.4,2.4-7.21,2.62-9.09.13-1.19.35-2.27.48-2.4.14-.14.75.36,1.51,1.23,1.76,2.04,4.85,4.62,6.67,5.58,1.59.84,4.83,2.02,6.38,2.33.5.1,1.74.17,2.76.16,2.02-.02,2.25.13,2.27,1.41.02,2.14,1.67,6.7,3.24,8.91,1.07,1.52,3.48,4.25,5.41,6.12,1.76,1.72,1.9,1.94,1.9,2.96,0,1.35-.89,2.47-3.11,3.91-2.1,1.36-3.75,3-3.75,3.72,0,.32.43,1.42.96,2.43l.96,1.84-.5.79c-.87,1.37-3.99,3.19-6.03,3.52-.88.14-.59.84.57,1.39,1.48.71,2.14,1.36,2.34,2.29.27,1.25-.28,2.13-2.12,3.32-1.84,1.2-2.15,1.76-1.87,3.42.4,2.38.48,5.66.16,6.35-.97,2.1-1.25,2.54-2.02,3.13-.47.36-1.81.89-3.04,1.19-1.99.49-2.72.52-7.99.38-10.97-.3-15.66.38-20.04,2.87-3.15,1.8-8.03,6.81-12.93,13.31-2.69,3.56-5.35,7.05-8.17,10.68-3.3,4.25-7.56,9.8-8.17,10.62-.87,1.18-6.93,9.22-9.19,12.18-2.88,3.78-2.77,3.63-5.85,7.78-1.51,2.03-2.74,3.85-2.75,4.06,0,.65,1.55,3.44,3.82,6.84,2.96,4.44,4.8,6.78,7.32,9.31h-.02ZM162.98,264.62c.97.26,9.27-3.5,14.9-6.75,4.62-2.67,7.42-4.59,12.13-8.33,3.52-2.79,10.32-9.44,12.58-12.29,2.16-2.72,5.31-7.45,6.4-9.62,1.05-2.08,3.3-8.02,3.3-8.7,0-.24.1-.54.22-.68.46-.53.84-2.5.84-4.42,0-1.1.12-2.07.27-2.16.15-.09.84.2,1.54.64.7.45,1.38.81,1.51.81s.66.22,1.16.48c.51.27,1.75.75,2.77,1.08,1.02.32,2.2.73,2.64.9,1.09.42,9.13.4,12.26-.04,8.03-1.13,14.73-4.31,20.25-9.63,3.99-3.84,6.02-6.59,8.57-11.64,1.66-3.27,4.15-10.6,4.53-13.32.09-.65.33-1.96.54-2.9,1.17-5.33,1.84-18.26,1.2-23.01-.17-1.27-.42-3.59-.56-5.14-.14-1.56-.44-3.72-.66-4.8-1.35-6.39-1.51-6.96-3.46-12.25-1.34-3.62-4.45-8.86-7-11.81-2.88-3.32-7.87-6.99-11.58-8.49-.92-.37-1.87-.79-2.1-.91-.62-.35-4.72-1.42-4.87-1.28-.07.07-.15,4.03-.19,8.8-.06,7.92-.02,8.79.42,9.86,1.6,3.9,2.5,5.24,7.01,10.4,2.29,2.63,2.52,2.98,2.49,3.91-.04,1.41-.69,2.18-3.36,3.96-2.49,1.66-3.43,2.81-3.18,3.87.08.36.52,1.41.96,2.33l.81,1.67-.76.8c-.85.9-2.13,1.77-4.44,3-1.7.91-2.04,1.33-1.28,1.61,1.97.73,3.55,2.72,3,3.75-.27.51-2.48,2.13-2.9,2.13-.12,0-.38.2-.58.44-.28.34-.36,1.54-.36,5.12v4.67l-.81,1.02c-.99,1.23-2.22,2.1-3.5,2.48-.55.16-4.94.34-10.45.42-12.28.18-13.29.35-17.4,2.97-3.34,2.12-8.93,8.27-15.71,17.27-.64.85-1.46,1.94-1.83,2.42-1.21,1.58-6.01,7.87-8.55,11.2-4.04,5.29-10.62,13.98-17.68,23.33-3.61,4.79-6.79,9-7.07,9.36-.6.78-3.87,5.15-5.88,7.84-.79,1.05-1.43,2.09-1.43,2.31,0,.52,1.68,1.58,5.37,3.38,4.78,2.33,6.5,3.02,9.93,3.95h0Z"/>
    <path class="st1" d="M57.72,181.53c-.08-.41-.26-.99-.45-1.51-.28-.74-.59-2.1-.68-3.03s-.37-2.76-.61-4.07c-.66-3.56-.65-20.25.02-22.99.25-1.04.46-2.36.46-2.92s.17-1.55.37-2.19.68-2.24,1.07-3.54c.12-.42.25-.85.39-1.28-.44,1.55-.77,2.86-.77,3.2s-.17,1.28-.38,2.11c-1.2,4.77-1.87,17.61-1.22,23.39.72,6.44,1.06,9.03,1.3,9.89.14.51.33,1.57.43,2.37.02.17.05.36.08.57h0ZM266.19,189.84c1.97-5.57,2.46-7.47,2.63-9.97.08-1.11.25-2.3.38-2.66s.39-2,.56-3.66c.17-1.66.44-3.84.58-4.86.41-2.83.54-11.32.21-13.78-.16-1.2-.4-3.46-.54-5.01.14,1.55.39,3.87.56,5.14.64,4.75-.04,17.68-1.2,23.01-.21.94-.45,2.25-.54,2.9-.25,1.79-1.41,5.57-2.65,8.88h.01ZM221.53,214.99c.5.13.99.24,1.43.31,3.05.5,11.88.31,15.43-.27-.95.2-1.92.37-2.91.51-3.13.44-11.17.46-12.26.04-.3-.12-.97-.35-1.69-.59h0ZM140.04,65.68c2.04-.57,3.75-.99,4.25-.99.27,0,.5-.12.5-.26s.27-.26.61-.26,1.14-.17,1.78-.38c1.29-.41,5.51-.67,12.02-.75-6.34.15-11.82.65-12.68,1.43-.14.12-.81.23-1.49.23-.87,0-2.77.4-4.99.99h0ZM246.8,212.18c2.88-1.43,5.68-3.34,8.24-5.62-2.51,2.3-5.25,4.17-8.24,5.62ZM59,186.13c-.23-.77-.52-1.65-.72-2.23-.27-.78-.5-1.66-.5-1.98,0-.05,0-.11-.02-.18.13.72.34,1.55.53,2.12.2.59.47,1.49.71,2.27h0ZM260.67,200.39c.78-1.09,1.57-2.34,2.31-3.63-.75,1.34-1.5,2.52-2.31,3.63ZM59.67,135.58c.22-.69.44-1.34.65-1.95.03-.07.06-.15.09-.24-.16.5-.46,1.42-.74,2.19ZM239.76,214.72c.65-.18,1.38-.38,1.79-.5.09-.03.18-.05.27-.08-.68.21-1.37.4-2.06.57h0ZM62.96,128.1c.49-.9.91-1.66,1.17-2.02-.24.34-.68,1.11-1.17,2.02Z"/>
    <path class="st0" d="M266.19,189.84c-.65,1.72-1.31,3.31-1.88,4.43-.45.89-.89,1.71-1.32,2.48-.74,1.29-1.54,2.54-2.31,3.63-1.35,1.86-2.89,3.55-4.94,5.53-.23.22-.46.44-.69.65-2.56,2.28-5.36,4.19-8.24,5.62h0c-1.59.77-3.25,1.42-4.98,1.96h0c-.09.03-.18.05-.27.08-.41.11-1.14.32-1.79.5h0c-.45.11-.9.22-1.37.32-3.55.57-12.38.77-15.43.27-.44-.07-.93-.18-1.43-.31-.31-.11-.64-.21-.94-.31-1.02-.33-2.26-.81-2.77-1.08-.5-.27-1.03-.48-1.16-.48s-.81-.37-1.51-.81c-.7-.45-1.39-.74-1.54-.64-.15.09-.27,1.07-.27,2.16,0,1.92-.37,3.89-.84,4.42-.12.14-.22.44-.22.68,0,.34-.56,1.98-1.25,3.8.72-1.96,1.27-3.76,1.28-4.34,0-1.46.56-4.48.81-4.48.13,0,.2-.62.16-1.37-.06-1.15,0-1.39.41-1.47.27-.06.68.07.92.28.94.81,3.91,2.16,6.77,3.08,4.47,1.44,15.89.84,20.75-1.08.68-.27,1.44-.49,1.68-.49.68,0,4.83-2.16,7.43-3.88,2.63-1.73,7.49-6.48,9.23-9.01.62-.9,1.12-1.67,1.12-1.72s.64-1.23,1.43-2.61c.79-1.39,1.75-3.45,2.14-4.58s.86-2.35,1.04-2.72.42-1.16.52-1.78c.1-.62.29-1.18.41-1.26s.3-.7.39-1.38c.09-.69.29-1.54.45-1.91.16-.36.43-1.73.6-3.03.17-1.31.45-2.91.61-3.56.46-1.84,1.17-12.21,1.04-15.16-.21-4.93-.76-11.07-1.12-12.66-.2-.87-.44-2.35-.53-3.3-.09-.94-.35-2.23-.57-2.85-.22-.62-.36-1.48-.29-1.91.06-.43.03-.78-.07-.78s-.43-.74-.74-1.65c-.76-2.26-2.5-6.51-3.41-8.33-2.36-4.72-6.08-9.18-10.31-12.37-3.39-2.55-9.51-5.33-11.76-5.33h-1.01l.18,2.18c.1,1.2.04,4.27-.13,6.82-.28,4.1-.26,4.87.12,6.56.24,1.05.43,2.32.43,2.81,0,.28.05.6.15.94-.19-.42-.38-.88-.59-1.37-.44-1.08-.48-1.95-.42-9.86.03-4.77.12-8.74.19-8.8.15-.15,4.25.93,4.87,1.28.23.13,1.18.54,2.1.91,3.7,1.51,8.7,5.17,11.58,8.49,2.55,2.95,5.66,8.19,7,11.81,1.95,5.28,2.11,5.85,3.46,12.25.23,1.09.53,3.25.66,4.8.14,1.55.38,3.81.54,5.01.33,2.47.2,10.95-.21,13.78-.15,1.02-.41,3.2-.58,4.86-.17,1.66-.43,3.3-.56,3.66-.14.36-.31,1.55-.38,2.66-.17,2.49-.66,4.4-2.63,9.97h-.01ZM222.31,124.8c-.4-.57-.71-1.03-.84-1.29-.2-.38-.53-.9-.75-1.15-.22-.26-.63-1.33-.92-2.38-.48-1.71-.53-2.71-.53-9.88,0-4.39-.09-7.98-.2-7.98s-.2-.52-.2-1.15-.18-1.58-.4-2.1-.4-1.41-.4-1.96-.24-1.74-.53-2.62c-.29-.88-.5-1.89-.47-2.25.03-.32-.34-1.38-.87-2.66.54,1.21,1,2.21,1.09,2.34.22.35.84,2.58,1.52,5.54.65,2.82.81,4.98,1.09,14.77.18,6.58.27,7.58.8,9.23.33,1.02.71,2.1.85,2.4.1.21.37.63.75,1.16v-.02ZM57.72,181.53c-.03-.21-.06-.4-.08-.57-.09-.8-.28-1.87-.43-2.37-.25-.86-.59-3.44-1.3-9.89-.65-5.78.03-18.63,1.22-23.39.21-.83.38-1.78.38-2.11s.33-1.66.77-3.2c.03-.1.06-.2.09-.29-.37,1.39-.6,2.5-.6,3.1s-.18,1.89-.4,2.83-.51,3.02-.65,4.61c-.14,1.6-.37,3.73-.51,4.75-.32,2.26-.32,9.18,0,12.39.13,1.31.35,3.88.49,5.73.14,1.85.38,3.59.54,3.88.15.28.34,1.27.42,2.18.08.91.31,2.14.5,2.72s.42,1.71.5,2.52c.05.48.16,1.07.32,1.69-.23-.77-.51-1.65-.7-2.23-.19-.57-.4-1.4-.53-2.12,0-.06-.02-.14-.04-.21v-.02ZM181.32,64.52c-.55-.06-1.15-.1-1.69-.1-1.14,0-2.74-.2-3.62-.45-1.37-.39-3.02-.45-13.17-.45-8.23,0-11.81.09-12.31.31-.39.17-1.99.44-3.56.6-.16.02-.33.03-.49.05,0,0,.02-.01.03-.02.86-.78,6.34-1.28,12.68-1.43,1.19,0,2.45-.02,3.78-.02,7.49,0,13.22.35,16.04.99.82.19,1.58.36,2.3.52h0ZM108.43,102.83c0,2.24.19,4.61.54,7.23.17,1.29.23,2.42.13,2.52-.1.1-.93-.09-1.83-.41-3.55-1.29-5.19-1.68-8.1-1.9-3.94-.3-11.39-.04-12.86.44-.62.2-1.52.37-1.99.37-.41,0-.9.08-1.48.24,2.03-.71,3.97-1.16,5.9-1.38,3.06-.35,8.93-.38,11.62-.07,1.88.22,4.18.85,6.66,1.82,1.65.65,2.21.4,1.69-.75-.3-.65-.38-4.48-.28-8.12h0ZM212.03,81.79c-1.95-2.64-4.43-5.19-7.1-7.37,2.83,2.23,5.15,4.62,7.1,7.37ZM111.89,86.79c-.2.45-.39.89-.57,1.34-1.31,3.33-2.15,6.39-2.57,9.56.02-.2.05-.38.07-.55.57-3.79,1.55-7.15,3.07-10.36h0ZM134.89,67.27c-1.86.68-3.72,1.47-5.58,2.38,1.47-.73,2.9-1.4,3.61-1.67.57-.22,1.24-.46,1.97-.7h0ZM196.51,69.26c-1.96-.87-4.43-1.89-5.06-2.06,1.16.32,3.1,1.12,5.06,2.06ZM144.89,64.69c-1.43.21-2.86.5-4.3.85,1.87-.49,3.46-.81,4.3-.85ZM116.66,79.35c-.94,1.1-1.79,2.25-2.56,3.42.24-.38.48-.75.74-1.13.46-.68,1.08-1.46,1.82-2.29ZM187.97,66.06c-1.12-.31-2.33-.62-2.97-.72-.41-.07-1.02-.21-1.56-.36.44.09.87.18,1.29.27.83.17,2.1.49,3.24.81ZM243.06,133.84c1.04,1.47,2.52,3.29,4.53,5.58-2.2-2.53-3.54-4.14-4.53-5.58ZM125.6,71.58c-1.07.63-1.87,1.24-3.32,2.4.82-.68,1.63-1.31,2.4-1.84.18-.13.5-.32.92-.55h0ZM60.32,189.9c.2.44.36.91.36,1.06,0,.18.63,1.52,1.39,3-.75-1.48-1.39-2.82-1.39-2.99,0-.13-.15-.58-.36-1.07h0ZM75.9,114.54c-.61.35-1.24.72-1.91,1.11-.46.28-1.09.73-1.76,1.26.67-.53,1.29-.98,1.76-1.26.65-.39,1.29-.76,1.91-1.11ZM59.67,135.58c.27-.78.58-1.7.74-2.19-.16.5-.47,1.43-.75,2.21v-.02h0Z"/>
    <path class="st2" d="M162.98,264.62c-3.43-.93-5.15-1.62-9.93-3.95-3.68-1.8-5.37-2.86-5.37-3.38,0-.22.64-1.26,1.43-2.31,2.01-2.69,5.29-7.06,5.88-7.84.28-.36,3.46-4.57,7.07-9.36,7.06-9.35,13.64-18.05,17.68-23.33,2.54-3.33,7.34-9.61,8.55-11.2.36-.47,1.18-1.56,1.83-2.42,6.78-9,12.37-15.15,15.71-17.27,4.11-2.62,5.13-2.79,17.4-2.97,5.5-.08,9.89-.25,10.45-.42,1.28-.38,2.52-1.25,3.5-2.48l.81-1.02v-4.67c0-3.58.08-4.78.36-5.12.2-.24.46-.44.58-.44.42,0,2.62-1.62,2.9-2.13.55-1.04-1.03-3.02-3-3.75-.75-.28-.42-.7,1.28-1.61,2.31-1.23,3.59-2.1,4.44-3l.76-.8-.81-1.67c-.44-.92-.88-1.96-.96-2.33-.25-1.07.69-2.21,3.18-3.87,2.67-1.78,3.32-2.55,3.36-3.96.03-.93-.2-1.28-2.49-3.91-4.75-5.46-6.57-8.21-6.57-9.97,0-.5-.2-1.76-.43-2.81-.38-1.68-.4-2.46-.12-6.56.17-2.55.23-5.62.13-6.82l-.18-2.18h1.01c2.24,0,8.37,2.78,11.76,5.33,4.23,3.19,7.95,7.65,10.31,12.37.91,1.82,2.65,6.07,3.41,8.33.3.91.64,1.65.74,1.65s.13.35.07.78.07,1.29.29,1.91c.22.62.48,1.91.57,2.85s.33,2.43.53,3.3c.37,1.59.91,7.72,1.12,12.66.13,2.95-.59,13.33-1.04,15.16-.16.65-.44,2.25-.61,3.56-.17,1.31-.45,2.67-.6,3.03-.16.36-.36,1.22-.45,1.91-.09.69-.26,1.31-.39,1.38-.12.08-.31.64-.41,1.26-.1.61-.34,1.41-.52,1.78s-.65,1.58-1.04,2.72c-.39,1.13-1.35,3.19-2.14,4.58s-1.43,2.56-1.43,2.61-.5.83-1.12,1.72c-1.73,2.53-6.6,7.28-9.23,9.01-2.6,1.71-6.74,3.88-7.43,3.88-.25,0-1.01.22-1.68.49-4.86,1.92-16.28,2.51-20.75,1.08-2.86-.92-5.83-2.27-6.77-3.08-.24-.21-.66-.33-.92-.28-.4.08-.47.32-.41,1.47.04.75-.03,1.37-.16,1.37-.25,0-.8,3.02-.81,4.48,0,1.09-1.97,6.55-3.32,9.24-1.09,2.16-4.24,6.89-6.4,9.62-2.26,2.85-9.06,9.49-12.58,12.29-4.71,3.74-7.51,5.67-12.13,8.33-5.63,3.25-13.93,7.01-14.9,6.75h0ZM127.72,241.9c-2.52-2.53-4.36-4.86-7.32-9.31-2.27-3.41-3.83-6.2-3.82-6.84,0-.2,1.24-2.02,2.75-4.06,3.09-4.15,2.97-3.99,5.85-7.78,2.26-2.97,8.32-11,9.19-12.18.61-.83,4.88-6.38,8.17-10.62,2.82-3.63,5.48-7.11,8.17-10.68,4.9-6.5,9.77-11.51,12.93-13.31,4.38-2.49,9.07-3.16,20.04-2.87,5.28.14,6,.11,7.99-.38,1.23-.3,2.57-.83,3.04-1.19.78-.59,1.05-1.02,2.02-3.13.32-.69.23-3.97-.16-6.35-.28-1.66.02-2.22,1.87-3.42,1.84-1.2,2.4-2.08,2.12-3.32-.21-.93-.86-1.57-2.34-2.29-1.16-.56-1.44-1.26-.57-1.39,2.05-.33,5.17-2.15,6.03-3.52l.5-.79-.96-1.84c-.53-1.01-.96-2.11-.96-2.43,0-.71,1.65-2.35,3.75-3.72,2.22-1.44,3.11-2.56,3.11-3.91,0-1.02-.14-1.24-1.9-2.96-1.92-1.88-4.33-4.61-5.41-6.12-1.56-2.21-3.22-6.77-3.24-8.91,0-1.28-.25-1.42-2.27-1.41-1.02.01-2.26-.06-2.76-.16-1.56-.31-4.79-1.49-6.38-2.33-1.82-.96-4.91-3.54-6.67-5.58-.76-.88-1.37-1.37-1.51-1.23-.13.13-.35,1.21-.48,2.4-.21,1.89-1.59,6.69-2.62,9.09-1.3,3.06-2.95,6.21-4.55,8.7-1.66,2.57-7.81,10.93-12.73,17.27-2.42,3.12-3.08,3.98-5.7,7.41-1.99,2.61-5.06,6.6-10.62,13.82-5.76,7.48-9.65,12.57-12.96,16.95-2.11,2.79-3.98,5.23-4.15,5.41-.17.17-1.26,1.56-2.43,3.09-4.24,5.56-9.85,12.89-12.9,16.85-11.17,14.54-12.69,16.44-13.41,16.72-1.43.56-9.76-.7-12.82-1.94-.65-.26-2.01-.81-3.02-1.22-6.22-2.52-12.58-8.22-16.56-14.83-1.07-1.78-3.36-6.3-3.36-6.64,0-.16-.18-.67-.39-1.13-.76-1.62-1.47-3.99-1.62-5.43-.08-.8-.31-1.94-.5-2.52-.2-.58-.42-1.8-.5-2.72-.08-.91-.27-1.89-.42-2.18-.15-.29-.39-2.03-.54-3.88-.14-1.85-.36-4.42-.49-5.73-.32-3.21-.33-10.13,0-12.39.14-1.02.37-3.15.51-4.75s.43-3.67.65-4.61.4-2.22.4-2.83c0-1.1.75-3.97,1.85-7.06.31-.87.68-1.98.83-2.47.31-1,2.93-6.13,3.69-7.2.27-.38.5-.78.5-.88,0-.3,2.39-3.3,4.03-5.06,1.43-1.53,4.01-3.7,5.33-4.49,5.11-3.05,8.54-4.56,10.33-4.56.47,0,1.37-.17,1.99-.37,1.47-.48,8.92-.74,12.86-.44,2.92.22,4.55.6,8.1,1.9.9.33,1.72.51,1.83.41.1-.1.04-1.24-.13-2.52-1.15-8.66-.51-14.66,2.34-21.93,2.02-5.15,5.66-9.9,10.66-13.92,2.74-2.21,3.26-2.54,6.65-4.23,6.14-3.07,12.32-4.94,18.35-5.56,1.57-.16,3.17-.43,3.56-.6.5-.22,4.08-.31,12.31-.31,10.15,0,11.8.06,13.17.45.88.25,2.48.45,3.62.45s2.55.17,3.17.37c.62.2,1.6.45,2.18.54,1.21.2,4.49,1.11,5.27,1.46.29.13.82.32,1.19.41.87.24,5.32,2.12,6.99,2.95,5.99,3,12.19,8.81,15.48,14.5,1.39,2.4,3.22,6.67,3.16,7.38-.03.36.18,1.37.47,2.25.29.88.53,2.06.53,2.62s.18,1.44.4,1.96.4,1.47.4,2.1.09,1.15.2,1.15.2,3.59.2,7.98c0,7.17.05,8.17.53,9.88.29,1.05.7,2.12.92,2.38.22.26.55.78.75,1.15.47.92,3.02,4.26,4.71,6.18,3.65,4.16,3.77,4.33,3.77,5.22,0,1.47-1.82,3.54-4.15,4.74-.47.24-1.27.81-1.78,1.25-1.24,1.09-1.24,2.07,0,3.81.51.71.92,1.58.92,1.94,0,.9-1.94,2.67-4.06,3.72-.95.47-1.87,1.01-2.02,1.2-.33.4-.11.9.39.9.66,0,1.72,1.09,2.02,2.08.42,1.41-.13,2.33-2.12,3.58-1.89,1.19-2.07,1.64-1.64,4.16.17.99.31,2.28.31,2.87,0,1.49-.72,4.14-1.38,5.07-1.29,1.81-5.38,2.67-11.93,2.51-10.16-.25-14.3.17-17.72,1.81-3.11,1.5-6.56,4.63-10.39,9.43-2.08,2.61-9.42,12.12-10.52,13.63-.85,1.17-6.64,8.78-9.1,11.96-2.88,3.73-12.55,16.42-18.88,24.77-6.37,8.41-7.23,9.49-7.66,9.57-.26.05-1.29-.77-2.53-2.02v.05Z"/>
  </g>
  <polygon class="st3" points="297.18 126.24 297.18 27.24 180.19 27.24 180.19 18.24 144.19 18.24 144.19 27.24 27.19 27.24 27.19 126.24 18.19 126.24 18.19 198.24 27.19 198.24 27.19 297.24 126.19 297.24 126.19 306.24 198.19 306.24 198.19 297.24 297.18 297.24 297.18 198.24 306.18 198.24 306.18 126.24 297.18 126.24"/>
</svg>