<?xml version="1.0" encoding="UTF-8"?>
<svg id="Layer_1" xmlns="http://www.w3.org/2000/svg" version="1.1" xmlns:xlink="http://www.w3.org/1999/xlink" viewBox="0 0 324 324">
  <!-- Generator: Adobe Illustrator 30.1.0, SVG Export Plug-In . SVG Version: 2.1.1 Build 136)  -->
  <defs>
    <style>
      .st0, .st1, .st2 {
        stroke-width: 3px;
      }

      .st0, .st1, .st2, .st3 {
        stroke-miterlimit: 10;
      }

      .st0, .st4, .st3 {
        fill: #fff;
      }

      .st0, .st5 {
        stroke: #000;
      }

      .st1 {
        stroke: #e6e6e6;
      }

      .st2 {
        stroke-linecap: round;
      }

      .st2, .st6, .st5 {
        fill: none;
      }

      .st2, .st3 {
        stroke: #b3b3b3;
      }

      .st5 {
        stroke-miterlimit: 11.34;
        stroke-width: .1px;
      }

      .st7 {
        fill: #666;
      }

      .st8 {
        fill: #b3b3b3;
      }

      .st3 {
        stroke-width: 4px;
      }

      .st9 {
        clip-path: url(#clippath);
      }

      .st10 {
        fill: #e6e6e6;
      }
    </style>
    <clipPath id="clippath">
      <rect class="st6" x="26.82" y="26.82" width="270.37" height="270.37"/>
    </clipPath>
  </defs>
  <g>
    <g id="BG">
      <rect class="st7" x="26.82" y="26.82" width="270.37" height="270.37"/>
      <path class="st4" d="M193.82,48.93c.08,0,.14-.08.14-.15s-.06-.15-.14-.15l-8.95-.93c-.06,0-.1-.04-.12-.08-.02-.05-.02-.1,0-.15l2.38-3.49c.04-.07.04-.14-.02-.2s-.13-.06-.2-.02l-3.47,2.36s-.1.04-.15,0c-.05-.03-.08-.08-.08-.12l-.96-10.96c0-.08-.08-.14-.15-.14s-.15.07-.15.14l-.96,10.96c0,.06-.04.1-.08.12-.05.03-.11.02-.15,0l-3.47-2.36c-.07-.04-.14-.04-.2.02s-.06.13-.02.2l2.38,3.49s.04.1,0,.15c-.02.05-.07.08-.12.08l-8.95.93c-.08,0-.14.08-.14.15s.06.15.14.15l8.95.93c.06,0,.1.04.12.08s.02.1,0,.15l-2.38,3.49c-.04.07-.04.14.02.2s.13.06.2.02l3.47-2.36s.1-.04.15,0,.08.08.08.12l.96,10.96c0,.08.08.14.15.14s.15-.07.15-.14l.96-10.96c0-.06.04-.1.08-.12.05-.03.11-.02.15,0l3.47,2.36c.07.04.14.04.2-.02s.06-.13.02-.2l-2.38-3.49s-.04-.1,0-.15c.02-.05.07-.08.12-.08l8.95-.93h0Z"/>
      <path class="st4" d="M74.95,122.05c.09,0,.16-.08.16-.18s-.07-.17-.16-.18l-10.19-1.06c-.07,0-.11-.05-.14-.1s-.02-.12,0-.17l2.7-3.98c.05-.07.04-.16-.02-.23-.06-.06-.15-.07-.23-.02l-3.95,2.68c-.06.04-.12.04-.18,0s-.09-.08-.1-.14l-1.09-12.49c0-.09-.08-.16-.18-.16s-.17.07-.18.16l-1.09,12.49c0,.07-.05.11-.1.14s-.12.02-.18,0l-3.95-2.68c-.07-.05-.16-.04-.23.02-.06.06-.07.15-.02.23l2.7,3.98s.04.11,0,.17-.08.09-.14.1l-10.19,1.06c-.09,0-.16.08-.16.18s.07.17.16.18l10.19,1.06c.07,0,.11.05.14.1s.02.12,0,.17l-2.7,3.98c-.05.07-.04.16.02.23.06.06.15.07.23.02l3.95-2.68c.06-.04.12-.04.18,0,.06.03.09.08.1.14l1.09,12.49c0,.09.08.16.18.16s.17-.07.18-.16l1.09-12.49c0-.07.05-.11.1-.14s.12-.02.18,0l3.95,2.68c.07.05.16.04.23-.02.06-.06.07-.15.02-.23l-2.7-3.98s-.04-.11,0-.17.08-.09.14-.1l10.19-1.06h0Z"/>
      <path class="st4" d="M292.54,124.38c.09,0,.17-.09.17-.19s-.08-.18-.17-.19l-10.79-1.13c-.07,0-.12-.05-.15-.1s-.02-.13.02-.19l2.85-4.22c.05-.08.04-.17-.02-.23-.07-.07-.16-.08-.23-.02l-4.18,2.84c-.06.04-.12.05-.19,0-.06-.03-.1-.08-.1-.15l-1.15-13.22c0-.09-.08-.17-.19-.17s-.18.08-.19.17l-1.15,13.22c0,.07-.05.12-.1.15-.06.03-.13.02-.19,0l-4.18-2.84c-.08-.05-.17-.04-.23.02-.07.07-.08.16-.02.23l2.85,4.22c.04.06.05.12.02.19-.03.06-.08.1-.15.1l-10.79,1.13c-.09,0-.17.09-.17.19s.08.18.17.19l10.79,1.13c.07,0,.12.05.15.1s.02.13-.02.19l-2.85,4.22c-.05.08-.04.17.02.23.07.07.16.08.23.02l4.18-2.84c.06-.04.12-.05.19,0,.06.03.1.08.1.15l1.15,13.22c0,.09.08.17.19.17s.18-.08.19-.17l1.15-13.22c0-.07.05-.12.1-.15.06-.03.13-.02.19,0l4.18,2.84c.08.05.17.04.23-.02.07-.07.08-.16.02-.23l-2.85-4.22c-.04-.06-.05-.12-.02-.19.03-.06.08-.1.15-.1l10.79-1.13h0Z"/>
      <path class="st4" d="M73.49,57.61c.3-.03.53-.28.53-.58s-.23-.55-.53-.58l-13.41-1.4c-.09,0-.19-.08-.23-.16-.04-.09-.04-.2.02-.28l4.33-6.37c.08-.11.07-.26-.04-.36-.09-.09-.24-.11-.36-.04l-6.33,4.29c-.08.06-.19.07-.28.02s-.15-.13-.16-.23l-1.45-16.51c-.03-.3-.28-.54-.59-.54s-.56.23-.58.54l-1.45,16.51c0,.09-.07.19-.16.23s-.2.04-.28-.02l-6.33-4.29c-.11-.08-.26-.07-.36.04-.09.09-.11.24-.04.36l4.33,6.37c.06.08.07.19.02.28-.04.09-.13.15-.23.16l-13.4,1.4c-.3.03-.53.28-.53.58s.23.55.53.58l13.4,1.4c.09,0,.19.08.23.16.05.09.04.2-.02.28l-4.33,6.37c-.08.11-.07.26.04.36.09.09.24.11.36.04l6.33-4.3c.08-.06.19-.07.28-.02s.15.13.16.23l1.45,16.5c.03.31.28.54.58.54s.56-.23.59-.54l1.45-16.5c0-.1.07-.19.16-.23s.2-.04.28.02l6.33,4.3c.11.08.26.07.36-.04.09-.09.11-.24.04-.36l-4.33-6.37c-.06-.08-.07-.19-.02-.28.05-.08.13-.15.23-.16l13.41-1.4h0Z"/>
      <path class="st4" d="M292.07,70.59c.37-.04.64-.35.64-.71s-.28-.68-.64-.71l-16.3-1.7c-.12,0-.23-.08-.28-.2-.05-.11-.04-.23.03-.34l5.26-7.75c.09-.13.08-.32-.04-.43s-.3-.13-.43-.04l-7.7,5.22c-.1.07-.23.08-.35.03-.11-.06-.18-.16-.19-.28l-1.76-20.07c-.03-.37-.35-.66-.71-.66s-.68.29-.71.66l-1.76,20.07c0,.12-.08.23-.2.28-.11.05-.24.04-.34-.03l-7.7-5.22c-.14-.09-.32-.08-.44.04-.11.11-.13.3-.04.43l5.26,7.75c.07.1.08.23.03.34s-.15.19-.27.2l-16.3,1.7c-.37.04-.64.35-.64.71s.28.68.64.71l16.3,1.7c.12,0,.23.08.27.2.06.11.04.24-.03.34l-5.26,7.74c-.09.14-.08.32.04.44.11.11.3.13.44.04l7.7-5.22c.1-.07.23-.08.34-.03.11.06.19.16.2.28l1.76,20.07c.03.38.34.66.71.66s.69-.28.71-.66l1.76-20.07c0-.12.08-.23.19-.28.11-.06.24-.05.35.03l7.7,5.22c.13.09.32.08.43-.04.11-.11.13-.3.04-.44l-5.26-7.74c-.07-.1-.08-.23-.03-.34.06-.1.16-.18.28-.2l16.3-1.7h0Z"/>
      <path class="st4" d="M125.42,64.35c.21-.02.37-.19.37-.4s-.16-.38-.37-.4l-9.17-.96c-.07,0-.12-.05-.15-.11s-.03-.13,0-.19l2.97-4.37c.05-.08.04-.18-.03-.24s-.17-.08-.24-.02l-4.33,2.94c-.06.04-.13.05-.19.02-.07-.03-.1-.09-.11-.16l-.99-11.3c-.02-.21-.19-.37-.4-.37s-.38.16-.4.37l-.99,11.3c0,.07-.05.12-.11.16-.06.03-.13.02-.19-.02l-4.33-2.94c-.08-.06-.18-.05-.24.02s-.08.17-.02.24l2.96,4.37c.04.06.05.13.02.19-.03.07-.08.1-.16.11l-9.17.96c-.21.02-.37.19-.37.4s.16.38.37.4l9.17.96c.07,0,.13.05.16.11.03.06.02.13-.02.19l-2.96,4.37c-.06.08-.05.18.02.24s.17.08.24.02l4.33-2.94c.06-.04.13-.05.19-.02.07.03.1.09.11.16l.99,11.3c.02.21.19.37.4.37s.38-.16.4-.37l.99-11.3c0-.07.05-.12.11-.16.07-.03.13-.02.19.02l4.33,2.94c.08.06.18.05.24-.02.07-.07.08-.17.03-.24l-2.97-4.37c-.04-.06-.05-.13,0-.19.03-.07.08-.1.15-.11l9.17-.96h0Z"/>
    </g>
    <g id="Sun">
      <g>
        <path class="st4" d="M162,212.84c-28.03,0-50.84-22.8-50.84-50.84s22.8-50.84,50.84-50.84,50.84,22.8,50.84,50.84-22.8,50.84-50.84,50.84Z"/>
        <path class="st8" d="M162,112.56c27.26,0,49.44,22.17,49.44,49.44s-22.17,49.44-49.44,49.44-49.44-22.17-49.44-49.44,22.17-49.44,49.44-49.44M162,109.75c-28.86,0-52.25,23.39-52.25,52.25s23.39,52.25,52.25,52.25,52.25-23.39,52.25-52.25-23.39-52.25-52.25-52.25h0Z"/>
      </g>
      <g>
        <g id="_Radial_Repeat_">
          <polygon class="st0" points="162.02 68.11 181.88 102.54 142.14 102.53 162.02 68.11"/>
        </g>
        <g id="_Radial_Repeat_-2">
          <polygon class="st0" points="228.41 95.63 218.11 134.02 190.01 105.9 228.41 95.63"/>
        </g>
        <g id="_Radial_Repeat_-3">
          <polygon class="st0" points="255.89 162.02 221.46 181.88 221.47 142.14 255.89 162.02"/>
        </g>
        <g id="_Radial_Repeat_-4">
          <polygon class="st0" points="228.37 228.41 189.98 218.11 218.09 190.01 228.37 228.41"/>
        </g>
        <g id="_Radial_Repeat_-5">
          <polygon class="st0" points="161.98 255.89 142.12 221.46 181.86 221.47 161.98 255.89"/>
        </g>
        <g id="_Radial_Repeat_-6">
          <polygon class="st0" points="95.59 228.37 105.89 189.98 133.99 218.09 95.59 228.37"/>
        </g>
        <g id="_Radial_Repeat_-7">
          <polygon class="st0" points="68.11 161.98 102.54 142.12 102.53 181.86 68.11 161.98"/>
        </g>
        <g id="_Radial_Repeat_-8">
          <polygon class="st0" points="95.63 95.59 134.02 105.89 105.9 133.99 95.63 95.59"/>
        </g>
      </g>
      <circle class="st3" cx="162" cy="162" r="36.93"/>
    </g>
    <g id="Moon">
      <path class="st1" d="M197.78,70.68c12.61,15.61,20.17,35.48,20.17,57.12,0,50.23-40.72,90.96-90.96,90.96-20.87,0-40.1-7.03-55.44-18.85,14.82,35.34,49.74,60.15,90.46,60.15,54.16,0,98.06-43.9,98.06-98.06,0-41.53-25.82-77.03-62.28-91.32h-.01Z"/>
    </g>
    <g id="Clouds">
      <g class="st9">
        <g>
          <path class="st10" d="M203.7,246.77h.05c.9-16.11,14.25-28.9,30.59-28.9,4.06,0,7.94.8,11.49,2.23,3.82-14.73,17.21-25.6,33.13-25.6,16.8,0,30.77,12.11,33.67,28.07,4.31-1.61,8.97-2.5,13.84-2.5,21.8,0,39.48,17.68,39.48,39.48s-17.68,39.48-39.48,39.48c0,0-123.33,1.23-122.77,0-14.43,0-26.14-11.7-26.14-26.14s11.7-26.14,26.14-26.14h0v.02Z"/>
          <path class="st10" d="M112.79,252.07h-.44c-2.37-13.42-14.09-23.61-28.18-23.61-3.07,0-6.02.49-8.79,1.38-4.86-14.58-18.62-25.08-34.83-25.08s-29.68,10.29-34.68,24.63c-2.31-.6-4.74-.93-7.25-.93-14.1,0-25.82,10.2-28.18,23.61h-.44c-15.81,0-28.62,12.81-28.62,28.62s12.81,28.62,28.62,28.62c4,0,7.8-.82,11.26-2.3,4.9,8.73,14.25,14.64,24.97,14.64,5.45,0,10.55-1.53,14.89-4.18,5.18,5.2,12.35,8.41,20.27,8.41s15.09-3.22,20.27-8.41c4.34,2.65,9.43,4.18,14.89,4.18,10.73,0,20.07-5.9,24.98-14.64,3.45,1.48,7.26,2.3,11.26,2.3,15.8,0,28.61-12.81,28.61-28.62s-12.81-28.62-28.61-28.62h0Z"/>
          <path class="st2" d="M202.25,258.24c-.97.03-7.64.34-12.19,6.05-4.07,5.1-3.53,10.85-3.4,11.95"/>
          <path class="st2" d="M241.21,228.54c-1.5-.38-8.8-2.07-16.19,2.2-6.61,3.8-8.99,9.88-9.58,11.53"/>
          <path class="st2" d="M285.75,204.93c-1.08-.54-6.97-3.37-13.99-1-7.36,2.49-10.3,8.77-10.77,9.81"/>
          <path class="st2" d="M114.36,262.49c.44-.02,10.79-.38,15.8,8.17,2.67,4.54,2.44,9.25,2.25,11.05"/>
          <path class="st2" d="M79.92,238.98c1.81-.3,6.74-.88,12.08,1.43,7.02,3.03,9.59,8.84,10.13,10.14"/>
          <path class="st2" d="M31.92,214.96c2.21-.68,8.68-2.35,16.38,0,7.5,2.29,11.69,7.05,13.1,8.82"/>
        </g>
      </g>
    </g>
  </g>
  <polygon class="st5" points="297.18 126.24 297.18 27.24 180.19 27.24 180.19 18.24 144.19 18.24 144.19 27.24 27.19 27.24 27.19 126.24 18.19 126.24 18.19 198.24 27.19 198.24 27.19 297.24 126.19 297.24 126.19 306.24 198.19 306.24 198.19 297.24 297.18 297.24 297.18 198.24 306.18 198.24 306.18 126.24 297.18 126.24"/>
</svg>